<?xml version="1.0" standalone="no"?>
<!DOCTYPE svg PUBLIC "-//W3C//DTD SVG 1.1//EN" "http://www.w3.org/Graphics/SVG/1.1/DTD/svg11.dtd" >
<svg>
<metadata>
Created by FontForge 20090914 at Mon Oct  7 17:10:05 2013
 By www-data
Copyright (c) Graham Meade, 2004. All rights reserved.
</metadata>
<defs>
<font id="TallFilmsFine" horiz-adv-x="232" >
  <font-face 
    font-family="Tall Films Fine"
    font-weight="500"
    font-stretch="normal"
    units-per-em="1000"
    panose-1="2 0 6 8 2 0 0 2 0 4"
    ascent="800"
    descent="-200"
    x-height="510"
    cap-height="691"
    bbox="-64 -198.879 530 801"
    underline-thickness="50"
    underline-position="-50"
    unicode-range="U+0005-U+2122"
  />
<missing-glyph horiz-adv-x="1000" 
 />
    <glyph glyph-name=".notdef" horiz-adv-x="1000" 
 />
    <glyph glyph-name="breve" horiz-adv-x="189" 
d="M91 629l-50 56h7l46 -52l47 52h7l-50 -56h-7z" />
    <glyph glyph-name="dotlessi" unicode="&#xd;" horiz-adv-x="88" 
d="M41 0v510h6v-510h-6z" />
    <glyph glyph-name="fraction" horiz-adv-x="236" 
d="M47 0h-6l149 690h4z" />
    <glyph glyph-name="fi" horiz-adv-x="265" 
d="M41 0v613c0 21.333 7.16699 39.5 21.5 54.5s32.166 22.5 53.499 22.5s39.166 -7.5 53.499 -22.5s21.5 -33.167 21.5 -54.5h-6c0 19.333 -6.66699 36 -20 50s-29.666 21 -48.999 21s-35.666 -7 -48.999 -21s-20 -30.667 -20 -50v-103h171h6v-510h-6v504h-171v-504h-6z" />
    <glyph glyph-name="fl" horiz-adv-x="265" 
d="M41 0v613c0 21.333 7.16699 39.5 21.5 54.5s32.166 22.5 53.499 22.5s39.166 -7.5 53.499 -22.5s21.5 -33.167 21.5 -54.5h-6c0 19.333 -6.66699 36 -20 50s-29.666 21 -48.999 21s-35.666 -7 -48.999 -21s-20 -30.667 -20 -50v-103h171v180h6v-690h-6v504h-171v-504h-6z
" />
    <glyph glyph-name="Zcaron" horiz-adv-x="231" 
d="M112 724l-50 55h7l47 -51l46 51h7l-50 -55h-7zM47 0h-3h-3l142 684h-139v6h141h1h4l-142 -684h138v-6h-139z" />
    <glyph glyph-name="zcaron" horiz-adv-x="231" 
d="M119 555l-50 55h8l46 -51l46 51h7l-49 -55h-8zM47 0h-3h-3l142 504h-139v6h141h1h4l-142 -504h138v-6h-139z" />
    <glyph glyph-name="space" unicode=" " horiz-adv-x="179" 
 />
    <glyph glyph-name="space" unicode="&#xa0;" horiz-adv-x="179" 
 />
    <glyph glyph-name="exclam" unicode="!" horiz-adv-x="88" 
d="M41 145v545h6v-545h-6zM41 0v49h6v-49h-6z" />
    <glyph glyph-name="quotedbl" unicode="&#x22;" horiz-adv-x="137" 
d="M90 582v134h6v-134h-6zM41 582v134h6v-134h-6z" />
    <glyph glyph-name="numbersign" unicode="#" horiz-adv-x="236" 
d="M142 248l10 71h-60l-9 -71h59zM183 243h-36l-21 -150h-6l21 150h-59l-21 -150h-6l21 150h-35l1 5h35l10 71h-35v6h36l20 147h6l-21 -147h60l21 147h5l-20 -147h36l-1 -6h-36l-10 -71h36z" />
    <glyph glyph-name="dollar" unicode="$" 
d="M114 0v57.0049c-20.667 1.33301 -38 9.16602 -52 23.499s-21 32.166 -21 53.499v49h6v-49c0 -19.333 6.66699 -36 20 -50s29.666 -21 48.999 -21s35.666 7 48.999 21s20 30.667 20 50v147c0 22 -9 40.333 -27 55c-5.33301 4.66699 -11.5 8.5 -18.5 11.5l-21.5 9.5
c-13.333 5.33301 -23.5 9.66602 -30.5 12.999s-13.833 7.66602 -20.5 12.999c-17.333 15.333 -26 35 -26 59v114c0 20.667 7 38.334 21 53.001s31 22.334 51 23.001v58h6v-58c20 -0.666992 37 -8.33398 51 -23.001s21 -32.334 21 -53.001v-49h-6v49
c0 19.333 -6.66699 36 -20 50s-29.666 21 -48.999 21s-35.666 -7 -48.999 -21s-20 -30.667 -20 -50v-114c0 -22.667 8 -41 24 -55c6 -5.33301 13 -9.5 21 -12.5s16.667 -6.5 26 -10.5l24.5 -11.5c6.33301 -3 12.833 -6.83301 19.5 -11.5c9.33301 -7.33301 16.5 -16 21.5 -26
s7.5 -21.333 7.5 -34v-147c0 -20.667 -7 -38.334 -21 -53.001s-31 -22.667 -51 -24v-57h-5z" />
    <glyph glyph-name="percent" unicode="%" horiz-adv-x="370" 
d="M46 504c0 -17.333 5.5 -32 16.5 -44s24.5 -18 40.5 -18s29.667 6 41 18s17 26.667 17 44v110c0 17.333 -5.66699 32 -17 44s-25 18 -41 18s-29.5 -6 -40.5 -18s-16.5 -26.667 -16.5 -44v-110v0zM165 504c0 -19.333 -6 -35.5 -18 -48.5s-26.667 -19.5 -44 -19.5
s-32 6.5 -44 19.5s-18 29.167 -18 48.5v110c0 18 6 33.667 18 47s26.667 20 44 20s32 -6.66699 44 -20s18 -29 18 -47v-110v0zM111 0h-6l146 674h5zM209 67c0 -17.333 5.5 -32 16.5 -44s24.5 -18 40.5 -18s29.667 6 41 18s17 26.667 17 44v109
c0 17.333 -5.66699 32.166 -17 44.499s-25 18.5 -41 18.5s-29.5 -6.16699 -40.5 -18.5s-16.5 -27.166 -16.5 -44.499v-109v0zM328 67c0 -18.667 -6 -34.5 -18 -47.5s-26.667 -19.5 -44 -19.5s-32 6.5 -44 19.5s-18 28.833 -18 47.5v109c0 19.333 6 35.5 18 48.5
s26.667 19.5 44 19.5s32 -6.5 44 -19.5s18 -29.167 18 -48.5v-109v0z" />
    <glyph glyph-name="ampersand" unicode="&#x26;" 
d="M47 77c0 -19.333 6.66797 -36 20.001 -50s29.666 -21 48.999 -21s35.666 7 48.999 21s20 30.667 20 50v313h-69c-19.333 0 -35.666 -7 -48.999 -21s-20 -30.667 -20 -50v-242v0zM116.001 0c-21.333 0 -39.166 7.49805 -53.499 22.498s-21.5 33.167 -21.5 54.5v242
c0 17.333 5.16699 32.833 15.5 46.5s23.5 22.834 39.5 27.501c-16 4.66699 -29.167 13.834 -39.5 27.501s-15.5 29.167 -15.5 46.5v146c0 21.333 7.16699 39.5 21.5 54.5s32.166 22.5 53.499 22.5s39.166 -7.5 53.499 -22.5s21.5 -33.167 21.5 -54.5h-6
c0 19.333 -6.66699 36 -20 50s-29.666 21 -48.999 21s-35.666 -7 -48.999 -21s-20 -30.667 -20 -50v-146c0 -20 6.66699 -37 20 -51s29.666 -21 48.999 -21h69v41h6v-359v-119h-6v89c-5.33301 -14 -14.333 -25.333 -27 -34s-26.667 -13 -42 -13z" />
    <glyph glyph-name="quotesingle" unicode="'" horiz-adv-x="88" 
d="M41 582v134h6v-134h-6z" />
    <glyph glyph-name="parenleft" unicode="(" horiz-adv-x="158" 
d="M117 -41c-21.333 0 -39.333 7.5 -54 22.5s-22 33.167 -22 54.5h1v618h-1c0 21.333 7.33301 39.333 22 54s32.667 22 54 22v-5c-19.333 0 -35.833 -7 -49.5 -21s-20.5 -30.667 -20.5 -50v-618c0 -19.333 6.83301 -36 20.5 -50s30.167 -21 49.5 -21v-6v0z" />
    <glyph glyph-name="parenright" unicode=")" horiz-adv-x="158" 
d="M117 36c0 -21.333 -7.33301 -39.5 -22 -54.5s-32.667 -22.5 -54 -22.5v6c19.333 0 35.666 7 48.999 21s20 30.667 20 50v618c0 19.333 -6.66699 36 -20 50s-29.666 21 -48.999 21v5c21.333 0 39.333 -7.33301 54 -22s22 -32.667 22 -54v-618v0z" />
    <glyph glyph-name="asterisk" unicode="*" horiz-adv-x="203" 
d="M98 488v94l-55 -32l-2 5l54 32l-54 31l2 5l55 -31v93h6v-94l54 32l4 -5l-55 -31l55 -32l-4 -5l-54 32v-94h-6z" />
    <glyph glyph-name="plus" unicode="+" horiz-adv-x="224" 
d="M107 67v169h-66v6h66v171h6v-171h70v-6h-70v-169h-6z" />
    <glyph glyph-name="comma" unicode="," horiz-adv-x="110" 
d="M47 -55h-6l22 55v49h6v-49z" />
    <glyph glyph-name="hyphen" unicode="-" horiz-adv-x="224" 
d="M41 236v6h142v-6h-142z" />
    <glyph glyph-name="period" unicode="." horiz-adv-x="88" 
d="M41 0v49h6v-49h-6z" />
    <glyph glyph-name="slash" unicode="/" horiz-adv-x="236" 
d="M47 0h-6l149 690h4z" />
    <glyph glyph-name="zero" unicode="0" 
d="M47 52c0 -19.333 6.66699 -31.833 20 -37.5s29.666 -8.5 48.999 -8.5s35.666 2.83301 48.999 8.5s20 18.167 20 37.5v585c0 19.333 -6.66699 32 -20 38s-29.666 9 -48.999 9s-35.666 -3 -48.999 -9s-20 -18.667 -20 -38v-585v0zM191 52
c0 -21.333 -7.16699 -35.333 -21.5 -42s-32.166 -10 -53.499 -10s-39.166 3.33301 -53.499 10s-21.5 20.667 -21.5 42v585c0 21.333 7.16699 35.5 21.5 42.5s32.166 10.5 53.499 10.5s39.166 -3.5 53.499 -10.5s21.5 -21.167 21.5 -42.5v-585v0z" />
    <glyph glyph-name="one" unicode="1" horiz-adv-x="151" 
d="M105 0v681l-58 -106l-6 1l64 115h5v-691h-5z" />
    <glyph glyph-name="two" unicode="2" 
d="M41 0v2.99805v3v283c0 12.667 2.5 24 7.5 34s12.167 18.667 21.5 26c6.66699 5.33301 13.167 9.5 19.5 12.5s14.5 6.5 24.5 10.5c9.33301 4 18 7.5 26 10.5s15 7.16699 21 12.5c16 14.667 24 33 24 55v163c0 19.333 -6.66699 36 -20 50s-29.666 21 -48.999 21
s-35.666 -7 -48.999 -21s-20 -30.667 -20 -50v-49h-6v49c0 21.333 7.16699 39.5 21.5 54.5s32.166 22.5 53.499 22.5s39.166 -7.5 53.499 -22.5s21.5 -33.167 21.5 -54.5v-163c0 -24 -8.66699 -43.667 -26 -59c-6.66699 -5.33301 -13.5 -9.66602 -20.5 -12.999
s-17.167 -7.66602 -30.5 -12.999l-21.5 -9.5c-7 -3 -13.167 -6.83301 -18.5 -11.5c-18 -14.667 -27 -33 -27 -55v-283h136v-6h-142z" />
    <glyph glyph-name="three" unicode="3" 
d="M116 0c-21.333 0 -39.166 7.5 -53.499 22.5s-21.5 33.167 -21.5 54.5h6c0 -19.333 6.66699 -36 20 -50s29.666 -21 48.999 -21s35.666 7 48.999 21s20 30.667 20 50v225c0 19.333 -6.66699 36 -20 50s-29.666 21 -48.999 21h-31v6h31c19.333 0 35.666 7 48.999 21
s20 31 20 51v162c0 19.333 -6.66699 36 -20 50s-29.666 21 -48.999 21s-35.666 -7 -48.999 -21s-20 -30.667 -20 -50h-6c0 21.333 7.16699 39.5 21.5 54.5s32.166 22.5 53.499 22.5s39.166 -7.5 53.499 -22.5s21.5 -33.167 21.5 -54.5v-162
c0 -17.333 -5.16699 -33 -15.5 -47s-23.5 -23.333 -39.5 -28c16 -4.66699 29.167 -13.667 39.5 -27s15.5 -29 15.5 -47v-225c0 -21.333 -7.16699 -39.5 -21.5 -54.5s-32.166 -22.5 -53.499 -22.5z" />
    <glyph glyph-name="four" unicode="4" horiz-adv-x="227" 
d="M154 234v434l-107 -434h107zM159 228v-228h-5v228h-108h-2h-3l113 463h5v-457h27v-6h-27z" />
    <glyph glyph-name="five" unicode="5" 
d="M116 0c-21.333 0 -39.167 7.5 -53.5 22.5s-21.5 33.167 -21.5 54.5h6c0 -19.333 6.66699 -36 20 -50s29.666 -21 48.999 -21s35.666 7 48.999 21s20 30.667 20 50v274c0 20 -6.66699 36.833 -20 50.5s-29.666 20.5 -48.999 20.5s-35.666 -6.83301 -48.999 -20.5
s-20 -30.5 -20 -50.5h-6v2v331v6h6h139v-6h-139v-303c5.33301 14 14.333 25.333 27 34s26.667 13 42 13c21.333 0 39.166 -7.5 53.499 -22.5s21.5 -33.167 21.5 -54.5v-274c0 -21.333 -7.16699 -39.5 -21.5 -54.5s-32.166 -22.5 -53.499 -22.5z" />
    <glyph glyph-name="six" unicode="6" 
d="M47 77c0 -19.333 6.66699 -36 20 -50s29.666 -21 48.999 -21s35.666 7 48.999 21s20 30.667 20 50v233c0 20 -6.66699 37 -20 51s-29.666 21 -48.999 21s-35.666 -7 -48.999 -21s-20 -31 -20 -51v-233v0zM116 0c-21.333 0 -39.167 7.5 -53.5 22.5
s-21.5 33.167 -21.5 54.5v233v2v301c0 21.333 7.16699 39.5 21.5 54.5s32.166 22.5 53.499 22.5s39.166 -7.5 53.499 -22.5s21.5 -33.167 21.5 -54.5v-56h-6v56c0 19.333 -6.66699 36 -20 50s-29.666 21 -48.999 21s-35.666 -7 -48.999 -21s-20 -30.667 -20 -50v-273
c5.33301 14 14.333 25.333 27 34s26.667 13 42 13c21.333 0 39.166 -7.5 53.499 -22.5s21.5 -33.167 21.5 -54.5v-233c0 -21.333 -7.16699 -39.5 -21.5 -54.5s-32.166 -22.5 -53.499 -22.5z" />
    <glyph glyph-name="seven" unicode="7" horiz-adv-x="227" 
d="M76 0h-6l110 684h-139v6h140h2h3z" />
    <glyph glyph-name="eight" unicode="8" 
d="M47 451c0 -20 6.66699 -37 20 -51s29.666 -21 48.999 -21s35.666 7 48.999 21s20 31 20 51v162c0 19.333 -6.66699 36 -20 50s-29.666 21 -48.999 21s-35.666 -7 -48.999 -21s-20 -30.667 -20 -50v-162v0zM47 77c0 -19.333 6.66699 -36 20 -50s29.666 -21 48.999 -21
s35.666 7 48.999 21s20 30.667 20 50v225c0 19.333 -6.66699 36 -20 50s-29.666 21 -48.999 21s-35.666 -7 -48.999 -21s-20 -30.667 -20 -50v-225v0zM116 0c-21.333 0 -39.166 7.5 -53.499 22.5s-21.5 33.167 -21.5 54.5v225c0 18 5.16699 33.667 15.5 47
s23.5 22.333 39.5 27c-16 4.66699 -29.167 14 -39.5 28s-15.5 29.667 -15.5 47v162c0 21.333 7.16699 39.5 21.5 54.5s32.166 22.5 53.499 22.5s39.166 -7.5 53.499 -22.5s21.5 -33.167 21.5 -54.5v-162c0 -17.333 -5.16699 -33 -15.5 -47s-23.5 -23.333 -39.5 -28
c16 -4.66699 29.167 -13.667 39.5 -27s15.5 -29 15.5 -47v-225c0 -21.333 -7.16699 -39.5 -21.5 -54.5s-32.166 -22.5 -53.499 -22.5z" />
    <glyph glyph-name="nine" unicode="9" 
d="M47 379c0 -19.333 6.66699 -36 20 -50s29.666 -21 48.999 -21s35.666 7 48.999 21s20 30.667 20 50v234c0 19.333 -6.66699 36 -20 50s-29.666 21 -48.999 21s-35.666 -7 -48.999 -21s-20 -30.667 -20 -50v-234v0zM116 0c-21.333 0 -39.165 7.5 -53.498 22.5
s-21.5 33.167 -21.5 54.5v55h6v-55c0 -19.333 6.66699 -36 20 -50s29.666 -21 48.999 -21s35.666 7 48.999 21s20 30.667 20 50v273c-5.33301 -14 -14.333 -25.5 -27 -34.5s-26.667 -13.5 -42 -13.5c-21.333 0 -39.166 7.5 -53.499 22.5s-21.5 33.167 -21.5 54.5v234
c0 21.333 7.16699 39.5 21.5 54.5s32.166 22.5 53.499 22.5s39.166 -7.5 53.499 -22.5s21.5 -33.167 21.5 -54.5v-234v-2v-300c0 -21.333 -7.16699 -39.5 -21.5 -54.5s-32.166 -22.5 -53.499 -22.5z" />
    <glyph glyph-name="colon" unicode=":" horiz-adv-x="88" 
d="M41 327v49h6v-49h-6zM41 0v49h6v-49h-6z" />
    <glyph glyph-name="semicolon" unicode=";" horiz-adv-x="110" 
d="M63 327v49h6v-49h-6zM47 -55h-6l22 55v49h6v-49z" />
    <glyph glyph-name="less" unicode="&#x3c;" horiz-adv-x="197" 
d="M147 127l-106 116l104 117l10 -1l-106 -116l107 -116h-9z" />
    <glyph glyph-name="equal" unicode="=" horiz-adv-x="224" 
d="M41 277v6h142v-6h-142zM41 200v6h142v-6h-142z" />
    <glyph glyph-name="greater" unicode="&#x3e;" horiz-adv-x="197" 
d="M50 127h-9l107 116l-106 116l9 1l105 -117z" />
    <glyph glyph-name="question" unicode="?" 
d="M100 145l0.000976562 142.999c0 11.333 1 21.5 3 30.5s5.66699 16.833 11 23.5c3.33301 4.66699 7.66602 9 12.999 13l16 12c10.667 8 19.667 16 27 24c6 8 10 15.833 12 23.5s3 16.834 3 27.501v171c0 19.333 -6.66699 36 -20 50s-29.666 21 -48.999 21
s-35.666 -7 -48.999 -21s-20 -30.667 -20 -50v-49h-6v49c0 21.333 7.16699 39.5 21.5 54.5s32.166 22.5 53.499 22.5s39.166 -7.5 53.499 -22.5s21.5 -33.167 21.5 -54.5v-171c0 -22 -5.66699 -40.333 -17 -55c-4.66699 -5.33301 -9 -9.5 -13 -12.5
s-9.66699 -7.83301 -17 -14.5c-10 -4.66699 -18.667 -11.667 -26 -21c-5.33301 -6.66699 -8.83301 -14 -10.5 -22s-2.5 -17.667 -2.5 -29v-143h-5zM100.001 -0.000976562v49h5v-49h-5z" />
    <glyph glyph-name="at" unicode="@" 
d="M191 143c0 -21.333 -7.16699 -39.499 -21.5 -54.499s-32.166 -22.5 -53.499 -22.5s-39.166 7.5 -53.499 22.5s-21.5 33.167 -21.5 54.5v383c0 21.333 7.16699 39.5 21.5 54.5s32.166 22.5 53.499 22.5s39.166 -7.5 53.499 -22.5s21.5 -33.167 21.5 -54.5v-305
c0 -6 -1.5 -11 -4.5 -15s-6.83301 -6 -11.5 -6s-8.66699 2 -12 6s-5 9 -5 15v41c-3.33301 -10 -8.66602 -18 -15.999 -24s-15.333 -9 -24 -9c-13.333 0 -24.5 6.16699 -33.5 18.5s-13.5 27.166 -13.5 44.499v107c0 17.333 4.5 32.166 13.5 44.499s20.167 18.5 33.5 18.5
c8.66699 0 16.667 -3.16699 24 -9.5s12.666 -14.166 15.999 -23.499v37h6v-67v-107v-71c0 -10 3.66699 -15 11 -15c6.66699 0 10 5 10 15v305c0 19.333 -6.66699 36 -20 50s-29.666 21 -48.999 21s-35.666 -7 -48.999 -21s-20 -30.667 -20 -50v-383
c0 -19.333 6.66699 -36 20 -50s29.666 -21 48.999 -21s35.666 7 48.999 21s20 30.667 20 50h6v0zM158 398.001c0 16 -3.83301 29.5 -11.5 40.5s-17.167 16.5 -28.5 16.5s-21 -5.5 -29 -16.5s-12 -24.5 -12 -40.5v-106c0 -15.333 4 -28.666 12 -39.999s17.667 -17 29 -17
s20.833 5.66699 28.5 17s11.5 24.666 11.5 39.999v106z" />
    <glyph glyph-name="A" unicode="A" horiz-adv-x="189" 
d="M134 292l-39 370l-39 -370h78zM56 286l-30 -286h-6l72 690h6l71 -690h-5l-30 286h-78z" />
    <glyph glyph-name="B" unicode="B" horiz-adv-x="225" 
d="M47 6h62c19.333 0 35.666 7 48.999 21s20 30.667 20 50v201c0 19.333 -6.66699 36 -20 50s-29.666 21 -48.999 21h-62v-343zM41 684v6.00195h6h62c20.667 0 38.334 -7.5 53.001 -22.5s22 -33.167 22 -54.5v-187c0 -17.333 -5.16699 -32.833 -15.5 -46.5
s-23.5 -22.834 -39.5 -27.501c16 -4.66699 29.167 -13.834 39.5 -27.501s15.5 -29.167 15.5 -46.5v-201c0 -21.333 -7.33301 -39.5 -22 -54.5s-32.334 -22.5 -53.001 -22.5h-62h-6v6v343v6v329zM109 355.002c19.333 0 35.666 6.83301 48.999 20.5s20 30.5 20 50.5v187
c0 19.333 -6.66699 36 -20 50s-29.666 21 -48.999 21h-62v-329h62v0z" />
    <glyph glyph-name="C" unicode="C" 
d="M191 77c0 -21.333 -7.16699 -39.5 -21.5 -54.5s-32.166 -22.5 -53.499 -22.5s-39.166 7.5 -53.499 22.5s-21.5 33.167 -21.5 54.5v536c0 21.333 7.16699 39.5 21.5 54.5s32.166 22.5 53.499 22.5s39.166 -7.5 53.499 -22.5s21.5 -33.167 21.5 -54.5v-49h-6v49
c0 19.333 -6.66699 36 -20 50s-29.666 21 -48.999 21s-35.666 -7 -48.999 -21s-20 -30.667 -20 -50v-536c0 -19.333 6.66699 -36 20 -50s29.666 -21 48.999 -21s35.666 7 48.999 21s20 30.667 20 50v49h6v-49v0z" />
    <glyph glyph-name="D" unicode="D" horiz-adv-x="225" 
d="M109 6c19.333 0 35.666 7 48.999 21s20 30.667 20 50v536c0 19.333 -6.66699 36 -20 50s-29.666 21 -48.999 21h-62v-678h62zM41 690h68c21.333 0 39.166 -7.66699 53.499 -23s21.5 -33.333 21.5 -54v-536c0 -21.333 -7.16699 -39.5 -21.5 -54.5
s-32.166 -22.5 -53.499 -22.5h-68v690z" />
    <glyph glyph-name="E" unicode="E" horiz-adv-x="224" 
d="M47 0h-6v6v678v6h6h136v-6h-136v-329h116v-5h-116v-344h136v-6h-136z" />
    <glyph glyph-name="F" unicode="F" horiz-adv-x="201" 
d="M41 0v684v6h6h136v-6h-136v-335h116v-6h-116v-343h-6z" />
    <glyph glyph-name="G" unicode="G" 
d="M191 77c0 -21.333 -7.16699 -39.5 -21.5 -54.5s-32.166 -22.5 -53.499 -22.5s-39.166 7.5 -53.499 22.5s-21.5 33.167 -21.5 54.5v536c0 21.333 7.16699 39.5 21.5 54.5s32.166 22.5 53.499 22.5s39.166 -7.5 53.499 -22.5s21.5 -33.167 21.5 -54.5v-49h-6v49
c0 19.333 -6.66699 36 -20 50s-29.666 21 -48.999 21s-35.666 -7 -48.999 -21s-20 -30.667 -20 -50v-536c0 -19.333 6.66699 -36 20 -50s29.666 -21 48.999 -21s35.666 7 48.999 21s20 30.667 20 50v268h-68v5h68h6v-5v-268v0z" />
    <glyph glyph-name="H" unicode="H" horiz-adv-x="231" 
d="M41 0v690h6v-335h138v335h5v-690h-5v350h-138v-350h-6z" />
    <glyph glyph-name="I" unicode="I" horiz-adv-x="88" 
d="M41 0v691h6v-691h-6z" />
    <glyph glyph-name="J" unicode="J" 
d="M41 126h6v-49c0 -19.333 6.66699 -36 20 -50s29.666 -21 48.999 -21s35.666 7 48.999 21s20 30.667 20 50v610h6v-610c0 -21.333 -7.16699 -39.5 -21.5 -54.5s-32.166 -22.5 -53.499 -22.5s-39.166 7.5 -53.499 22.5s-21.5 33.167 -21.5 54.5v49z" />
    <glyph glyph-name="K" unicode="K" horiz-adv-x="208" 
d="M185 0l-138 322v-322h-6v690h6v-352l138 352h5l-141 -360l141 -330h-5z" />
    <glyph glyph-name="L" unicode="L" horiz-adv-x="224" 
d="M47 0h-6v6v684h6v-684h136v-6h-136z" />
    <glyph glyph-name="M" unicode="M" horiz-adv-x="281" 
d="M41 -2v692h6l93 -670l94 670h5v-692h-5v656l-91 -654h-6l-90 649v-651h-6z" />
    <glyph glyph-name="N" unicode="N" horiz-adv-x="231" 
d="M41 0v690h6l138 -666v666h5v-689v-1h-5l-138 662v-662h-6z" />
    <glyph glyph-name="O" unicode="O" 
d="M47 77c0 -19.333 6.66699 -36 20 -50s29.666 -21 48.999 -21s35.666 7 48.999 21s20 30.667 20 50v536c0 19.333 -6.66699 36 -20 50s-29.666 21 -48.999 21s-35.666 -7 -48.999 -21s-20 -30.667 -20 -50v-536v0zM191 77c0 -21.333 -7.16699 -39.5 -21.5 -54.5
s-32.166 -22.5 -53.499 -22.5s-39.166 7.5 -53.499 22.5s-21.5 33.167 -21.5 54.5v536c0 21.333 7.16699 39.5 21.5 54.5s32.166 22.5 53.499 22.5s39.166 -7.5 53.499 -22.5s21.5 -33.167 21.5 -54.5v-536v0z" />
    <glyph glyph-name="P" unicode="P" horiz-adv-x="225" 
d="M109 355c19.333 0 35.666 6.83301 48.999 20.5s20 30.5 20 50.5v187c0 19.333 -6.66699 36 -20 50s-29.666 21 -48.999 21h-62v-329h62zM41 0v349v6v329v6h6h62c20.667 0 38.334 -7.5 53.001 -22.5s22 -33.167 22 -54.5v-187c0 -21.333 -7.33301 -39.5 -22 -54.5
s-32.334 -22.5 -53.001 -22.5h-62v-349h-6z" />
    <glyph glyph-name="Q" unicode="Q" horiz-adv-x="226" 
d="M47 77c0 -19.333 6.66699 -36 20 -50s29.666 -21 48.999 -21s35.666 7 48.999 21s20 30.667 20 50v536c0 19.333 -6.66699 36 -20 50s-29.666 21 -48.999 21s-35.666 -7 -48.999 -21s-20 -30.667 -20 -50v-536v0zM203 -70l-126.999 81v1
c-10.667 6.66699 -19.167 15.667 -25.5 27s-9.5 24 -9.5 38v536c0 21.333 7.16699 39.5 21.5 54.5s32.166 22.5 53.499 22.5s39.166 -7.5 53.499 -22.5s21.5 -33.167 21.5 -54.5v-536c0 -21.333 -7.16699 -39.5 -21.5 -54.5s-32.166 -22.5 -53.499 -22.5h-6.5
c-2.33301 -0 -4.5 0.333008 -6.5 1l104 -66z" />
    <glyph glyph-name="R" unicode="R" horiz-adv-x="225" 
d="M109 355c19.333 0 35.666 6.83301 48.999 20.5s20 30.5 20 50.5v187c0 19.333 -6.66699 36 -20 50s-29.666 21 -48.999 21h-62v-329h62zM41 0l-0.00195312 349.002v6v329v6h6h62c20.667 0 38.334 -7.5 53.001 -22.5s22 -33.167 22 -54.5v-187
c0 -17.333 -5.16699 -32.833 -15.5 -46.5s-23.5 -22.834 -39.5 -27.501c16 -4.66699 29.167 -13.834 39.5 -27.501s15.5 -29.167 15.5 -46.5v-278h-6v278c0 19.333 -6.66699 36 -20 50s-29.666 21 -48.999 21h-62v-349h-6z" />
    <glyph glyph-name="S" unicode="S" 
d="M41 126l6 0.00195312v-49c0 -19.333 6.66699 -36 20 -50s29.666 -21 48.999 -21s35.666 7 48.999 21s20 30.667 20 50v204c0 22 -9 40.333 -27 55c-5.33301 4.66699 -11.5 8.5 -18.5 11.5l-21.5 9.5c-13.333 5.33301 -23.5 9.66602 -30.5 12.999
s-13.833 7.66602 -20.5 12.999c-17.333 15.333 -26 35 -26 59v171c0 21.333 7.16699 39.5 21.5 54.5s32.166 22.5 53.499 22.5s39.166 -7.5 53.499 -22.5s21.5 -33.167 21.5 -54.5v-49h-6v49c0 19.333 -6.66699 36 -20 50s-29.666 21 -48.999 21s-35.666 -7 -48.999 -21
s-20 -30.667 -20 -50v-171c0 -22.667 8 -41 24 -55c6 -5.33301 13 -9.5 21 -12.5s16.667 -6.5 26 -10.5l24.5 -11.5c6.33301 -3 12.833 -6.83301 19.5 -11.5c9.33301 -7.33301 16.5 -16 21.5 -26s7.5 -21.333 7.5 -34v-204c0 -21.333 -7.16699 -39.5 -21.5 -54.5
s-32.166 -22.5 -53.499 -22.5s-39.166 7.5 -53.499 22.5s-21.5 33.167 -21.5 54.5v49z" />
    <glyph glyph-name="T" unicode="T" horiz-adv-x="183" 
d="M89 0v684h-69v6h143v-6h-68v-684h-6z" />
    <glyph glyph-name="U" unicode="U" 
d="M191 77c0 -21.333 -7.16699 -39.5 -21.5 -54.5s-32.166 -22.5 -53.499 -22.5s-39.166 7.5 -53.499 22.5s-21.5 33.167 -21.5 54.5v610h6v-610c0 -19.333 6.66699 -36 20 -50s29.666 -21 48.999 -21s35.666 7 48.999 21s20 30.667 20 50v610h6v-610v0z" />
    <glyph glyph-name="V" unicode="V" horiz-adv-x="189" 
d="M92 0l-72 690h6l69 -663l69 663h5l-71 -690h-6z" />
    <glyph glyph-name="W" unicode="W" horiz-adv-x="309" 
d="M86 0l-65 690h6l62 -660l63 660h5l63 -660l63 660h5l-65 -690h-6l-63 659l-62 -659h-6z" />
    <glyph glyph-name="X" unicode="X" horiz-adv-x="189" 
d="M97 345l72 -345h-5l-69 332l-69 -332h-6l72 345l-72 345h6l69 -332l69 332h5z" />
    <glyph glyph-name="Y" unicode="Y" horiz-adv-x="186" 
d="M91 0v324l-72 366h5l69 -352l69 352h5l-71 -366v-324h-5z" />
    <glyph glyph-name="Z" unicode="Z" horiz-adv-x="231" 
d="M47 0h-3h-3l142 684h-139v6h141h1h4l-142 -684h138v-6h-139z" />
    <glyph glyph-name="bracketleft" unicode="[" horiz-adv-x="125" 
d="M47 -41h-6v6v760v5h6h78v-5h-78v-760h78v-6h-78z" />
    <glyph glyph-name="backslash" unicode="\" horiz-adv-x="193" 
d="M168 0l-148 690h5l149 -690h-6z" />
    <glyph glyph-name="bracketright" unicode="]" horiz-adv-x="125" 
d="M5 -35h78v760h-78v5h78h6v-5v-760v-6h-6h-78v6z" />
    <glyph glyph-name="asciicircum" unicode="^" horiz-adv-x="150" 
d="M103 476l-28 187l-28 -187h-6l31 214h6l31 -214h-6z" />
    <glyph glyph-name="underscore" unicode="_" horiz-adv-x="241" 
d="M9 -74v6h222v-6h-222z" />
    <glyph glyph-name="grave" unicode="`" horiz-adv-x="140" 
d="M92 625l-51 60h8l50 -60h-7z" />
    <glyph glyph-name="a" unicode="a" 
d="M47 76c0 -19.333 6.66699 -36 20 -50s29.666 -21 48.999 -21s35.666 7 48.999 21s20 30.667 20 50v147c0 19.333 -6.66699 36 -20 50s-29.666 21 -48.999 21s-35.666 -7 -48.999 -21s-20 -30.667 -20 -50v-147v0zM185 46c-5.33301 -14 -14.333 -25.333 -27 -34
s-26.667 -13 -42 -13c-21.333 0 -39.166 7.5 -53.499 22.5s-21.5 33.167 -21.5 54.5v147c0 21.333 7.16699 39.5 21.5 54.5s32.166 22.5 53.499 22.5c15.333 0 29.333 -4.5 42 -13.5s21.667 -20.5 27 -34.5v180c0 19.333 -6.66699 36 -20 50s-29.666 21 -48.999 21
s-35.666 -7 -48.999 -21s-20 -30.667 -20 -50v-49h-6v49c0 21.333 7.16699 39.5 21.5 54.5s32.166 22.5 53.499 22.5s39.166 -7.5 53.499 -22.5s21.5 -33.167 21.5 -54.5v-209v-147v-77h-6v47v0z" />
    <glyph glyph-name="b" unicode="b" 
d="M47 77c0 -19.333 6.66699 -36 20 -50s29.666 -21 48.999 -21s35.666 7 48.999 21s20 30.667 20 50v356c0 19.333 -6.66699 36 -20 50s-29.666 21 -48.999 21s-35.666 -7 -48.999 -21s-20 -30.667 -20 -50v-356v0zM191 77c0 -21.333 -7.16699 -39.5 -21.5 -54.5
s-32.166 -22.5 -53.499 -22.5c-15.333 -0 -29.333 4.33301 -42 13s-21.667 20 -27 34v-47h-6v77v356v257h6v-227c5.33301 13.333 14.333 24.5 27 33.5s26.667 13.5 42 13.5c21.333 0 39.166 -7.5 53.499 -22.5s21.5 -33.167 21.5 -54.5v-356v0z" />
    <glyph glyph-name="c" unicode="c" 
d="M191 77c0 -21.333 -7.16699 -39.5 -21.5 -54.5s-32.166 -22.5 -53.499 -22.5s-39.166 7.5 -53.499 22.5s-21.5 33.167 -21.5 54.5v356c0 21.333 7.16699 39.5 21.5 54.5s32.166 22.5 53.499 22.5s39.166 -7.5 53.499 -22.5s21.5 -33.167 21.5 -54.5v-49h-6v49
c0 19.333 -6.66699 36 -20 50s-29.666 21 -48.999 21s-35.666 -7 -48.999 -21s-20 -30.667 -20 -50v-356c0 -19.333 6.66699 -36 20 -50s29.666 -21 48.999 -21s35.666 7 48.999 21s20 30.667 20 50v49h6v-49v0z" />
    <glyph glyph-name="d" unicode="d" 
d="M47 77c0 -19.333 6.66699 -36 20 -50s29.666 -21 48.999 -21s35.666 7 48.999 21s20 30.667 20 50v356c0 19.333 -6.66699 36 -20 50s-29.666 21 -48.999 21s-35.666 -7 -48.999 -21s-20 -30.667 -20 -50v-356v0zM185 47c-5.33301 -14 -14.333 -25.333 -27 -34
s-26.667 -13 -42 -13c-21.333 0 -39.166 7.5 -53.499 22.5s-21.5 33.167 -21.5 54.5v356c0 21.333 7.16699 39.5 21.5 54.5s32.166 22.5 53.499 22.5c15.333 0 29.333 -4.5 42 -13.5s21.667 -20.167 27 -33.5v227h6v-257v-356v-77h-6v47v0z" />
    <glyph glyph-name="e" unicode="e" 
d="M47 283h137.998v150c0 19.333 -6.66699 36 -20 50s-29.666 21 -48.999 21s-35.666 -7 -48.999 -21s-20 -30.667 -20 -50v-150zM190.998 77c0 -21.333 -7.16504 -39.5 -21.498 -54.5s-32.166 -22.5 -53.499 -22.5s-39.166 7.5 -53.499 22.5s-21.5 33.167 -21.5 54.5v356
c0 21.333 7.16699 39.5 21.5 54.5s32.166 22.5 53.499 22.5s39.166 -7.5 53.499 -22.5s21.5 -33.167 21.5 -54.5v-150v-5h-6h-138v-201c0 -19.333 6.66699 -36 20 -50s29.666 -21 48.999 -21s35.666 7 48.999 21s20 30.667 20 50v49h6v-49v0z" />
    <glyph glyph-name="f" unicode="f" horiz-adv-x="192" 
d="M41 0v613c0 21.333 7.16699 39.5 21.5 54.5s32.166 22.5 53.499 22.5s39.166 -7.5 53.499 -22.5s21.5 -33.167 21.5 -54.5h-6c0 19.333 -6.66699 36 -20 50s-29.666 21 -48.999 21s-35.666 -7 -48.999 -21s-20 -30.667 -20 -50v-103h115v-6h-115v-504h-6z" />
    <glyph glyph-name="g" unicode="g" 
d="M47 77c0 -19.333 6.66699 -36 20 -50s29.666 -21 48.999 -21s35.666 7 48.999 21s20 30.667 20 50v356c0 19.333 -6.66699 36 -20 50s-29.666 21 -48.999 21s-35.666 -7 -48.999 -21s-20 -30.667 -20 -50v-356v0zM191 -103c0 -21.333 -7.16699 -39.5 -21.5 -54.5
s-32.166 -22.5 -53.499 -22.5s-39.166 7.5 -53.499 22.5s-21.5 33.167 -21.5 54.5h6c0 -19.333 6.66699 -36 20 -50s29.666 -21 48.999 -21s35.666 7 48.999 21s20 30.667 20 50v150c-5.33301 -14 -14.333 -25.333 -27 -34s-26.667 -13 -42 -13
c-21.333 0 -39.166 7.5 -53.499 22.5s-21.5 33.167 -21.5 54.5v356c0 21.333 7.16699 39.5 21.5 54.5s32.166 22.5 53.499 22.5c15.333 0 29.333 -4.5 42 -13.5s21.667 -20.167 27 -33.5v47h6v-77v-356v-180v0z" />
    <glyph glyph-name="h" unicode="h" 
d="M41 0l-0.000976562 433v257h6v-227c5.33301 13.333 14.333 24.5 27 33.5s26.667 13.5 42 13.5c21.333 0 39.166 -7.5 53.499 -22.5s21.5 -33.167 21.5 -54.5v-433h-6v433c0 19.333 -6.66699 36 -20 50s-29.666 21 -48.999 21s-35.666 -7 -48.999 -21s-20 -30.667 -20 -50
v-433h-6z" />
    <glyph glyph-name="i" unicode="i" horiz-adv-x="88" 
d="M41 573v72h6v-72h-6zM41 0v510h6v-510h-6z" />
    <glyph glyph-name="j" unicode="j" horiz-adv-x="93" 
d="M46 573v72h5v-72h-5zM51 -100c0 -21.333 -7.16797 -39.5 -21.501 -54.5s-32.166 -22.5 -53.499 -22.5v5c19.333 0 35.833 7 49.5 21s20.5 31 20.5 51v610h5v-610v0z" />
    <glyph glyph-name="k" unicode="k" horiz-adv-x="208" 
d="M185 0l-138 250v-250h-6v688h6v-422l138 244h5l-141 -252l141 -258h-5z" />
    <glyph glyph-name="l" unicode="l" horiz-adv-x="88" 
d="M41 0v690h6v-690h-6z" />
    <glyph glyph-name="m" unicode="m" horiz-adv-x="377" 
d="M41 0l-0.00292969 433v77h6v-47c5.33301 13.333 14.333 24.5 27 33.5s26.667 13.5 42 13.5c17.333 0 32.5 -5.33301 45.5 -16s21.833 -24 26.5 -40c4.66699 16 13.667 29.333 27 40s28.666 16 45.999 16c20.667 0 38.334 -7.5 53.001 -22.5s22 -33.167 22 -54.5v-433h-6
v433c0 19.333 -6.66699 36 -20 50s-29.666 21 -48.999 21s-35.833 -7 -49.5 -21s-20.5 -30.667 -20.5 -50v-433h-6v433c0 19.333 -6.66699 36 -20 50s-29.666 21 -48.999 21s-35.666 -7 -48.999 -21s-20 -30.667 -20 -50v-433h-6z" />
    <glyph glyph-name="n" unicode="n" 
d="M41 0l-0.000976562 433v77h6v-47c5.33301 13.333 14.333 24.5 27 33.5s26.667 13.5 42 13.5c21.333 0 39.166 -7.5 53.499 -22.5s21.5 -33.167 21.5 -54.5v-433h-6v433c0 19.333 -6.66699 36 -20 50s-29.666 21 -48.999 21s-35.666 -7 -48.999 -21s-20 -30.667 -20 -50
v-433h-6z" />
    <glyph glyph-name="o" unicode="o" 
d="M47 77c0 -19.333 6.66699 -36 20 -50s29.666 -21 48.999 -21s35.666 7 48.999 21s20 30.667 20 50v356c0 19.333 -6.66699 36 -20 50s-29.666 21 -48.999 21s-35.666 -7 -48.999 -21s-20 -30.667 -20 -50v-356v0zM191 77c0 -21.333 -7.16699 -39.5 -21.5 -54.5
s-32.166 -22.5 -53.499 -22.5s-39.166 7.5 -53.499 22.5s-21.5 33.167 -21.5 54.5v356c0 21.333 7.16699 39.5 21.5 54.5s32.166 22.5 53.499 22.5s39.166 -7.5 53.499 -22.5s21.5 -33.167 21.5 -54.5v-356v0z" />
    <glyph glyph-name="p" unicode="p" 
d="M47 77c0 -19.333 6.66699 -36 20 -50s29.666 -21 48.999 -21s35.666 7 48.999 21s20 30.667 20 50v356c0 19.333 -6.66699 36 -20 50s-29.666 21 -48.999 21s-35.666 -7 -48.999 -21s-20 -30.667 -20 -50v-356v0zM191 77c0 -21.333 -7.16699 -39.5 -21.5 -54.5
s-32.166 -22.5 -53.499 -22.5c-15.333 -0 -29.333 4.33301 -42 13s-21.667 20 -27 34v-227h-6v257v356v77h6v-47c5.33301 13.333 14.333 24.5 27 33.5s26.667 13.5 42 13.5c21.333 0 39.166 -7.5 53.499 -22.5s21.5 -33.167 21.5 -54.5v-356v0z" />
    <glyph glyph-name="q" unicode="q" 
d="M47 77c0 -19.333 6.66699 -36 20 -50s29.666 -21 48.999 -21s35.666 7 48.999 21s20 30.667 20 50v356c0 19.333 -6.66699 36 -20 50s-29.666 21 -48.999 21s-35.666 -7 -48.999 -21s-20 -30.667 -20 -50v-356v0zM185 47c-5.33301 -14 -14.333 -25.333 -27 -34
s-26.667 -13 -42 -13c-21.333 0 -39.166 7.5 -53.499 22.5s-21.5 33.167 -21.5 54.5v356c0 21.333 7.16699 39.5 21.5 54.5s32.166 22.5 53.499 22.5c15.333 0 29.333 -4.5 42 -13.5s21.667 -20.167 27 -33.5v47h6v-77v-356v-257h-6v227v0z" />
    <glyph glyph-name="r" unicode="r" horiz-adv-x="204" 
d="M41 0l-0.000976562 433v77h6v-47c5.33301 13.333 14.333 24.5 27 33.5s26.667 13.5 42 13.5c21.333 0 39.166 -7.5 53.499 -22.5s21.5 -33.167 21.5 -54.5h-6c0 19.333 -6.66699 36 -20 50s-29.666 21 -48.999 21s-35.666 -7 -48.999 -21s-20 -30.667 -20 -50v-433h-6z
" />
    <glyph glyph-name="s" unicode="s" 
d="M41 125l6 0.00195312v-49c0 -19.333 6.66699 -36 20 -50s29.666 -21 48.999 -21s35.666 7 48.999 21s20 30.667 20 50v108c0 22 -9 40.333 -27 55c-5.33301 4.66699 -11.5 8.5 -18.5 11.5l-21.5 9.5c-13.333 5.33301 -23.5 9.66602 -30.5 12.999
s-13.833 7.66602 -20.5 12.999c-17.333 15.333 -26 35 -26 59v88c0 21.333 7.16699 39.5 21.5 54.5s32.166 22.5 53.499 22.5s39.166 -7.5 53.499 -22.5s21.5 -33.167 21.5 -54.5v-49h-6v49c0 19.333 -6.66699 36 -20 50s-29.666 21 -48.999 21s-35.666 -7 -48.999 -21
s-20 -30.667 -20 -50v-88c0 -22.667 8 -41 24 -55c6 -5.33301 13 -9.66602 21 -12.999l26 -11c10 -4.66699 18.167 -8.33398 24.5 -11.001s12.833 -6.66699 19.5 -12c19.333 -15.333 29 -35 29 -59v-108c0 -21.333 -7.16699 -39.5 -21.5 -54.5s-32.166 -22.5 -53.499 -22.5
s-39.166 7.5 -53.499 22.5s-21.5 33.167 -21.5 54.5v49z" />
    <glyph glyph-name="t" unicode="t" horiz-adv-x="151" 
d="M137 0c-20.667 0 -38.332 7.5 -52.999 22.5s-22 33.167 -22 54.5v427h-45v6h45v127h6v-127h68v-6h-68v-427c0 -19.333 6.66699 -36 20 -50s29.666 -21 48.999 -21v-6v0z" />
    <glyph glyph-name="u" unicode="u" 
d="M191 77c0 -21.333 -7.16699 -39.5 -21.5 -54.5s-32.166 -22.5 -53.499 -22.5s-39.166 7.5 -53.499 22.5s-21.5 33.167 -21.5 54.5v433h6v-433c0 -19.333 6.66699 -36 20 -50s29.666 -21 48.999 -21s35.666 7 48.999 21s20 30.667 20 50v433h6v-433v0z" />
    <glyph glyph-name="v" unicode="v" horiz-adv-x="189" 
d="M92 0l-72 510h6l69 -490l69 490h5l-71 -510h-6z" />
    <glyph glyph-name="w" unicode="w" horiz-adv-x="324" 
d="M88 0l-67 510h5l65 -489l69 489h5v0l69 -489l65 489h4l-66 -510h-5l-70 492l-69 -492h-5z" />
    <glyph glyph-name="x" unicode="x" horiz-adv-x="190" 
d="M98 255l72 -255h-5l-70 245l-68 -245h-6l72 255l-72 255h6l68 -246l70 246h5z" />
    <glyph glyph-name="y" unicode="y" 
d="M191 -103c0 -21.333 -7.16602 -39.5 -21.499 -54.5s-32.166 -22.5 -53.499 -22.5s-39.166 7.5 -53.499 22.5s-21.5 33.167 -21.5 54.5h6c0 -19.333 6.66699 -36 20 -50s29.666 -21 48.999 -21s35.666 7 48.999 21s20 30.667 20 50v150
c-5.33301 -14 -14.333 -25.333 -27 -34s-26.667 -13 -42 -13c-21.333 0 -39.166 7.5 -53.499 22.5s-21.5 33.167 -21.5 54.5v433h6v-433c0 -19.333 6.66699 -36 20 -50s29.666 -21 48.999 -21s35.666 7 48.999 21s20 30.667 20 50v433h6v-433v-180v0z" />
    <glyph glyph-name="z" unicode="z" horiz-adv-x="231" 
d="M47 0h-3h-3l142 504h-139v6h141h1h4l-142 -504h138v-6h-139z" />
    <glyph glyph-name="braceleft" unicode="{" horiz-adv-x="186" 
d="M186 -37c-21.333 0 -39.333 7.50195 -54 22.502s-22 33.167 -22 54.5h1v233h-1c0 19.333 -6.66699 36 -20 50s-29.666 21 -48.999 21v6c19.333 0 35.666 7 48.999 21s20 30.667 20 50h1v232h-1c0 21.333 7.33301 39.5 22 54.5s32.667 22.5 54 22.5v-6
c-19.333 0 -35.666 -7 -48.999 -21s-20 -30.667 -20 -50v-232c0 -17.333 -5.16699 -32.833 -15.5 -46.5s-23.5 -22.834 -39.5 -27.501c16 -4.66699 29.167 -13.834 39.5 -27.501s15.5 -29.167 15.5 -46.5v-233c0 -19.333 6.66699 -36 20 -50s29.666 -21 48.999 -21v-6v0z
" />
    <glyph glyph-name="bar" unicode="|" horiz-adv-x="88" 
d="M41 -41v771h6v-771h-6z" />
    <glyph glyph-name="braceright" unicode="}" horiz-adv-x="181" 
d="M76 40c0 -21.333 -7.33301 -39.502 -22 -54.502s-32.667 -22.5 -54 -22.5v6c19.333 0 35.666 7 48.999 21s20 30.667 20 50v233c0 17.333 5.16699 32.833 15.5 46.5s23.833 22.834 40.5 27.501c-16.667 4.66699 -30.167 13.834 -40.5 27.501s-15.5 29.167 -15.5 46.5v232
c0 19.333 -6.66699 36 -20 50s-29.666 21 -48.999 21v6c21.333 0 39.333 -7.5 54 -22.5s22 -33.167 22 -54.5h-1v-232h1c0 -19.333 6.66699 -36 20 -50s29.666 -21 48.999 -21v-6c-19.333 0 -35.666 -7 -48.999 -21s-20 -30.667 -20 -50h-1v-233h1v0z" />
    <glyph glyph-name="asciitilde" unicode="~" horiz-adv-x="293" 
d="M144 534c-15.333 13.333 -32.5 19.333 -51.5 18s-34.833 -9 -47.5 -23l-4 4c14 16 31.333 24.5 52 25.5s39 -5.5 55 -19.5c15.333 -12.667 32.5 -18.5 51.5 -17.5s35.167 8.83301 48.5 23.5l4 -3c-14 -16.667 -31.5 -25.667 -52.5 -27s-39.5 5 -55.5 19z" />
    <glyph glyph-name="exclamdown" unicode="&#xa1;" horiz-adv-x="88" 
d="M41 600v49h6v-49h-6zM41 -41v544h6v-544h-6z" />
    <glyph glyph-name="cent" unicode="&#xa2;" 
d="M113 -57v57c-20 1.33301 -37 9.16602 -51 23.499s-21 32.166 -21 53.499v292c0 21.333 7 39.166 21 53.499s31 22.166 51 23.499v57h6v-57c20 -1.33301 37 -9.16602 51 -23.499s21 -32.166 21 -53.499v-49h-6v49c0 19.333 -6.66699 36 -20 50s-29.666 21 -48.999 21
s-35.666 -7 -48.999 -21s-20 -30.667 -20 -50v-292c0 -19.333 6.66699 -36 20 -50s29.666 -21 48.999 -21s35.666 7 48.999 21s20 30.667 20 50v49h6v-49c0 -21.333 -7 -39.166 -21 -53.499s-31 -22.166 -51 -23.499v-57h-6z" />
    <glyph glyph-name="sterling" unicode="&#xa3;" 
d="M47 0h-6v6v372v6v229c0 21.333 7.16699 39.5 21.5 54.5s32.166 22.5 53.499 22.5s39.166 -7.5 53.499 -22.5s21.5 -33.167 21.5 -54.5v-49h-6v49c0 19.333 -6.66699 36 -20 50s-29.666 21 -48.999 21s-35.666 -7 -48.999 -21s-20 -30.667 -20 -50v-229h113v-6h-113v-372
h136v-6h-136z" />
    <glyph glyph-name="currency" unicode="&#xa4;" horiz-adv-x="316" 
d="M234 283c-18.667 -32.667 -44.001 -49 -76.001 -49c-15.333 0 -29.666 4.66699 -42.999 14s-24.333 22 -33 38l-41 -41v8l37 38c-10.667 22.667 -16 47.667 -16 75c0 26.667 5.33301 51.334 16 74.001l-37 36v8l39 -39c9.33301 17.333 20.666 30.833 33.999 40.5
s28 14.5 44 14.5s30.5 -4.66699 43.5 -14s24.167 -22 33.5 -38l40 40v-8l-37 -37c11.333 -22.667 17 -48.334 17 -77.001c0 -14.667 -1.66699 -28.5 -5 -41.5s-7.66602 -25.167 -12.999 -36.5l38 -38v-8zM247.999 366c0 18 -2.33301 34.667 -7 50s-11 28.833 -19 40.5
s-17.5 20.834 -28.5 27.501s-22.833 10 -35.5 10c-12 0 -23.5 -3.33301 -34.5 -10s-20.5 -15.834 -28.5 -27.501s-14.333 -25.167 -19 -40.5s-7 -32 -7 -50c0 -17.333 2.33301 -33.833 7 -49.5s11 -29.167 19 -40.5s17.5 -20.333 28.5 -27s22.5 -10 34.5 -10
c12.667 0 24.5 3.33301 35.5 10s20.5 15.667 28.5 27s14.333 24.833 19 40.5s7 32.167 7 49.5z" />
    <glyph glyph-name="yen" unicode="&#xa5;" horiz-adv-x="192" 
d="M93 0v200h-66v6h66v71h-66v6h66v41l-71 366h5l69 -352l69 352h5l-71 -366v-41h70v-6h-70v-71h70v-6h-70v-200h-6z" />
    <glyph glyph-name="brokenbar" unicode="&#xa6;" horiz-adv-x="88" 
d="M41 359v322h6v-322h-6zM41 -74v322h6v-322h-6z" />
    <glyph glyph-name="section" unicode="&#xa7;" horiz-adv-x="235" 
d="M148 185h2l-2 1v-1zM49 279c0 -22 9 -40 27 -54c11.333 -9.33301 25 -16.666 41 -21.999l17 -7l12 -5c11.333 5.33301 20.666 13.666 27.999 24.999s11 24.333 11 39v19c0 21.333 -9 39.333 -27 54c-11.333 9.33301 -24.666 16.666 -39.999 21.999l-17 7l-12 5
c-12 -5.33301 -21.667 -13.666 -29 -24.999s-11 -24.333 -11 -39v-19v0zM43 86l6.00195 0.00195312v-49c0 -19.333 6.66699 -36 20 -50s29.666 -21 48.999 -21s35.833 7 49.5 21s20.5 30.667 20.5 50v81c0 23.333 -8.33301 41.666 -25 54.999
c-6 5.33301 -12.833 9.66602 -20.5 12.999l-26.5 11c-10 4 -18.167 7.5 -24.5 10.5s-12.5 7.16699 -18.5 12.5c-9.33301 7.33301 -16.666 16 -21.999 26s-8 21 -8 33v19c0 14.667 3.66699 27.834 11 39.501s16.666 20.834 27.999 27.501
c-2.66699 1.33301 -5.16699 2.83301 -7.5 4.5s-4.83301 3.83398 -7.5 6.50098c-17.333 15.333 -26 35 -26 59v81c0 21.333 7.16699 39.5 21.5 54.5s32.166 22.5 53.499 22.5s39.166 -7.5 53.499 -22.5s21.5 -33.167 21.5 -54.5v-49h-6v49c0 20 -6.66699 36.833 -20 50.5
s-29.666 20.5 -48.999 20.5s-35.666 -6.83301 -48.999 -20.5s-20 -30.5 -20 -50.5v-81c0 -22.667 8 -41 24 -55c6 -5.33301 13 -9.66602 21 -12.999l26 -11c10 -4 18.167 -7.5 24.5 -10.5s12.833 -7.16699 19.5 -12.5c9.33301 -7.33301 16.5 -16 21.5 -26s7.5 -21 7.5 -33
v-19c0 -14.667 -3.5 -27.834 -10.5 -39.501s-16.5 -20.834 -28.5 -27.501c5.33301 -2.66699 10.333 -6.33398 15 -11.001c18 -14.667 27 -34.334 27 -59.001v-81c0 -21.333 -7.33301 -39.5 -22 -54.5s-32.667 -22.5 -54 -22.5c-20.667 0 -38.334 7.5 -53.001 22.5
s-22 33.167 -22 54.5v49z" />
    <glyph glyph-name="dieresis" unicode="&#xa8;" horiz-adv-x="133" 
d="M86 657v35h6v-35h-6zM41 657v35h6v-35h-6z" />
    <glyph glyph-name="copyright" unicode="&#xa9;" horiz-adv-x="206" 
d="M46 431c0 -17.333 5.5 -32.166 16.5 -44.499s24.5 -18.5 40.5 -18.5s29.667 6.16699 41 18.5s17 27.166 17 44.499v183c0 17.333 -5.66699 32 -17 44s-25 18 -41 18s-29.5 -6 -40.5 -18s-16.5 -26.667 -16.5 -44v-183v0zM165 431c0 -19.333 -6 -35.5 -18 -48.5
s-26.667 -19.5 -44 -19.5s-32 6.5 -44 19.5s-18 29.167 -18 48.5v183c0 18 6 33.667 18 47s26.667 20 44 20s32 -6.66699 44 -20s18 -29 18 -47v-183v0zM141 438c0 -10.667 -3.66699 -19.834 -11 -27.501s-16.333 -11.5 -27 -11.5c-11.333 0 -20.666 3.83301 -27.999 11.5
s-11 16.834 -11 27.501v176c0 10.667 3.66699 19.667 11 27s16.666 11 27.999 11c10.667 0 19.667 -3.66699 27 -11s11 -16.333 11 -27v-27h-5v27c0 9.33301 -3.16699 17.166 -9.5 23.499s-14.166 9.5 -23.499 9.5s-17.333 -3.16699 -24 -9.5s-10 -14.166 -10 -23.499v-176
c0 -9.33301 3.33301 -17.333 10 -24s14.667 -10 24 -10s17.166 3.33301 23.499 10s9.5 14.667 9.5 24v25h5v-25v0z" />
    <glyph glyph-name="ordfeminine" unicode="&#xaa;" 
d="M47 386c0 -20 6.66699 -36.833 20 -50.5s29.666 -20.5 48.999 -20.5s35.666 6.83301 48.999 20.5s20 30.5 20 50.5v225c0 19.333 -6.66699 36 -20 50s-29.666 21 -48.999 21s-35.666 -7 -48.999 -21s-20 -30.667 -20 -50v-225v0zM185 356
c-5.33301 -14 -14.333 -25.333 -27 -34s-26.667 -13 -42 -13c-21.333 0 -39.166 7.5 -53.499 22.5s-21.5 33.167 -21.5 54.5v225c0 21.333 7.16699 39.5 21.5 54.5s32.166 22.5 53.499 22.5c15.333 0 29.333 -4.5 42 -13.5s21.667 -20.167 27 -33.5v38h6v-68v-225v-77h-6v47
v0z" />
    <glyph glyph-name="guillemotleft" unicode="&#xab;" horiz-adv-x="221" 
d="M171 94l-62 116l60 118l10 -1l-61 -117l62 -116h-9zM102 94l-61 116l59 118l10 -1l-61 -117l62 -116h-9z" />
    <glyph glyph-name="logicalnot" unicode="&#xac;" horiz-adv-x="236" 
d="M189 170v66h-148v6h148h5v-6v-66h-5z" />
    <glyph glyph-name="minus" unicode="&#xad;" horiz-adv-x="236" 
d="M41 236v6h153v-6h-153z" />
    <glyph glyph-name="registered" unicode="&#xae;" horiz-adv-x="206" 
d="M46 431c0 -17.333 5.5 -32.166 16.5 -44.499s24.5 -18.5 40.5 -18.5s29.667 6.16699 41 18.5s17 27.166 17 44.499v183c0 17.333 -5.66699 32 -17 44s-25 18 -41 18s-29.5 -6 -40.5 -18s-16.5 -26.667 -16.5 -44v-183v0zM165 431c0 -19.333 -6 -35.5 -18 -48.5
s-26.667 -19.5 -44 -19.5s-32 6.5 -44 19.5s-18 29.167 -18 48.5v183c0 18 6 33.667 18 47s26.667 20 44 20s32 -6.66699 44 -20s18 -29 18 -47v-183v0zM138 395v94.001c0 9.33301 -3.16699 17.333 -9.5 24s-14.166 10 -23.499 10h-30v-128h-6v129v3v120v4h5h31
c11.333 0 20.666 -3.83301 27.999 -11.5s11 -16.834 11 -27.501v-50c0 -8 -2.5 -15.333 -7.5 -22s-11.167 -11.667 -18.5 -15c7.33301 -2.66699 13.5 -7.16699 18.5 -13.5s7.5 -13.833 7.5 -22.5v-94h-6zM138 612.001c0 9.33301 -3.16699 17.167 -9.5 23.5
s-14.166 9.5 -23.499 9.5h-30v-117h30c9.33301 0 17.166 3.33301 23.499 10s9.5 14.667 9.5 24v50z" />
    <glyph glyph-name="macron" unicode="&#xaf;" horiz-adv-x="186" 
d="M41 654v5h104v-5h-104z" />
    <glyph glyph-name="degree" unicode="&#xb0;" 
d="M191 606c0 -21.333 -7.16699 -39.5 -21.5 -54.5s-32.166 -22.5 -53.499 -22.5s-39.166 7.5 -53.499 22.5s-21.5 33.167 -21.5 54.5s7.16699 39.666 21.5 54.999s32.166 23 53.499 23s39.166 -7.66699 53.499 -23s21.5 -33.666 21.5 -54.999zM185 606
c0 20 -6.66699 37 -20 51s-29.666 21 -48.999 21s-35.666 -7 -48.999 -21s-20 -31 -20 -51c0 -19.333 6.66699 -36 20 -50s29.666 -21 48.999 -21s35.666 7 48.999 21s20 30.667 20 50z" />
    <glyph glyph-name="plusminus" unicode="&#xb1;" horiz-adv-x="224" 
d="M115 236v-169h-6v169h-68v6h68v171h6v-171h68v-6h-68zM41 13v6h142v-6h-142z" />
    <glyph glyph-name="twosuperior" unicode="&#xb2;" 
d="M41 292v119.999c0 12 2.5 23 7.5 33s12.167 18.667 21.5 26c6.66699 5.33301 13.167 9.5 19.5 12.5s14.5 6.5 24.5 10.5l26 11c8 3.33301 15 7.66602 21 12.999c16 14 24 32.333 24 55v32c0 19.333 -6.66699 36 -20 50s-29.666 21 -48.999 21s-35.666 -7 -48.999 -21
s-20 -30.667 -20 -50v-17h-6v17c0 21.333 7.16699 39.333 21.5 54s32.166 22 53.499 22s39.166 -7.33301 53.499 -22s21.5 -32.667 21.5 -54v-32c0 -24 -8.66699 -43.667 -26 -59c-6.66699 -5.33301 -13.5 -9.66602 -20.5 -12.999s-17.167 -7.66602 -30.5 -12.999l-21.5 -10
c-7 -3.33301 -13.167 -7.33301 -18.5 -12c-18 -14.667 -27 -32.667 -27 -54v-120h136v-6h-142v3v3z" />
    <glyph glyph-name="threesuperior" unicode="&#xb3;" 
d="M116 286c-21.333 0 -39.166 7.50098 -53.499 22.501s-21.5 33.167 -21.5 54.5h6c0 -19.333 6.66699 -36 20 -50s29.666 -21 48.999 -21s35.666 7 48.999 21s20 30.667 20 50v78c0 19.333 -6.66699 36 -20 50s-29.666 21 -48.999 21h-31v6h31c19.333 0 35.666 7 48.999 21
s20 31 20 51v15c0 19.333 -6.66699 36 -20 50s-29.666 21 -48.999 21s-35.666 -7 -48.999 -21s-20 -30.667 -20 -50h-6c0 21.333 7.16699 39.333 21.5 54s32.166 22 53.499 22s39.166 -7.33301 53.499 -22s21.5 -32.667 21.5 -54v-15c0 -17.333 -5.16699 -33 -15.5 -47
s-23.5 -23.333 -39.5 -28c16 -4.66699 29.167 -13.834 39.5 -27.501s15.5 -29.167 15.5 -46.5v-78c0 -21.333 -7.16699 -39.5 -21.5 -54.5s-32.166 -22.5 -53.499 -22.5z" />
    <glyph glyph-name="acute" unicode="&#xb4;" horiz-adv-x="140" 
d="M48 625h-7l50 60h8z" />
    <glyph glyph-name="mu" unicode="&#xb5;" horiz-adv-x="239" 
d="M198 -43c-16.667 -4 -29.832 -3.83008 -39.499 0.50293s-14.5 13.166 -14.5 26.499c0 5.33301 1 10 3 14s4.66699 8.33301 8 13c-11.333 -7.33301 -24.333 -11 -39 -11c-15.333 0 -29.333 4.5 -42 13.5s-21.667 20.167 -27 33.5v-183h-6v213v433h6v-433
c0 -19.333 6.66699 -36 20 -50s29.666 -21 48.999 -21s35.666 7 48.999 21s20 30.667 20 50v433h6v-433c0 -17.333 -3.66699 -31.333 -11 -42l-2 -2c-0.666992 -0.666992 -1.16699 -1.33398 -1.5 -2.00098s-1.16602 -1.66699 -2.49902 -3
c-4.66699 -6.66699 -9.66699 -13.334 -15 -20.001c-2.66699 -3.33301 -5 -7 -7 -11s-3 -8.33301 -3 -13c0 -12 4.66699 -19.667 14 -23s21 -3 35 1v-5v0z" />
    <glyph glyph-name="paragraph" unicode="&#xb6;" horiz-adv-x="255" 
d="M210 684v-740.999h-6v741h-45v-329v-6v-406h-5v463h-38c-21.333 0 -39.166 7.66699 -53.499 23s-21.5 33.666 -21.5 54.999v129c0 21.333 7.16699 39.5 21.5 54.5s32.166 22.5 53.499 22.5h38h5h80v-6h-29z" />
    <glyph glyph-name="periodcentered" unicode="&#xb7;" horiz-adv-x="88" 
d="M41 348v49h6v-49h-6z" />
    <glyph glyph-name="periodcentered" unicode="&#x2219;" horiz-adv-x="88" 
d="M41 348v49h6v-49h-6z" />
    <glyph glyph-name="cedilla" unicode="&#xb8;" horiz-adv-x="134" 
d="M93 -43c0 -13.333 -4.99902 -24.835 -14.999 -34.502s-22.333 -14.5 -37 -14.5v5c13.333 0 24.5 4.33301 33.5 13s13.5 19 13.5 31c0 11.333 -4.16699 21.333 -12.5 30s-18.5 13.667 -30.5 15v5c13.333 -1.33301 24.666 -6.66602 33.999 -15.999s14 -20.666 14 -33.999z
" />
    <glyph glyph-name="onesuperior" unicode="&#xb9;" horiz-adv-x="151" 
d="M105 286v387l-58 -106l-6 1l64 115h5v-397h-5z" />
    <glyph glyph-name="ordmasculine" unicode="&#xba;" 
d="M47 452c0 -19.333 6.66699 -36 20 -50s29.666 -21 48.999 -21s35.666 7 48.999 21s20 30.667 20 50v160c0 19.333 -6.66699 36 -20 50s-29.666 21 -48.999 21s-35.666 -7 -48.999 -21s-20 -30.667 -20 -50v-160v0zM191 452c0 -21.333 -7.16699 -39.5 -21.5 -54.5
s-32.166 -22.5 -53.499 -22.5s-39.166 7.5 -53.499 22.5s-21.5 33.167 -21.5 54.5v160c0 21.333 7.16699 39.5 21.5 54.5s32.166 22.5 53.499 22.5s39.166 -7.5 53.499 -22.5s21.5 -33.167 21.5 -54.5v-160v0z" />
    <glyph glyph-name="guillemotright" unicode="&#xbb;" horiz-adv-x="221" 
d="M118 94h-9l63 116l-62 117l10 1l60 -118zM50 94h-9l62 116l-61 117l9 1l60 -118z" />
    <glyph glyph-name="onequarter" unicode="&#xbc;" horiz-adv-x="402" 
d="M105 286v387l-58 -106l-6 1l64 115h5v-397h-5zM124 0h-6l149 690h5zM328 87v294l-105 -294h105zM334 81v-81h-6v81h-107h-2h-3l112 316h6v-310h27v-6h-27z" />
    <glyph glyph-name="onehalf" unicode="&#xbd;" horiz-adv-x="443" 
d="M105 286v387l-58 -106l-6 1l64 115h5v-397h-5zM124 0h-6l149 690h5zM252 6l-0.00195312 120.001c0 12 2.5 23 7.5 33s12.167 18.667 21.5 26c6 5.33301 12.333 9.5 19 12.5l24 10.5l26.5 11c7.66699 3.33301 14.834 7.66602 21.501 12.999c16 14 24 32.333 24 55v32
c0 19.333 -6.66699 36 -20 50s-29.666 21 -48.999 21s-35.833 -7 -49.5 -21s-20.5 -30.667 -20.5 -50v-17h-5v17c0 21.333 7.16699 39.333 21.5 54s32.166 22 53.499 22c20.667 0 38.334 -7.33301 53.001 -22s22 -32.667 22 -54v-32c0 -24 -8.66699 -43.667 -26 -59
c-6.66699 -5.33301 -13.5 -9.5 -20.5 -12.5l-30.5 -13.5c-15.333 -5.33301 -29 -12.333 -41 -21c-18 -14.667 -27 -33 -27 -55v-120h137v-6h-142v3v3z" />
    <glyph glyph-name="threequarters" unicode="&#xbe;" horiz-adv-x="452" 
d="M174 0h-6l149 690h5zM378 87v294l-106 -294h106zM384 81v-81h-6v81h-108h-1h-3l112 316h6v-310h27v-6h-27zM116 286c-21.333 0 -39.166 7.50098 -53.499 22.501s-21.5 33.167 -21.5 54.5h6c0 -19.333 6.66699 -36 20 -50s29.666 -21 48.999 -21s35.666 7 48.999 21
s20 30.667 20 50v78c0 19.333 -6.66699 36 -20 50s-29.666 21 -48.999 21h-31v6h31c19.333 0 35.666 7 48.999 21s20 31 20 51v15c0 19.333 -6.66699 36 -20 50s-29.666 21 -48.999 21s-35.666 -7 -48.999 -21s-20 -30.667 -20 -50h-6c0 21.333 7.16699 39.333 21.5 54
s32.166 22 53.499 22s39.166 -7.33301 53.499 -22s21.5 -32.667 21.5 -54v-15c0 -17.333 -5.16699 -33 -15.5 -47s-23.5 -23.333 -39.5 -28c16 -4.66699 29.167 -13.834 39.5 -27.501s15.5 -29.167 15.5 -46.5v-78c0 -21.333 -7.16699 -39.5 -21.5 -54.5
s-32.166 -22.5 -53.499 -22.5z" />
    <glyph glyph-name="questiondown" unicode="&#xbf;" 
d="M127 600v49h5v-49h-5zM191 36c0 -21.333 -7.16895 -39.4971 -21.502 -54.4971s-32.166 -22.5 -53.499 -22.5s-39.166 7.5 -53.499 22.5s-21.5 33.167 -21.5 54.5v171c0 22.667 5.66699 40.667 17 54c4.66699 5.33301 9 9.66602 13 12.999l17 14
c10 4.66699 18.667 12 26 22c5.33301 6.66699 8.83301 14 10.5 22s2.5 17.667 2.5 29v142h5v-142c0 -12 -1 -22.5 -3 -31.5s-5.66699 -16.833 -11 -23.5c-3.33301 -4.66699 -7.66602 -8.83398 -12.999 -12.501l-16 -11.5c-5.33301 -4 -10.166 -7.83301 -14.499 -11.5
s-8.5 -8.16699 -12.5 -13.5c-6 -7.33301 -10 -14.833 -12 -22.5s-3 -16.834 -3 -27.501v-171c0 -19.333 6.66699 -36 20 -50s29.666 -21 48.999 -21s35.666 7 48.999 21s20 30.667 20 50v49h6v-49v0z" />
    <glyph glyph-name="Agrave" unicode="&#xc0;" horiz-adv-x="189" 
d="M117 720l-51 59h8l50 -59h-7zM134 292l-39 370l-39 -370h78zM56 286l-30 -286h-6l72 690h6l71 -690h-5l-30 286h-78z" />
    <glyph glyph-name="Aacute" unicode="&#xc1;" horiz-adv-x="189" 
d="M72 720h-7l50 59h8zM134 292l-39 370l-39 -370h78zM56 286l-30 -286h-6l72 690h6l71 -690h-5l-30 286h-78z" />
    <glyph glyph-name="Acircumflex" unicode="&#xc2;" horiz-adv-x="189" 
d="M49 724h-8l50 55h8l49 -55h-7l-46 51zM134 292l-39 370l-39 -370h78zM56 286l-30 -286h-6l72 690h6l71 -690h-5l-30 286h-78z" />
    <glyph glyph-name="Atilde" unicode="&#xc3;" horiz-adv-x="189" 
d="M179 752c-11.333 -12 -24.834 -18.502 -40.501 -19.502s-30.167 3.83301 -43.5 14.5c-11.333 9.33301 -24 13.5 -38 12.5s-26 -6.5 -36 -16.5l-5 4c11.333 11.333 24.833 17.5 40.5 18.5s29.834 -3.5 42.501 -13.5c12 -9.33301 25.167 -13.666 39.5 -12.999
s26.5 6.33398 36.5 17.001l4 -4v0zM131.999 291.998l-39 370l-38 -370h77zM53.999 285.998l-30 -286h-5l71 690h6l71 -690h-5l-30 286h-78z" />
    <glyph glyph-name="Adieresis" unicode="&#xc4;" horiz-adv-x="189" 
d="M114 734v36h6v-36h-6zM69 734v36h6v-36h-6zM134 292l-39 370l-39 -370h78zM56 286l-30 -286h-6l72 690h6l71 -690h-5l-30 286h-78z" />
    <glyph glyph-name="Aring" unicode="&#xc5;" horiz-adv-x="189" 
d="M143 751c0 -13.333 -4.83301 -24.833 -14.5 -34.5s-21.167 -14.5 -34.5 -14.5s-24.833 4.83301 -34.5 14.5s-14.5 21.167 -14.5 34.5c0 14 4.83301 25.833 14.5 35.5s21.167 14.5 34.5 14.5s24.833 -4.83301 34.5 -14.5s14.5 -21.5 14.5 -35.5zM136 751
c0 12 -4.16699 22.333 -12.5 31s-18.166 13 -29.499 13s-21.333 -4.33301 -30 -13s-13 -19 -13 -31s4.33301 -22.167 13 -30.5s18.667 -12.5 30 -12.5s21.166 4.16699 29.499 12.5s12.5 18.5 12.5 30.5zM134 292l-39 370l-39 -370h78zM56 286l-30 -286h-6l72 690h6l71 -690
h-5l-30 286h-78z" />
    <glyph glyph-name="AE" unicode="&#xc6;" horiz-adv-x="326" 
d="M109 355h71v310zM186 0h-6v6v344h-72l-81 -350h-6l159 690h6h119v-6h-119v-329h99v-5h-99v-344h119v-6h-119z" />
    <glyph glyph-name="Ccedilla" unicode="&#xc7;" 
d="M152 -43c0 -13.333 -4.99902 -24.8301 -14.999 -34.4971s-22.333 -14.5 -37 -14.5v5c13.333 0 24.5 4.33301 33.5 13s13.5 19 13.5 31c0 10 -3.33301 19 -10 27s-14.667 13.333 -24 16c-20 1.33301 -37 9.16602 -51 23.499s-21 32.166 -21 53.499v536
c0 21.333 7.16699 39.5 21.5 54.5s32.166 22.5 53.499 22.5s39.166 -7.5 53.499 -22.5s21.5 -33.167 21.5 -54.5v-49h-6v49c0 19.333 -6.66699 36 -20 50s-29.666 21 -48.999 21s-35.666 -7 -48.999 -21s-20 -30.667 -20 -50v-536c0 -19.333 6.66699 -36 20 -50
s29.666 -21 48.999 -21s35.666 7 48.999 21s20 30.667 20 50v49h6v-49c0 -19.333 -6.16699 -36.333 -18.5 -51s-28.166 -23 -47.499 -25c8 -4.66699 14.5 -10.834 19.5 -18.501s7.5 -16.167 7.5 -25.5z" />
    <glyph glyph-name="Egrave" unicode="&#xc8;" horiz-adv-x="224" 
d="M134 720l-51 59h9l49 -59h-7zM47 0h-6v6v678v6h6h136v-6h-136v-329h116v-5h-116v-344h136v-6h-136z" />
    <glyph glyph-name="Eacute" unicode="&#xc9;" horiz-adv-x="224" 
d="M91 720h-8l50 59h8zM47 0h-6v6v678v6h6h136v-6h-136v-329h116v-5h-116v-344h136v-6h-136z" />
    <glyph glyph-name="Ecircumflex" unicode="&#xca;" horiz-adv-x="224" 
d="M66 724h-7l50 55h7l50 -55h-8l-46 51zM47 0h-6v6v678v6h6h136v-6h-136v-329h116v-5h-116v-344h136v-6h-136z" />
    <glyph glyph-name="Edieresis" unicode="&#xcb;" horiz-adv-x="224" 
d="M132 734v36h5v-36h-5zM87 734v36h5v-36h-5zM47 0h-6v6v678v6h6h136v-6h-136v-329h116v-5h-116v-344h136v-6h-136z" />
    <glyph glyph-name="Igrave" unicode="&#xcc;" horiz-adv-x="88" 
d="M66 720l-51 59h8l50 -59h-7zM41 0v691h6v-691h-6z" />
    <glyph glyph-name="Iacute" unicode="&#xcd;" horiz-adv-x="88" 
d="M22 720h-7l50 59h8zM41 0v691h6v-691h-6z" />
    <glyph glyph-name="Icircumflex" unicode="&#xce;" horiz-adv-x="88" 
d="M-2 724h-8l50 55h8l49 -55h-7l-46 51zM41 0v691h6v-691h-6z" />
    <glyph glyph-name="Idieresis" unicode="&#xcf;" horiz-adv-x="88" 
d="M64 734v36h6v-36h-6zM18 734v36h7v-36h-7zM41 0v691h6v-691h-6z" />
    <glyph glyph-name="Eth" unicode="&#xd0;" horiz-adv-x="225" 
d="M109 6c19.333 0 35.666 7 48.999 21s20 30.667 20 50v536c0 19.333 -6.66699 36 -20 50s-29.666 21 -48.999 21h-62v-329h57v-5h-57v-344h62zM41 690h68c21.333 0 39.166 -7.66699 53.499 -23s21.5 -33.333 21.5 -54v-536c0 -21.333 -7.16699 -39.5 -21.5 -54.5
s-32.166 -22.5 -53.499 -22.5h-68v690z" />
    <glyph glyph-name="Ntilde" unicode="&#xd1;" horiz-adv-x="245" 
d="M204 752c-11.333 -12 -25.0029 -18.502 -41.0029 -19.502s-30.333 3.83301 -43 14.5c-11.333 9.33301 -24.166 13.5 -38.499 12.5s-26.166 -6.5 -35.499 -16.5l-5 4c11.333 11.333 24.833 17.5 40.5 18.5s29.834 -3.5 42.501 -13.5
c11.333 -9.33301 24.333 -13.666 39 -12.999s26.667 6.33398 36 17.001l5 -4v0zM47.9971 -0.00195312v690h6l138 -666v666h5v-689v-1h-5l-138 662v-662h-6z" />
    <glyph glyph-name="Ograve" unicode="&#xd2;" 
d="M138 720l-51 59h9l49 -59h-7zM47 77c0 -19.333 6.66699 -36 20 -50s29.666 -21 48.999 -21s35.666 7 48.999 21s20 30.667 20 50v536c0 19.333 -6.66699 36 -20 50s-29.666 21 -48.999 21s-35.666 -7 -48.999 -21s-20 -30.667 -20 -50v-536v0zM191 77
c0 -21.333 -7.16699 -39.5 -21.5 -54.5s-32.166 -22.5 -53.499 -22.5s-39.166 7.5 -53.499 22.5s-21.5 33.167 -21.5 54.5v536c0 21.333 7.16699 39.5 21.5 54.5s32.166 22.5 53.499 22.5s39.166 -7.5 53.499 -22.5s21.5 -33.167 21.5 -54.5v-536v0z" />
    <glyph glyph-name="Oacute" unicode="&#xd3;" 
d="M95 720h-8l50 59h8zM47 77c0 -19.333 6.66699 -36 20 -50s29.666 -21 48.999 -21s35.666 7 48.999 21s20 30.667 20 50v536c0 19.333 -6.66699 36 -20 50s-29.666 21 -48.999 21s-35.666 -7 -48.999 -21s-20 -30.667 -20 -50v-536v0zM191 77
c0 -21.333 -7.16699 -39.5 -21.5 -54.5s-32.166 -22.5 -53.499 -22.5s-39.166 7.5 -53.499 22.5s-21.5 33.167 -21.5 54.5v536c0 21.333 7.16699 39.5 21.5 54.5s32.166 22.5 53.499 22.5s39.166 -7.5 53.499 -22.5s21.5 -33.167 21.5 -54.5v-536v0z" />
    <glyph glyph-name="Ocircumflex" unicode="&#xd4;" 
d="M70 724h-7l50 55h7l50 -55h-7l-47 51zM47 77c0 -19.333 6.66699 -36 20 -50s29.666 -21 48.999 -21s35.666 7 48.999 21s20 30.667 20 50v536c0 19.333 -6.66699 36 -20 50s-29.666 21 -48.999 21s-35.666 -7 -48.999 -21s-20 -30.667 -20 -50v-536v0zM191 77
c0 -21.333 -7.16699 -39.5 -21.5 -54.5s-32.166 -22.5 -53.499 -22.5s-39.166 7.5 -53.499 22.5s-21.5 33.167 -21.5 54.5v536c0 21.333 7.16699 39.5 21.5 54.5s32.166 22.5 53.499 22.5s39.166 -7.5 53.499 -22.5s21.5 -33.167 21.5 -54.5v-536v0z" />
    <glyph glyph-name="Otilde" unicode="&#xd5;" horiz-adv-x="245" 
d="M204 752c-11.333 -12 -25.0029 -18.502 -41.0029 -19.502s-30.333 3.83301 -43 14.5c-11.333 9.33301 -24.166 13.5 -38.499 12.5s-26.166 -6.5 -35.499 -16.5l-5 4c11.333 11.333 24.833 17.5 40.5 18.5s29.834 -3.5 42.501 -13.5
c11.333 -9.33301 24.333 -13.666 39 -12.999s26.667 6.33398 36 17.001l5 -4v0zM52.9971 76.998c0 -19.333 6.83301 -36 20.5 -50s30.167 -21 49.5 -21s35.666 7 48.999 21s20 30.667 20 50v536c0 19.333 -6.66699 36 -20 50s-29.666 21 -48.999 21s-35.833 -7 -49.5 -21
s-20.5 -30.667 -20.5 -50v-536v0zM197.997 76.998c0 -21.333 -7.33301 -39.5 -22 -54.5s-32.334 -22.5 -53.001 -22.5c-21.333 0 -39.333 7.5 -54 22.5s-22 33.167 -22 54.5v536c0 21.333 7.33301 39.5 22 54.5s32.667 22.5 54 22.5c20.667 0 38.334 -7.5 53.001 -22.5
s22 -33.167 22 -54.5v-536v0z" />
    <glyph glyph-name="Odieresis" unicode="&#xd6;" 
d="M136 734v36h5v-36h-5zM91 734v36h5v-36h-5zM47 77c0 -19.333 6.66699 -36 20 -50s29.666 -21 48.999 -21s35.666 7 48.999 21s20 30.667 20 50v536c0 19.333 -6.66699 36 -20 50s-29.666 21 -48.999 21s-35.666 -7 -48.999 -21s-20 -30.667 -20 -50v-536v0zM191 77
c0 -21.333 -7.16699 -39.5 -21.5 -54.5s-32.166 -22.5 -53.499 -22.5s-39.166 7.5 -53.499 22.5s-21.5 33.167 -21.5 54.5v536c0 21.333 7.16699 39.5 21.5 54.5s32.166 22.5 53.499 22.5s39.166 -7.5 53.499 -22.5s21.5 -33.167 21.5 -54.5v-536v0z" />
    <glyph glyph-name="multiply" unicode="&#xd7;" horiz-adv-x="231" 
d="M118 241l72 -170h-5l-70 163l-68 -163h-6l72 170l-72 169h6l68 -163l70 163h5z" />
    <glyph glyph-name="Oslash" unicode="&#xd8;" horiz-adv-x="252" 
d="M62 50c5.33301 -13.333 13.668 -24.001 25.001 -32.001s24.333 -12 39 -12c19.333 0 35.666 7 48.999 21s20 30.667 20 50v536v8c0 2.66699 -0.666992 5.33398 -2 8.00098l-131 -579v0zM56.002 76.999c0 -4.66699 0.667969 -10.332 2.00098 -16.999l133 579
c-5.33301 13.333 -13.833 24.166 -25.5 32.499s-24.834 12.5 -39.501 12.5c-19.333 0 -35.833 -7 -49.5 -21s-20.5 -30.667 -20.5 -50v-536v0zM201.003 77.001c0 -21.333 -7.33105 -39.498 -21.998 -54.498s-32.334 -22.5 -53.001 -22.5
c-14.667 0 -27.834 3.66699 -39.501 11s-20.834 17.333 -27.501 30l-12 -57h-6l15 65c-3.33301 7.33301 -5 16.666 -5 27.999v536c0 21.333 7.16699 39.5 21.5 54.5s32.166 22.5 53.499 22.5c14.667 0 27.834 -3.83301 39.501 -11.5s20.834 -17.834 27.501 -30.501l13 58h5
l-15 -65c3.33301 -10 5 -19.333 5 -28v-536v0z" />
    <glyph glyph-name="Ugrave" unicode="&#xd9;" 
d="M138 720l-51 59h9l49 -59h-7zM191 77c0 -21.333 -7.16699 -39.5 -21.5 -54.5s-32.166 -22.5 -53.499 -22.5s-39.166 7.5 -53.499 22.5s-21.5 33.167 -21.5 54.5v610h6v-610c0 -19.333 6.66699 -36 20 -50s29.666 -21 48.999 -21s35.666 7 48.999 21s20 30.667 20 50v610
h6v-610v0z" />
    <glyph glyph-name="Uacute" unicode="&#xda;" 
d="M95 720h-8l50 59h8zM191 77c0 -21.333 -7.16699 -39.5 -21.5 -54.5s-32.166 -22.5 -53.499 -22.5s-39.166 7.5 -53.499 22.5s-21.5 33.167 -21.5 54.5v610h6v-610c0 -19.333 6.66699 -36 20 -50s29.666 -21 48.999 -21s35.666 7 48.999 21s20 30.667 20 50v610h6v-610v0z
" />
    <glyph glyph-name="Ucircumflex" unicode="&#xdb;" 
d="M70 724h-7l50 55h7l50 -55h-7l-47 51zM191 77c0 -21.333 -7.16699 -39.5 -21.5 -54.5s-32.166 -22.5 -53.499 -22.5s-39.166 7.5 -53.499 22.5s-21.5 33.167 -21.5 54.5v610h6v-610c0 -19.333 6.66699 -36 20 -50s29.666 -21 48.999 -21s35.666 7 48.999 21
s20 30.667 20 50v610h6v-610v0z" />
    <glyph glyph-name="Udieresis" unicode="&#xdc;" 
d="M136 734v36h5v-36h-5zM91 734v36h5v-36h-5zM191 77c0 -21.333 -7.16699 -39.5 -21.5 -54.5s-32.166 -22.5 -53.499 -22.5s-39.166 7.5 -53.499 22.5s-21.5 33.167 -21.5 54.5v610h6v-610c0 -19.333 6.66699 -36 20 -50s29.666 -21 48.999 -21s35.666 7 48.999 21
s20 30.667 20 50v610h6v-610v0z" />
    <glyph glyph-name="Yacute" unicode="&#xdd;" horiz-adv-x="190" 
d="M74 720h-7l49 59h9zM93 0v324l-72 366h6l68 -352l70 352h5l-71 -366v-324h-6z" />
    <glyph glyph-name="Thorn" unicode="&#xde;" horiz-adv-x="233" 
d="M116 225c19.333 0 35.666 7 48.999 21s20 31 20 51v146c0 19.333 -6.66699 36 -20 50s-29.666 21 -48.999 21h-69v-289h69zM47 220v-220h-6v691h6v-171h69c21.333 0 39.333 -7.5 54 -22.5s22 -33.167 22 -54.5v-146c0 -21.333 -7.33301 -39.5 -22 -54.5
s-32.667 -22.5 -54 -22.5h-69z" />
    <glyph glyph-name="germandbls" unicode="&#xdf;" 
d="M191 77c0 -21.333 -7.16797 -39.501 -21.501 -54.501s-32.166 -22.5 -53.499 -22.5h-25v6h25c19.333 0 35.666 7 48.999 21s20 30.667 20 50v194c0 22 -9 40.333 -27 55c-2.66699 2 -5.16699 3.5 -7.5 4.5s-6.16602 3.16699 -11.499 6.5c-12 6 -19.333 9.83301 -22 11.5
s-5.33398 3.83398 -8.00098 6.50098c-17.333 15.333 -26 34.666 -26 57.999v1c0 23.333 8.66699 43 26 59v-1c2.66699 2.66699 5.33398 4.83398 8.00098 6.50098s10 5.5 22 11.5c5.33301 3.33301 9.16602 5.5 11.499 6.5s4.83301 2.83301 7.5 5.5c18 14 27 32 27 54v57
c0 19.333 -6.66699 36 -20 50s-29.666 21 -48.999 21s-35.666 -7 -48.999 -21s-20 -30.667 -20 -50v-613h-6v613c0 21.333 7.16699 39.5 21.5 54.5s32.166 22.5 53.499 22.5s39.166 -7.5 53.499 -22.5s21.5 -33.167 21.5 -54.5v-57c0 -25.333 -9.66699 -45 -29 -59
c-9.33301 -6.66699 -16.666 -11 -21.999 -13c-7.33301 -3.33301 -13 -6.33301 -17 -9s-7 -5 -9 -7c-16.667 -13.333 -25 -31.333 -25 -54v-1c0 -21.333 8.33301 -39.333 25 -54l9 -6c4 -2.66699 9.66699 -5.66699 17 -9c2.66699 -1.33301 5.66699 -3 9 -5l13 -8
c19.333 -14 29 -34 29 -60v-194v0z" />
    <glyph glyph-name="agrave" unicode="&#xe0;" 
d="M138 551l-51 60h8l50 -60h-7zM47 77c0 -19.333 6.66699 -36 20 -50s29.666 -21 48.999 -21s35.666 7 48.999 21s20 30.667 20 50v147c0 19.333 -6.66699 36 -20 50s-29.666 21 -48.999 21s-35.666 -7 -48.999 -21s-20 -30.667 -20 -50v-147v0zM185 47
c-5.33301 -14 -14.333 -25.333 -27 -34s-26.667 -13 -42 -13c-21.333 0 -39.166 7.5 -53.499 22.5s-21.5 33.167 -21.5 54.5v147c0 21.333 7.16699 39.5 21.5 54.5s32.166 22.5 53.499 22.5c15.333 0 29.333 -4.5 42 -13.5s21.667 -20.5 27 -34.5v180
c0 19.333 -6.66699 36 -20 50s-29.666 21 -48.999 21s-35.666 -7 -48.999 -21s-20 -30.667 -20 -50v-49h-6v49c0 21.333 7.16699 39.5 21.5 54.5s32.166 22.5 53.499 22.5s39.166 -7.5 53.499 -22.5s21.5 -33.167 21.5 -54.5v-209v-147v-77h-6v47v0z" />
    <glyph glyph-name="aacute" unicode="&#xe1;" 
d="M94 551h-7l50 60h8zM47 77c0 -19.333 6.66699 -36 20 -50s29.666 -21 48.999 -21s35.666 7 48.999 21s20 30.667 20 50v147c0 19.333 -6.66699 36 -20 50s-29.666 21 -48.999 21s-35.666 -7 -48.999 -21s-20 -30.667 -20 -50v-147v0zM185 47
c-5.33301 -14 -14.333 -25.333 -27 -34s-26.667 -13 -42 -13c-21.333 0 -39.166 7.5 -53.499 22.5s-21.5 33.167 -21.5 54.5v147c0 21.333 7.16699 39.5 21.5 54.5s32.166 22.5 53.499 22.5c15.333 0 29.333 -4.5 42 -13.5s21.667 -20.5 27 -34.5v180
c0 19.333 -6.66699 36 -20 50s-29.666 21 -48.999 21s-35.666 -7 -48.999 -21s-20 -30.667 -20 -50v-49h-6v49c0 21.333 7.16699 39.5 21.5 54.5s32.166 22.5 53.499 22.5s39.166 -7.5 53.499 -22.5s21.5 -33.167 21.5 -54.5v-209v-147v-77h-6v47v0z" />
    <glyph glyph-name="acircumflex" unicode="&#xe2;" 
d="M70 555h-7l50 55h7l50 -55h-7l-47 51zM47 77c0 -19.333 6.66699 -36 20 -50s29.666 -21 48.999 -21s35.666 7 48.999 21s20 30.667 20 50v147c0 19.333 -6.66699 36 -20 50s-29.666 21 -48.999 21s-35.666 -7 -48.999 -21s-20 -30.667 -20 -50v-147v0zM185 47
c-5.33301 -14 -14.333 -25.333 -27 -34s-26.667 -13 -42 -13c-21.333 0 -39.166 7.5 -53.499 22.5s-21.5 33.167 -21.5 54.5v147c0 21.333 7.16699 39.5 21.5 54.5s32.166 22.5 53.499 22.5c15.333 0 29.333 -4.5 42 -13.5s21.667 -20.5 27 -34.5v180
c0 19.333 -6.66699 36 -20 50s-29.666 21 -48.999 21s-35.666 -7 -48.999 -21s-20 -30.667 -20 -50v-49h-6v49c0 21.333 7.16699 39.5 21.5 54.5s32.166 22.5 53.499 22.5s39.166 -7.5 53.499 -22.5s21.5 -33.167 21.5 -54.5v-209v-147v-77h-6v47v0z" />
    <glyph glyph-name="atilde" unicode="&#xe3;" 
d="M197 584c-11.333 -12 -25 -18.498 -41 -19.498s-30.333 3.5 -43 13.5c-11.333 9.33301 -24.166 13.666 -38.499 12.999s-26.5 -6.33398 -36.5 -17.001l-5 5c11.333 11.333 24.833 17.5 40.5 18.5s30.167 -3.83301 43.5 -14.5c11.333 -9.33301 24.166 -13.5 38.499 -12.5
s26.5 6.5 36.5 16.5l5 -3v0zM46 77.002c0 -19.333 6.66699 -36 20 -50s29.666 -21 48.999 -21s35.833 7 49.5 21s20.5 30.667 20.5 50v147c0 19.333 -6.83301 36 -20.5 50s-30.167 21 -49.5 21s-35.666 -7 -48.999 -21s-20 -30.667 -20 -50v-147v0zM185 47.002
c-6 -14 -15.168 -25.333 -27.501 -34s-26.5 -13 -42.5 -13c-20.667 0 -38.334 7.5 -53.001 22.5s-22 33.167 -22 54.5v147c0 21.333 7.33301 39.5 22 54.5s32.334 22.5 53.001 22.5c16 0 30.167 -4.5 42.5 -13.5s21.5 -20.5 27.5 -34.5v180c0 19.333 -6.83301 36 -20.5 50
s-30.167 21 -49.5 21s-35.666 -7 -48.999 -21s-20 -30.667 -20 -50v-49h-6v49c0 21.333 7.33301 39.5 22 54.5s32.334 22.5 53.001 22.5c21.333 0 39.166 -7.5 53.499 -22.5s21.5 -33.167 21.5 -54.5v-209v-147v-77h-5v47v0z" />
    <glyph glyph-name="adieresis" unicode="&#xe4;" 
d="M136 567v35h5v-35h-5zM91 567v35h5v-35h-5zM47 77c0 -19.333 6.66699 -36 20 -50s29.666 -21 48.999 -21s35.666 7 48.999 21s20 30.667 20 50v147c0 19.333 -6.66699 36 -20 50s-29.666 21 -48.999 21s-35.666 -7 -48.999 -21s-20 -30.667 -20 -50v-147v0zM185 47
c-5.33301 -14 -14.333 -25.333 -27 -34s-26.667 -13 -42 -13c-21.333 0 -39.166 7.5 -53.499 22.5s-21.5 33.167 -21.5 54.5v147c0 21.333 7.16699 39.5 21.5 54.5s32.166 22.5 53.499 22.5c15.333 0 29.333 -4.5 42 -13.5s21.667 -20.5 27 -34.5v180
c0 19.333 -6.66699 36 -20 50s-29.666 21 -48.999 21s-35.666 -7 -48.999 -21s-20 -30.667 -20 -50v-49h-6v49c0 21.333 7.16699 39.5 21.5 54.5s32.166 22.5 53.499 22.5s39.166 -7.5 53.499 -22.5s21.5 -33.167 21.5 -54.5v-209v-147v-77h-6v47v0z" />
    <glyph glyph-name="aring" unicode="&#xe5;" 
d="M165 580c0 -14 -4.83301 -25.833 -14.5 -35.5s-21.167 -14.5 -34.5 -14.5s-24.666 4.83301 -33.999 14.5s-14 21.5 -14 35.5s4.66699 25.833 14 35.5s20.666 14.5 33.999 14.5s24.833 -4.83301 34.5 -14.5s14.5 -21.5 14.5 -35.5zM158 580c0 12.667 -4 23 -12 31
s-18 12 -30 12c-11.333 0 -21.166 -4 -29.499 -12s-12.5 -18.333 -12.5 -31c0 -12 4.16699 -22.167 12.5 -30.5s18.166 -12.5 29.499 -12.5c12 0 22 4.16699 30 12.5s12 18.5 12 30.5zM47 77c0 -19.333 6.66699 -36 20 -50s29.666 -21 48.999 -21s35.666 7 48.999 21
s20 30.667 20 50v147c0 19.333 -6.66699 36 -20 50s-29.666 21 -48.999 21s-35.666 -7 -48.999 -21s-20 -30.667 -20 -50v-147v0zM185 47c-5.33301 -14 -14.333 -25.333 -27 -34s-26.667 -13 -42 -13c-21.333 0 -39.166 7.5 -53.499 22.5s-21.5 33.167 -21.5 54.5v147
c0 21.333 7.16699 39.5 21.5 54.5s32.166 22.5 53.499 22.5c15.333 0 29.333 -4.5 42 -13.5s21.667 -20.5 27 -34.5v180c0 19.333 -6.66699 36 -20 50s-29.666 21 -48.999 21s-35.666 -7 -48.999 -21s-20 -30.667 -20 -50v-49h-6v49c0 21.333 7.16699 39.5 21.5 54.5
s32.166 22.5 53.499 22.5s39.166 -7.5 53.499 -22.5s21.5 -33.167 21.5 -54.5v-209v-147v-77h-6v47v0z" />
    <glyph glyph-name="ae" unicode="&#xe6;" horiz-adv-x="377" 
d="M336 77c0 -21.333 -7.33008 -39.498 -21.9971 -54.498s-32.334 -22.5 -53.001 -22.5c-17.333 0 -32.666 5.16699 -45.999 15.5s-22.333 23.5 -27 39.5c-4.66699 -16 -13.5 -29.167 -26.5 -39.5s-28.167 -15.5 -45.5 -15.5c-21.333 0 -39.166 7.5 -53.499 22.5
s-21.5 33.167 -21.5 54.5v147c0 21.333 7.16699 39.5 21.5 54.5s32.166 22.5 53.499 22.5c15.333 0 29.333 -4.33301 42 -13s21.667 -20 27 -34v179c0 1.33301 0.166992 2.16602 0.5 2.49902s0.166016 1.16602 -0.500977 2.49902c-1.33301 18.667 -8.5 34.334 -21.5 47.001
s-28.833 19 -47.5 19c-19.333 0 -35.666 -7 -48.999 -21s-20 -30.667 -20 -50v-49h-6v49c0 21.333 7.16699 39.5 21.5 54.5s32.166 22.5 53.499 22.5c17.333 0 32.5 -5.16699 45.5 -15.5s21.833 -23.5 26.5 -39.5c4.66699 16 13.667 29.167 27 39.5s28.666 15.5 45.999 15.5
c20.667 0 38.334 -7.5 53.001 -22.5s22 -33.167 22 -54.5v-150v-5h-6h-139v-54v-147v-5c1.33301 -18.667 8.66602 -34.334 21.999 -47.001s29.333 -19 48 -19c19.333 0 35.666 7 48.999 21s20 30.667 20 50v49h6v-49v0zM330.003 433.002
c0 19.333 -6.66895 36.001 -20.002 50.001s-29.666 21 -48.999 21c-18.667 0 -34.667 -6.33301 -48 -19s-20.666 -28.334 -21.999 -47.001v-5v-150h139v150zM185.001 72.0029c0.666992 1.33301 0.833008 2.16699 0.5 2.5s-0.5 1.16602 -0.5 2.49902v147v6
c0 18 -7 33.333 -21 46s-30 19 -48 19c-19.333 0 -35.666 -7 -48.999 -21s-20 -30.667 -20 -50v-147c0 -19.333 6.66699 -36 20 -50s29.666 -21 48.999 -21c18.667 0 34.5 6.33301 47.5 19s20.167 28.334 21.5 47.001z" />
    <glyph glyph-name="ccedilla" unicode="&#xe7;" 
d="M152 -43c0 -13.333 -4.99902 -24.8301 -14.999 -34.4971s-22.333 -14.5 -37 -14.5v5c13.333 0 24.5 4.33301 33.5 13s13.5 19 13.5 31c0 10 -3.33301 19 -10 27s-14.667 13.333 -24 16c-20 1.33301 -37 9.16602 -51 23.499s-21 32.166 -21 53.499v356
c0 21.333 7.16699 39.5 21.5 54.5s32.166 22.5 53.499 22.5s39.166 -7.5 53.499 -22.5s21.5 -33.167 21.5 -54.5v-49h-6v49c0 19.333 -6.66699 36 -20 50s-29.666 21 -48.999 21s-35.666 -7 -48.999 -21s-20 -30.667 -20 -50v-356c0 -19.333 6.66699 -36 20 -50
s29.666 -21 48.999 -21s35.666 7 48.999 21s20 30.667 20 50v49h6v-49c0 -19.333 -6.16699 -36.333 -18.5 -51s-28.166 -23 -47.499 -25c8 -4.66699 14.5 -10.834 19.5 -18.501s7.5 -16.167 7.5 -25.5z" />
    <glyph glyph-name="egrave" unicode="&#xe8;" 
d="M138 551l-51 60h8l50 -60h-7zM47 283h137.998v150c0 19.333 -6.66699 36 -20 50s-29.666 21 -48.999 21s-35.666 -7 -48.999 -21s-20 -30.667 -20 -50v-150zM190.998 77c0 -21.333 -7.16504 -39.5 -21.498 -54.5s-32.166 -22.5 -53.499 -22.5s-39.166 7.5 -53.499 22.5
s-21.5 33.167 -21.5 54.5v356c0 21.333 7.16699 39.5 21.5 54.5s32.166 22.5 53.499 22.5s39.166 -7.5 53.499 -22.5s21.5 -33.167 21.5 -54.5v-150v-5h-6h-138v-201c0 -19.333 6.66699 -36 20 -50s29.666 -21 48.999 -21s35.666 7 48.999 21s20 30.667 20 50v49h6v-49v0z
" />
    <glyph glyph-name="eacute" unicode="&#xe9;" 
d="M94 551h-7l50 60h8zM47 283h137.998v150c0 19.333 -6.66699 36 -20 50s-29.666 21 -48.999 21s-35.666 -7 -48.999 -21s-20 -30.667 -20 -50v-150zM190.998 77c0 -21.333 -7.16504 -39.5 -21.498 -54.5s-32.166 -22.5 -53.499 -22.5s-39.166 7.5 -53.499 22.5
s-21.5 33.167 -21.5 54.5v356c0 21.333 7.16699 39.5 21.5 54.5s32.166 22.5 53.499 22.5s39.166 -7.5 53.499 -22.5s21.5 -33.167 21.5 -54.5v-150v-5h-6h-138v-201c0 -19.333 6.66699 -36 20 -50s29.666 -21 48.999 -21s35.666 7 48.999 21s20 30.667 20 50v49h6v-49v0z
" />
    <glyph glyph-name="ecircumflex" unicode="&#xea;" 
d="M70 555h-7l50 55h7l50 -55h-7l-47 51zM47 283h137.998v150c0 19.333 -6.66699 36 -20 50s-29.666 21 -48.999 21s-35.666 -7 -48.999 -21s-20 -30.667 -20 -50v-150zM190.998 77c0 -21.333 -7.16504 -39.5 -21.498 -54.5s-32.166 -22.5 -53.499 -22.5
s-39.166 7.5 -53.499 22.5s-21.5 33.167 -21.5 54.5v356c0 21.333 7.16699 39.5 21.5 54.5s32.166 22.5 53.499 22.5s39.166 -7.5 53.499 -22.5s21.5 -33.167 21.5 -54.5v-150v-5h-6h-138v-201c0 -19.333 6.66699 -36 20 -50s29.666 -21 48.999 -21s35.666 7 48.999 21
s20 30.667 20 50v49h6v-49v0z" />
    <glyph glyph-name="edieresis" unicode="&#xeb;" 
d="M136 567v35h5v-35h-5zM91 567v35h5v-35h-5zM47 283h137.998v150c0 19.333 -6.66699 36 -20 50s-29.666 21 -48.999 21s-35.666 -7 -48.999 -21s-20 -30.667 -20 -50v-150zM190.998 77c0 -21.333 -7.16504 -39.5 -21.498 -54.5s-32.166 -22.5 -53.499 -22.5
s-39.166 7.5 -53.499 22.5s-21.5 33.167 -21.5 54.5v356c0 21.333 7.16699 39.5 21.5 54.5s32.166 22.5 53.499 22.5s39.166 -7.5 53.499 -22.5s21.5 -33.167 21.5 -54.5v-150v-5h-6h-138v-201c0 -19.333 6.66699 -36 20 -50s29.666 -21 48.999 -21s35.666 7 48.999 21
s20 30.667 20 50v49h6v-49v0z" />
    <glyph glyph-name="igrave" unicode="&#xec;" horiz-adv-x="88" 
d="M66 551l-51 60h8l50 -60h-7zM41 0v510h6v-510h-6z" />
    <glyph glyph-name="iacute" unicode="&#xed;" horiz-adv-x="88" 
d="M22 551h-7l50 60h8zM41 0v510h6v-510h-6z" />
    <glyph glyph-name="icircumflex" unicode="&#xee;" horiz-adv-x="88" 
d="M-2 555h-8l50 55h8l49 -55h-7l-46 51zM41 0v510h6v-510h-6z" />
    <glyph glyph-name="idieresis" unicode="&#xef;" horiz-adv-x="88" 
d="M63 567v35h6v-35h-6zM19 567v35h5v-35h-5zM41 0v510h5v-510h-5z" />
    <glyph glyph-name="eth" unicode="&#xf0;" 
d="M47 77c0 -19.333 6.66699 -36 20 -50s29.666 -21 48.999 -21s35.666 7 48.999 21s20 30.667 20 50v319c0 19.333 -6.66699 36 -20 50s-29.666 21 -48.999 21s-35.666 -7 -48.999 -21s-20 -30.667 -20 -50v-319v0zM191 77c0 -21.333 -7.16797 -39.5 -21.501 -54.5
s-32.166 -22.5 -53.499 -22.5s-39.166 7.5 -53.499 22.5s-21.5 33.167 -21.5 54.5v319c0 21.333 7.16699 39.5 21.5 54.5s32.166 22.5 53.499 22.5c22.667 0 41.667 -8.66699 57 -26l-45 127h-81v6h79l-38 110h5l39 -110h53v-6h-51l53 -151v-1c2.66699 -7.33301 4 -16 4 -26
v-319v0z" />
    <glyph glyph-name="ntilde" unicode="&#xf1;" horiz-adv-x="245" 
d="M204 584c-11.333 -12 -25.0029 -18.498 -41.0029 -19.498s-30.333 3.5 -43 13.5c-11.333 9.33301 -24.166 13.666 -38.499 12.999s-26.166 -6.33398 -35.499 -17.001l-5 5c11.333 11.333 24.833 17.5 40.5 18.5s29.834 -3.83301 42.501 -14.5
c11.333 -9.33301 24.333 -13.5 39 -12.5s26.667 6.5 36 16.5l5 -3v0zM46.9971 0.00195312l-0.00195312 433v77h6v-47c5.33301 13.333 14.333 24.5 27 33.5s27 13.5 43 13.5c20.667 0 38.334 -7.5 53.001 -22.5s22 -33.167 22 -54.5v-433h-6v433c0 19.333 -6.66699 36 -20 50
s-29.666 21 -48.999 21s-35.833 -7 -49.5 -21s-20.5 -30.667 -20.5 -50v-433h-6z" />
    <glyph glyph-name="ograve" unicode="&#xf2;" 
d="M138 551l-51 60h8l50 -60h-7zM47 77c0 -19.333 6.66699 -36 20 -50s29.666 -21 48.999 -21s35.666 7 48.999 21s20 30.667 20 50v356c0 19.333 -6.66699 36 -20 50s-29.666 21 -48.999 21s-35.666 -7 -48.999 -21s-20 -30.667 -20 -50v-356v0zM191 77
c0 -21.333 -7.16699 -39.5 -21.5 -54.5s-32.166 -22.5 -53.499 -22.5s-39.166 7.5 -53.499 22.5s-21.5 33.167 -21.5 54.5v356c0 21.333 7.16699 39.5 21.5 54.5s32.166 22.5 53.499 22.5s39.166 -7.5 53.499 -22.5s21.5 -33.167 21.5 -54.5v-356v0z" />
    <glyph glyph-name="oacute" unicode="&#xf3;" 
d="M94 551h-7l50 60h8zM47 77c0 -19.333 6.66699 -36 20 -50s29.666 -21 48.999 -21s35.666 7 48.999 21s20 30.667 20 50v356c0 19.333 -6.66699 36 -20 50s-29.666 21 -48.999 21s-35.666 -7 -48.999 -21s-20 -30.667 -20 -50v-356v0zM191 77
c0 -21.333 -7.16699 -39.5 -21.5 -54.5s-32.166 -22.5 -53.499 -22.5s-39.166 7.5 -53.499 22.5s-21.5 33.167 -21.5 54.5v356c0 21.333 7.16699 39.5 21.5 54.5s32.166 22.5 53.499 22.5s39.166 -7.5 53.499 -22.5s21.5 -33.167 21.5 -54.5v-356v0z" />
    <glyph glyph-name="ocircumflex" unicode="&#xf4;" 
d="M70 555h-7l50 55h7l50 -55h-7l-47 51zM47 77c0 -19.333 6.66699 -36 20 -50s29.666 -21 48.999 -21s35.666 7 48.999 21s20 30.667 20 50v356c0 19.333 -6.66699 36 -20 50s-29.666 21 -48.999 21s-35.666 -7 -48.999 -21s-20 -30.667 -20 -50v-356v0zM191 77
c0 -21.333 -7.16699 -39.5 -21.5 -54.5s-32.166 -22.5 -53.499 -22.5s-39.166 7.5 -53.499 22.5s-21.5 33.167 -21.5 54.5v356c0 21.333 7.16699 39.5 21.5 54.5s32.166 22.5 53.499 22.5s39.166 -7.5 53.499 -22.5s21.5 -33.167 21.5 -54.5v-356v0z" />
    <glyph glyph-name="otilde" unicode="&#xf5;" horiz-adv-x="245" 
d="M204 584c-11.333 -12 -25.0029 -18.498 -41.0029 -19.498s-30.333 3.5 -43 13.5c-11.333 9.33301 -24.166 13.666 -38.499 12.999s-26.166 -6.33398 -35.499 -17.001l-5 5c11.333 11.333 24.833 17.5 40.5 18.5s29.834 -3.83301 42.501 -14.5
c11.333 -9.33301 24.333 -13.5 39 -12.5s26.667 6.5 36 16.5l5 -3v0zM52.9971 77.002c0 -19.333 6.83301 -36 20.5 -50s30.167 -21 49.5 -21s35.666 7 48.999 21s20 30.667 20 50v356c0 19.333 -6.66699 36 -20 50s-29.666 21 -48.999 21s-35.833 -7 -49.5 -21
s-20.5 -30.667 -20.5 -50v-356v0zM197.997 77.002c0 -21.333 -7.33301 -39.5 -22 -54.5s-32.334 -22.5 -53.001 -22.5c-21.333 0 -39.333 7.5 -54 22.5s-22 33.167 -22 54.5v356c0 21.333 7.33301 39.5 22 54.5s32.667 22.5 54 22.5c20.667 0 38.334 -7.5 53.001 -22.5
s22 -33.167 22 -54.5v-356v0z" />
    <glyph glyph-name="odieresis" unicode="&#xf6;" 
d="M136 567v35h5v-35h-5zM91 567v35h5v-35h-5zM47 77c0 -19.333 6.66699 -36 20 -50s29.666 -21 48.999 -21s35.666 7 48.999 21s20 30.667 20 50v356c0 19.333 -6.66699 36 -20 50s-29.666 21 -48.999 21s-35.666 -7 -48.999 -21s-20 -30.667 -20 -50v-356v0zM191 77
c0 -21.333 -7.16699 -39.5 -21.5 -54.5s-32.166 -22.5 -53.499 -22.5s-39.166 7.5 -53.499 22.5s-21.5 33.167 -21.5 54.5v356c0 21.333 7.16699 39.5 21.5 54.5s32.166 22.5 53.499 22.5s39.166 -7.5 53.499 -22.5s21.5 -33.167 21.5 -54.5v-356v0z" />
    <glyph glyph-name="divide" unicode="&#xf7;" horiz-adv-x="224" 
d="M107 340v49h6v-49h-6zM41 236v6h142v-6h-142zM107 92v49h6v-49h-6z" />
    <glyph glyph-name="oslash" unicode="&#xf8;" 
d="M61 33c6.66699 -8 14.6689 -14.5 24.002 -19.5s19.666 -7.5 30.999 -7.5c19.333 0 35.666 7 48.999 21s20 30.667 20 50v356c0 13.333 -3.66699 26.333 -11 39l-113 -439v0zM47.002 77c0 -14.667 3.33105 -27.333 9.99805 -38l114 438c-6.66699 8 -14.667 14.5 -24 19.5
s-19.666 7.5 -30.999 7.5c-19.333 0 -35.666 -7 -48.999 -21s-20 -30.667 -20 -50v-356v0zM191 77.001c0 -21.333 -7.16699 -39.501 -21.5 -54.501s-32.166 -22.5 -53.499 -22.5c-22.667 0 -41.667 8.66699 -57 26l-11 -42h-6l13 48c-9.33301 12.667 -14 27.667 -14 45v356
c0 21.333 7.16699 39.5 21.5 54.5s32.166 22.5 53.499 22.5c22.667 0 41.667 -8.66699 57 -26l12 46h5l-14 -51c10 -13.333 15 -28.666 15 -45.999v-356v0z" />
    <glyph glyph-name="ugrave" unicode="&#xf9;" 
d="M138 551l-51 60h8l50 -60h-7zM191 77c0 -21.333 -7.16699 -39.5 -21.5 -54.5s-32.166 -22.5 -53.499 -22.5s-39.166 7.5 -53.499 22.5s-21.5 33.167 -21.5 54.5v433h6v-433c0 -19.333 6.66699 -36 20 -50s29.666 -21 48.999 -21s35.666 7 48.999 21s20 30.667 20 50v433
h6v-433v0z" />
    <glyph glyph-name="uacute" unicode="&#xfa;" 
d="M94 551h-7l50 60h8zM191 77c0 -21.333 -7.16699 -39.5 -21.5 -54.5s-32.166 -22.5 -53.499 -22.5s-39.166 7.5 -53.499 22.5s-21.5 33.167 -21.5 54.5v433h6v-433c0 -19.333 6.66699 -36 20 -50s29.666 -21 48.999 -21s35.666 7 48.999 21s20 30.667 20 50v433h6v-433v0z
" />
    <glyph glyph-name="ucircumflex" unicode="&#xfb;" 
d="M70 555h-7l50 55h7l50 -55h-7l-47 51zM191 77c0 -21.333 -7.16699 -39.5 -21.5 -54.5s-32.166 -22.5 -53.499 -22.5s-39.166 7.5 -53.499 22.5s-21.5 33.167 -21.5 54.5v433h6v-433c0 -19.333 6.66699 -36 20 -50s29.666 -21 48.999 -21s35.666 7 48.999 21
s20 30.667 20 50v433h6v-433v0z" />
    <glyph glyph-name="udieresis" unicode="&#xfc;" 
d="M136 567v35h5v-35h-5zM91 567v35h5v-35h-5zM191 77c0 -21.333 -7.16699 -39.5 -21.5 -54.5s-32.166 -22.5 -53.499 -22.5s-39.166 7.5 -53.499 22.5s-21.5 33.167 -21.5 54.5v433h6v-433c0 -19.333 6.66699 -36 20 -50s29.666 -21 48.999 -21s35.666 7 48.999 21
s20 30.667 20 50v433h6v-433v0z" />
    <glyph glyph-name="yacute" unicode="&#xfd;" 
d="M101 551h-7l51 60h8zM191 -103c0 -21.333 -7.16602 -39.5 -21.499 -54.5s-32.166 -22.5 -53.499 -22.5s-39.166 7.5 -53.499 22.5s-21.5 33.167 -21.5 54.5h6c0 -19.333 6.66699 -36 20 -50s29.666 -21 48.999 -21s35.666 7 48.999 21s20 30.667 20 50v150
c-5.33301 -14 -14.333 -25.333 -27 -34s-26.667 -13 -42 -13c-21.333 0 -39.166 7.5 -53.499 22.5s-21.5 33.167 -21.5 54.5v433h6v-433c0 -19.333 6.66699 -36 20 -50s29.666 -21 48.999 -21s35.666 7 48.999 21s20 30.667 20 50v433h6v-433v-180v0z" />
    <glyph glyph-name="thorn" unicode="&#xfe;" 
d="M47 77c0 -19.333 6.66699 -36 20 -50s29.666 -21 48.999 -21s35.666 7 48.999 21s20 30.667 20 50v356c0 19.333 -6.66699 36 -20 50s-29.666 21 -48.999 21s-35.666 -7 -48.999 -21s-20 -30.667 -20 -50v-356v0zM191 77c0 -21.333 -7.16699 -39.5 -21.5 -54.5
s-32.166 -22.5 -53.499 -22.5c-15.333 -0 -29.333 4.33301 -42 13s-21.667 20 -27 34v-227h-6v257v356v249h6v-219c5.33301 13.333 14.333 24.5 27 33.5s26.667 13.5 42 13.5c21.333 0 39.166 -7.5 53.499 -22.5s21.5 -33.167 21.5 -54.5v-356v0z" />
    <glyph glyph-name="ydieresis" unicode="&#xff;" 
d="M143 567v35h6v-35h-6zM98 567v35h6v-35h-6zM191 -103c0 -21.333 -7.16602 -39.5 -21.499 -54.5s-32.166 -22.5 -53.499 -22.5s-39.166 7.5 -53.499 22.5s-21.5 33.167 -21.5 54.5h6c0 -19.333 6.66699 -36 20 -50s29.666 -21 48.999 -21s35.666 7 48.999 21
s20 30.667 20 50v150c-5.33301 -14 -14.333 -25.333 -27 -34s-26.667 -13 -42 -13c-21.333 0 -39.166 7.5 -53.499 22.5s-21.5 33.167 -21.5 54.5v433h6v-433c0 -19.333 6.66699 -36 20 -50s29.666 -21 48.999 -21s35.666 7 48.999 21s20 30.667 20 50v433h6v-433v-180v0z
" />
    <glyph glyph-name="OE" unicode="&#x152;" horiz-adv-x="363" 
d="M47 77c0 -19.333 6.66699 -36 20 -50s29.666 -21 48.999 -21h64v678h-64c-19.333 0 -35.666 -7 -48.999 -21s-20 -30.667 -20 -50v-536v0zM116 0c-21.333 0 -39.166 7.5 -53.499 22.5s-21.5 33.167 -21.5 54.5v536c0 21.333 7.16699 39.5 21.5 54.5
s32.166 22.5 53.499 22.5h64h4h1h137v-6h-137v-329h117v-5h-117v-344h137v-6h-137h-1h-4h-64v0z" />
    <glyph glyph-name="oe" unicode="&#x153;" horiz-adv-x="377" 
d="M191 283h138.999v150c0 19.333 -6.66699 36 -20 50s-29.666 21 -48.999 21s-35.833 -7 -49.5 -21s-20.5 -30.667 -20.5 -50v-150zM46.999 77c0 -19.333 6.66699 -36 20 -50s29.666 -21 48.999 -21s35.666 7 48.999 21s20 30.667 20 50v356c0 19.333 -6.66699 36 -20 50
s-29.666 21 -48.999 21s-35.666 -7 -48.999 -21s-20 -30.667 -20 -50v-356v0zM187.999 56c-4.66699 -16.667 -13.499 -30.167 -26.499 -40.5s-28.167 -15.5 -45.5 -15.5c-21.333 0 -39.166 7.5 -53.499 22.5s-21.5 33.167 -21.5 54.5v356c0 21.333 7.16699 39.5 21.5 54.5
s32.166 22.5 53.499 22.5c17.333 0 32.5 -5.33301 45.5 -16s21.833 -24 26.5 -40c4.66699 16 13.667 29.333 27 40s28.666 16 45.999 16c20.667 0 38.334 -7.5 53.001 -22.5s22 -33.167 22 -54.5v-150v-5h-6h-139v-201c0 -19.333 6.83301 -36 20.5 -50s30.167 -21 49.5 -21
s35.666 7 48.999 21s20 30.667 20 50v49h6v-49c0 -21.333 -7.33301 -39.5 -22 -54.5s-32.334 -22.5 -53.001 -22.5c-17.333 0 -32.666 5.16699 -45.999 15.5s-22.333 23.833 -27 40.5z" />
    <glyph glyph-name="Scaron" unicode="&#x160;" 
d="M113 724l-50 55h7l46 -51l47 51h7l-50 -55h-7zM41 126l6 0.00195312v-49c0 -19.333 6.66699 -36 20 -50s29.666 -21 48.999 -21s35.666 7 48.999 21s20 30.667 20 50v204c0 22 -9 40.333 -27 55c-5.33301 4.66699 -11.5 8.5 -18.5 11.5l-21.5 9.5
c-13.333 5.33301 -23.5 9.66602 -30.5 12.999s-13.833 7.66602 -20.5 12.999c-17.333 15.333 -26 35 -26 59v171c0 21.333 7.16699 39.5 21.5 54.5s32.166 22.5 53.499 22.5s39.166 -7.5 53.499 -22.5s21.5 -33.167 21.5 -54.5v-49h-6v49c0 19.333 -6.66699 36 -20 50
s-29.666 21 -48.999 21s-35.666 -7 -48.999 -21s-20 -30.667 -20 -50v-171c0 -22.667 8 -41 24 -55c6 -5.33301 13 -9.5 21 -12.5s16.667 -6.5 26 -10.5l24.5 -11.5c6.33301 -3 12.833 -6.83301 19.5 -11.5c9.33301 -7.33301 16.5 -16 21.5 -26s7.5 -21.333 7.5 -34v-204
c0 -21.333 -7.16699 -39.5 -21.5 -54.5s-32.166 -22.5 -53.499 -22.5s-39.166 7.5 -53.499 22.5s-21.5 33.167 -21.5 54.5v49z" />
    <glyph glyph-name="scaron" unicode="&#x161;" 
d="M113 555l-50 55h7l46 -51l47 51h7l-50 -55h-7zM41 125l6 0.00195312v-49c0 -19.333 6.66699 -36 20 -50s29.666 -21 48.999 -21s35.666 7 48.999 21s20 30.667 20 50v108c0 22 -9 40.333 -27 55c-5.33301 4.66699 -11.5 8.5 -18.5 11.5l-21.5 9.5
c-13.333 5.33301 -23.5 9.66602 -30.5 12.999s-13.833 7.66602 -20.5 12.999c-17.333 15.333 -26 35 -26 59v88c0 21.333 7.16699 39.5 21.5 54.5s32.166 22.5 53.499 22.5s39.166 -7.5 53.499 -22.5s21.5 -33.167 21.5 -54.5v-49h-6v49c0 19.333 -6.66699 36 -20 50
s-29.666 21 -48.999 21s-35.666 -7 -48.999 -21s-20 -30.667 -20 -50v-88c0 -22.667 8 -41 24 -55c6 -5.33301 13 -9.66602 21 -12.999l26 -11c10 -4.66699 18.167 -8.33398 24.5 -11.001s12.833 -6.66699 19.5 -12c19.333 -15.333 29 -35 29 -59v-108
c0 -21.333 -7.16699 -39.5 -21.5 -54.5s-32.166 -22.5 -53.499 -22.5s-39.166 7.5 -53.499 22.5s-21.5 33.167 -21.5 54.5v49z" />
    <glyph glyph-name="Ydieresis" unicode="&#x178;" horiz-adv-x="186" 
d="M112 734v36h6v-36h-6zM68 734v36h5v-36h-5zM90 0v324l-71 366h5l69 -352l69 352h5l-71 -366v-324h-6z" />
    <glyph glyph-name="florin" unicode="&#x192;" horiz-adv-x="180" 
d="M22 -66c-3.33301 -21.333 -13.168 -39.5 -29.501 -54.5s-35.166 -22.5 -56.499 -22.5l1 6c19.333 0 36.833 7 52.5 21s24.834 30.667 27.501 50l80 573h-35l1 5h35l14 101c3.33301 21.333 13.166 39.5 29.499 54.5s35.166 22.5 56.499 22.5l-1 -6
c-19.333 0 -36.666 -7 -51.999 -21s-24.333 -30.667 -27 -50l-14 -101h44l-1 -5h-44l-81 -573v0z" />
    <glyph glyph-name="circumflex" unicode="&#x2c6;" horiz-adv-x="189" 
d="M48 629h-7l50 56h7l50 -56h-7l-47 52z" />
    <glyph glyph-name="tilde" unicode="&#x2dc;" horiz-adv-x="245" 
d="M204 675c-11.333 -12.667 -25 -19.333 -41 -20s-30.333 4 -43 14c-11.333 9.33301 -24.166 13.5 -38.499 12.5s-26.166 -6.5 -35.499 -16.5l-5 5c11.333 11.333 24.833 17.333 40.5 18s30.167 -4 43.5 -14c11.333 -9.33301 24.166 -13.5 38.499 -12.5
s26.166 6.5 35.499 16.5l5 -3v0z" />
    <glyph glyph-name="endash" unicode="&#x2013;" horiz-adv-x="263" 
d="M41 236v6h181v-6h-181z" />
    <glyph glyph-name="emdash" unicode="&#x2014;" horiz-adv-x="321" 
d="M41 236v6h238v-6h-238z" />
    <glyph glyph-name="quoteleft" unicode="&#x2018;" horiz-adv-x="110" 
d="M47 658v-49l-6 -1v49l22 55h6z" />
    <glyph glyph-name="quoteright" unicode="&#x2019;" horiz-adv-x="110" 
d="M47 609h-6l22 54v49h6v-49z" />
    <glyph glyph-name="quotesinglbase" unicode="&#x201a;" horiz-adv-x="110" 
d="M47 -55h-6l22 55v49h6v-49z" />
    <glyph glyph-name="quotedblleft" unicode="&#x201c;" horiz-adv-x="165" 
d="M102 658v-49l-6 -1v49l22 55h6zM47 658v-50h-6v49l22 55h6z" />
    <glyph glyph-name="quotedblright" unicode="&#x201d;" horiz-adv-x="165" 
d="M102 609h-6l22 54v49h6v-49zM47 609h-6l23 54v49h5v-49z" />
    <glyph glyph-name="quotedblbase" unicode="&#x201e;" horiz-adv-x="163" 
d="M100 -55h-6l22 55v49h6v-49zM47 -55h-6l22 55v49h6v-49z" />
    <glyph glyph-name="dagger" unicode="&#x2020;" horiz-adv-x="192" 
d="M93 0v579h-52v6h52v106h6v-106h52v-6h-52v-579h-6z" />
    <glyph glyph-name="daggerdbl" unicode="&#x2021;" horiz-adv-x="192" 
d="M99 106v-106h-6v106h-52v6h52v467h-52v6h52v106h6v-106h52v-6h-52v-467h52v-6h-52z" />
    <glyph glyph-name="bullet" unicode="&#x2022;" horiz-adv-x="104" 
d="M41 348v49h22v-49h-22z" />
    <glyph glyph-name="ellipsis" unicode="&#x2026;" horiz-adv-x="202" 
d="M155 0v49h6v-49h-6zM99 0v49h6v-49h-6zM41 0v49h6v-49h-6z" />
    <glyph glyph-name="perthousand" unicode="&#x2030;" horiz-adv-x="521" 
d="M46 504c0 -17.333 5.5 -32 16.5 -44s24.5 -18 40.5 -18s29.667 6 41 18s17 26.667 17 44v110c0 17.333 -5.66699 32 -17 44s-25 18 -41 18s-29.5 -6 -40.5 -18s-16.5 -26.667 -16.5 -44v-110v0zM165 504c0 -19.333 -6 -35.5 -18 -48.5s-26.667 -19.5 -44 -19.5
s-32 6.5 -44 19.5s-18 29.167 -18 48.5v110c0 18 6 33.667 18 47s26.667 20 44 20s32 -6.66699 44 -20s18 -29 18 -47v-110v0zM111 0h-6l146 674h5zM360 67c0 -17.333 5.66699 -32 17 -44s24.666 -18 39.999 -18c16 0 29.667 6 41 18s17 26.667 17 44v109
c0 17.333 -5.66699 32.166 -17 44.499s-25 18.5 -41 18.5c-15.333 0 -28.666 -6.16699 -39.999 -18.5s-17 -27.166 -17 -44.499v-109v0zM480 67c0 -18.667 -6.16699 -34.5 -18.5 -47.5s-27.166 -19.5 -44.499 -19.5s-32 6.5 -44 19.5s-18 28.833 -18 47.5v109
c0 19.333 6 35.5 18 48.5s26.667 19.5 44 19.5s32.166 -6.5 44.499 -19.5s18.5 -29.167 18.5 -48.5v-109v0zM209 67c0 -17.333 5.5 -32 16.5 -44s24.5 -18 40.5 -18s29.667 6 41 18s17 26.667 17 44v109c0 17.333 -5.66699 32.166 -17 44.499s-25 18.5 -41 18.5
s-29.5 -6.16699 -40.5 -18.5s-16.5 -27.166 -16.5 -44.499v-109v0zM328 67c0 -18.667 -6 -34.5 -18 -47.5s-26.667 -19.5 -44 -19.5s-32 6.5 -44 19.5s-18 28.833 -18 47.5v109c0 19.333 6 35.5 18 48.5s26.667 19.5 44 19.5s32 -6.5 44 -19.5s18 -29.167 18 -48.5v-109v0z
" />
    <glyph glyph-name="guilsinglleft" unicode="&#x2039;" horiz-adv-x="152" 
d="M102 94l-61 116l59 118l10 -1l-61 -117l62 -116h-9z" />
    <glyph glyph-name="guilsinglright" unicode="&#x203a;" horiz-adv-x="152" 
d="M50 94h-9l62 116l-61 117l9 1l60 -118z" />
    <glyph glyph-name="Euro" unicode="&#x20ac;" 
d="M191 77c0 -21.333 -7.16699 -39.5 -21.5 -54.5s-32.166 -22.5 -53.499 -22.5s-39.166 7.5 -53.499 22.5s-21.5 33.167 -21.5 54.5v536c0 21.333 7.16699 39.5 21.5 54.5s32.166 22.5 53.499 22.5s39.166 -7.5 53.499 -22.5s21.5 -33.167 21.5 -54.5v-49h-6v49
c0 19.333 -6.66699 36 -20 50s-29.666 21 -48.999 21s-35.666 -7 -48.999 -21s-20 -30.667 -20 -50v-191h123v-6h-123v-116h105v-5h-105v-218c0 -19.333 6.66699 -36 20 -50s29.666 -21 48.999 -21s35.666 7 48.999 21s20 30.667 20 50v49h6v-49v0z" />
    <glyph glyph-name="trademark" unicode="&#x2122;" horiz-adv-x="386" 
d="M179 376v272h6l77 -261l78 261h5v-272h-5v255l-75 -254h-6l-74 252v-253h-6zM103 375v309h-62v6h129v-6h-61v-309h-6z" />
    <glyph glyph-name=".null" horiz-adv-x="0" 
 />
    <glyph glyph-name="nonmarkingreturn" horiz-adv-x="179" 
 />
    <glyph glyph-name="AEacute" horiz-adv-x="366" 
d="M243 720h-8l50 59h8zM129 355h71v310zM206 0h-6v6v344h-73l-80 -350h-6l159 690h6h118v-6h-118v-329h99v-5h-99v-344h118v-6h-118z" />
    <glyph glyph-name="Alpha" horiz-adv-x="190" 
d="M134 292l-38 370l-39 -370h77zM56 286l-29 -286h-6l72 690h6l71 -690h-5l-30 286h-79z" />
    <glyph glyph-name="Aogonek" horiz-adv-x="190" 
d="M133 292l-38 370l-39 -370h77zM187 -78c-16.667 -4.66699 -29.833 -4.66699 -39.5 0s-14.5 13.667 -14.5 27h1c0 5.33301 0.833008 10 2.5 14s4.16699 8 7.5 12c3.33301 4.66699 7 9.5 11 14.5l9 11.5l-30 285h-78l-30 -286h-6l72 690h6l71 -690
c-2 -3.33301 -4.33301 -6.66602 -7 -9.99902c-2 -3.33301 -4.33301 -6.5 -7 -9.5s-5 -5.83301 -7 -8.5c-2.66699 -3.33301 -5 -6.83301 -7 -10.5s-3 -7.83398 -3 -12.501c0 -12 4.83301 -19.833 14.5 -23.5s21.167 -3.16699 34.5 1.5v-5v0z" />
    <glyph glyph-name="Beta" horiz-adv-x="225" 
d="M109 355c19.333 0 35.666 6.83301 48.999 20.5s20 30.5 20 50.5v187c0 19.333 -6.66699 36 -20 50s-29.666 21 -48.999 21h-62v-329h62zM109 6c19.333 0 35.666 7 48.999 21s20 30.667 20 50v201c0 19.333 -6.66699 36 -20 50s-29.666 21 -48.999 21h-62v-343h62zM47 0
l-6 0.00195312v6v343v6v329v6h6h62c20.667 0 38.334 -7.5 53.001 -22.5s22 -33.167 22 -54.5v-187c0 -17.333 -5.16699 -32.833 -15.5 -46.5s-23.5 -22.834 -39.5 -27.501c16 -4.66699 29.167 -13.834 39.5 -27.501s15.5 -29.167 15.5 -46.5v-201
c0 -21.333 -7.33301 -39.5 -22 -54.5s-32.334 -22.5 -53.001 -22.5h-62z" />
    <glyph glyph-name="Cacute" 
d="M94 720h-7l50 59h8zM191 77c0 -21.333 -7.16699 -39.5 -21.5 -54.5s-32.166 -22.5 -53.499 -22.5s-39.166 7.5 -53.499 22.5s-21.5 33.167 -21.5 54.5v536c0 21.333 7.16699 39.5 21.5 54.5s32.166 22.5 53.499 22.5s39.166 -7.5 53.499 -22.5s21.5 -33.167 21.5 -54.5
v-49h-6v49c0 19.333 -6.66699 36 -20 50s-29.666 21 -48.999 21s-35.666 -7 -48.999 -21s-20 -30.667 -20 -50v-536c0 -19.333 6.66699 -36 20 -50s29.666 -21 48.999 -21s35.666 7 48.999 21s20 30.667 20 50v49h6v-49v0z" />
    <glyph glyph-name="Ccaron" 
d="M113 724h-1l-50 55h7l47 -51l47 51h7l-51 -55h-6zM191 77c0 -21.333 -7.16699 -39.5 -21.5 -54.5s-32.166 -22.5 -53.499 -22.5s-39.166 7.5 -53.499 22.5s-21.5 33.167 -21.5 54.5v536c0 21.333 7.16699 39.5 21.5 54.5s32.166 22.5 53.499 22.5
s39.166 -7.5 53.499 -22.5s21.5 -33.167 21.5 -54.5v-49h-6v49c0 19.333 -6.66699 36 -20 50s-29.666 21 -48.999 21s-35.666 -7 -48.999 -21s-20 -30.667 -20 -50v-536c0 -19.333 6.66699 -36 20 -50s29.666 -21 48.999 -21s35.666 7 48.999 21s20 30.667 20 50v49h6v-49v0
z" />
    <glyph glyph-name="Ccircumflex" 
d="M69 724h-7l50 55h1h6l51 -55h-7l-47 51zM191 77c0 -21.333 -7.16699 -39.5 -21.5 -54.5s-32.166 -22.5 -53.499 -22.5s-39.166 7.5 -53.499 22.5s-21.5 33.167 -21.5 54.5v536c0 21.333 7.16699 39.5 21.5 54.5s32.166 22.5 53.499 22.5s39.166 -7.5 53.499 -22.5
s21.5 -33.167 21.5 -54.5v-49h-6v49c0 19.333 -6.66699 36 -20 50s-29.666 21 -48.999 21s-35.666 -7 -48.999 -21s-20 -30.667 -20 -50v-536c0 -19.333 6.66699 -36 20 -50s29.666 -21 48.999 -21s35.666 7 48.999 21s20 30.667 20 50v49h6v-49v0z" />
    <glyph glyph-name="Cdot" 
d="M113 734v36h6v-36h-6zM191 77c0 -21.333 -7.16699 -39.5 -21.5 -54.5s-32.166 -22.5 -53.499 -22.5s-39.166 7.5 -53.499 22.5s-21.5 33.167 -21.5 54.5v536c0 21.333 7.16699 39.5 21.5 54.5s32.166 22.5 53.499 22.5s39.166 -7.5 53.499 -22.5s21.5 -33.167 21.5 -54.5
v-49h-6v49c0 19.333 -6.66699 36 -20 50s-29.666 21 -48.999 21s-35.666 -7 -48.999 -21s-20 -30.667 -20 -50v-536c0 -19.333 6.66699 -36 20 -50s29.666 -21 48.999 -21s35.666 7 48.999 21s20 30.667 20 50v49h6v-49v0z" />
    <glyph glyph-name="Dcaron" horiz-adv-x="225" 
d="M109 724l-50 55h7l46 -51l46 51h8l-50 -55h-7zM109 6c19.333 0 35.666 7 48.999 21s20 30.667 20 50v536c0 19.333 -6.66699 36 -20 50s-29.666 21 -48.999 21h-62v-678h62zM41 690h68c21.333 0 39.166 -7.66699 53.499 -23s21.5 -33.333 21.5 -54v-536
c0 -21.333 -7.16699 -39.5 -21.5 -54.5s-32.166 -22.5 -53.499 -22.5h-68v690z" />
    <glyph glyph-name="Delta" horiz-adv-x="190" 
d="M164 6l-68 656l-69 -656h137zM27 0h-6l72 690h6l71 -690h-5h-138z" />
    <glyph glyph-name="Dslash" horiz-adv-x="225" 
d="M109 6c19.333 0 35.666 7 48.999 21s20 30.667 20 50v536c0 19.333 -6.66699 36 -20 50s-29.666 21 -48.999 21h-62v-329h57v-5h-57v-344h62zM41 690h68c21.333 0 39.166 -7.66699 53.499 -23s21.5 -33.333 21.5 -54v-536c0 -21.333 -7.16699 -39.5 -21.5 -54.5
s-32.166 -22.5 -53.499 -22.5h-68v690z" />
    <glyph glyph-name="Ebreve" horiz-adv-x="224" 
d="M182 779c0 -21.333 -6.33301 -37.166 -19 -47.499s-29.667 -15.5 -51 -15.5s-38.333 5.16699 -51 15.5s-19 26.166 -19 47.499h5c0 -19.333 6 -33.666 18 -42.999s27.667 -14 47 -14s34.833 4.66699 46.5 14s17.5 23.666 17.5 42.999h6v0zM47 0h-6v6v678v6h6h136v-6h-136
v-329h116v-5h-116v-344h136v-6h-136z" />
    <glyph glyph-name="Ecaron" horiz-adv-x="224" 
d="M109 724l-51 55h7l47 -52l46 52h8l-51 -55h-6zM47 0h-6v6v678v6h6h136v-6h-136v-329h116v-5h-116v-344h136v-6h-136z" />
    <glyph glyph-name="Edot" horiz-adv-x="224" 
d="M109 734v36h6v-36h-6zM47 0h-6v6v678v6h6h136v-6h-136v-329h116v-5h-116v-344h136v-6h-136z" />
    <glyph glyph-name="Emacron" horiz-adv-x="224" 
d="M60 749v6h104v-6h-104zM47 0h-6v6v678v6h6h136v-6h-136v-329h116v-5h-116v-344h136v-6h-136z" />
    <glyph glyph-name="Eng" horiz-adv-x="233" 
d="M192 77c0 -21.333 -7.33301 -39.5 -22 -54.5s-32.667 -22.5 -54 -22.5v6c19.333 0 35.666 7 48.999 21s20 30.667 20 50v537c0 19.333 -6.66699 36 -20 50s-29.666 21 -48.999 21s-35.666 -7 -48.999 -21s-20 -30.667 -20 -50v-614h-6v614v76h6v-47
c5.33301 14 14.333 25.333 27 34s26.667 13 42 13c21.333 0 39.166 -7.33301 53.499 -22s21.5 -32.667 21.5 -54v-537h1v0z" />
    <glyph glyph-name="Eogonek" horiz-adv-x="224" 
d="M166 -78c-16.667 -4.66699 -29.833 -4.66699 -39.5 0s-14.5 13.667 -14.5 27h1c0 5.33301 0.833008 10 2.5 14s4.16699 8 7.5 12l10.5 14l8.5 11h-95h-6v6v678v6h6h136v-6h-136v-329h116v-5h-116v-344h136v-6h-35c-2 -3.33301 -4.33301 -6.66602 -7 -9.99902
c-2 -3.33301 -4.33301 -6.5 -7 -9.5s-5 -5.83301 -7 -8.5c-2.66699 -3.33301 -5 -6.83301 -7 -10.5s-3 -7.83398 -3 -12.501c0 -12 4.83301 -19.833 14.5 -23.5s21.167 -3.16699 34.5 1.5v-5v0z" />
    <glyph glyph-name="Epsilon" horiz-adv-x="224" 
d="M47 0h-6v6v678v6h6h136v-6h-136v-329h116v-5h-116v-344h136v-6h-136z" />
    <glyph glyph-name="Eta" horiz-adv-x="231" 
d="M41 0v690h6v-335h138v335h5v-690h-5v350h-138v-350h-6z" />
    <glyph glyph-name="Gamma" horiz-adv-x="224" 
d="M41 0v684v6h6h136v-6h-136v-684h-6z" />
    <glyph glyph-name="Gbreve" 
d="M186 779c0 -21.333 -6.33301 -37.166 -19 -47.499s-29.667 -15.5 -51 -15.5s-38.333 5.16699 -51 15.5s-19 26.166 -19 47.499h5c0 -19.333 6 -33.666 18 -42.999s27.667 -14 47 -14s35 4.66699 47 14s18 23.666 18 42.999h5v0zM191 77
c0 -21.333 -7.16699 -39.5 -21.5 -54.5s-32.166 -22.5 -53.499 -22.5s-39.166 7.5 -53.499 22.5s-21.5 33.167 -21.5 54.5v536c0 21.333 7.16699 39.5 21.5 54.5s32.166 22.5 53.499 22.5s39.166 -7.5 53.499 -22.5s21.5 -33.167 21.5 -54.5v-49h-6v49
c0 19.333 -6.66699 36 -20 50s-29.666 21 -48.999 21s-35.666 -7 -48.999 -21s-20 -30.667 -20 -50v-536c0 -19.333 6.66699 -36 20 -50s29.666 -21 48.999 -21s35.666 7 48.999 21s20 30.667 20 50v268h-68v5h68h6v-5v-268v0z" />
    <glyph glyph-name="Gcedilla" 
d="M152 -43c0 -13.333 -4.99902 -24.8301 -14.999 -34.4971s-22.333 -14.5 -37 -14.5v5c13.333 0 24.5 4.33301 33.5 13s13.5 19 13.5 31c0 10 -3.33301 19 -10 27s-14.667 13.333 -24 16c-20 1.33301 -37 9.16602 -51 23.499s-21 32.166 -21 53.499v536
c0 21.333 7.16699 39.5 21.5 54.5s32.166 22.5 53.499 22.5s39.166 -7.5 53.499 -22.5s21.5 -33.167 21.5 -54.5v-49h-6v49c0 19.333 -6.66699 36 -20 50s-29.666 21 -48.999 21s-35.666 -7 -48.999 -21s-20 -30.667 -20 -50v-536c0 -19.333 6.66699 -36 20 -50
s29.666 -21 48.999 -21s35.666 7 48.999 21s20 30.667 20 50v268h-68v5h68h6v-5v-268c0 -19.333 -6.16699 -36.333 -18.5 -51s-28.166 -23 -47.499 -25c8 -4.66699 14.5 -10.834 19.5 -18.501s7.5 -16.167 7.5 -25.5z" />
    <glyph glyph-name="Gcircumflex" 
d="M69 724h-7l50 55h1h6l51 -55h-7l-47 51zM191 77c0 -21.333 -7.16699 -39.5 -21.5 -54.5s-32.166 -22.5 -53.499 -22.5s-39.166 7.5 -53.499 22.5s-21.5 33.167 -21.5 54.5v536c0 21.333 7.16699 39.5 21.5 54.5s32.166 22.5 53.499 22.5s39.166 -7.5 53.499 -22.5
s21.5 -33.167 21.5 -54.5v-49h-6v49c0 19.333 -6.66699 36 -20 50s-29.666 21 -48.999 21s-35.666 -7 -48.999 -21s-20 -30.667 -20 -50v-536c0 -19.333 6.66699 -36 20 -50s29.666 -21 48.999 -21s35.666 7 48.999 21s20 30.667 20 50v268h-68v5h68h6v-5v-268v0z" />
    <glyph glyph-name="Gdot" 
d="M113 734v36h6v-36h-6zM191 77c0 -21.333 -7.16699 -39.5 -21.5 -54.5s-32.166 -22.5 -53.499 -22.5s-39.166 7.5 -53.499 22.5s-21.5 33.167 -21.5 54.5v536c0 21.333 7.16699 39.5 21.5 54.5s32.166 22.5 53.499 22.5s39.166 -7.5 53.499 -22.5s21.5 -33.167 21.5 -54.5
v-49h-6v49c0 19.333 -6.66699 36 -20 50s-29.666 21 -48.999 21s-35.666 -7 -48.999 -21s-20 -30.667 -20 -50v-536c0 -19.333 6.66699 -36 20 -50s29.666 -21 48.999 -21s35.666 7 48.999 21s20 30.667 20 50v268h-68v5h68h6v-5v-268v0z" />
    <glyph glyph-name="Hbar" horiz-adv-x="253" 
d="M58 355h138v236h-138v-236zM52 0v591h-31v5h31v94h6v-94h138v94h5v-94h32v-5h-32v-591h-5v350h-138v-350h-6z" />
    <glyph glyph-name="Hcircumflex" horiz-adv-x="231" 
d="M69 724h-8l51 55h6l51 -55h-7l-47 52zM41 0v690h6v-335h138v335h5v-690h-5v350h-138v-350h-6z" />
    <glyph glyph-name="IJ" horiz-adv-x="279" 
d="M41 0v691h6v-691h-6zM87 126h6.00195v-49c0 -19.333 6.83301 -36 20.5 -50s30.167 -21 49.5 -21s35.666 7 48.999 21s20 30.667 20 50v610h6v-610c0 -21.333 -7.33301 -39.5 -22 -54.5s-32.334 -22.5 -53.001 -22.5c-21.333 0 -39.333 7.5 -54 22.5s-22 33.167 -22 54.5
v49z" />
    <glyph glyph-name="Ibreve" horiz-adv-x="88" 
d="M114 779c0 -21.333 -6.33301 -37.166 -19 -47.499s-29.667 -15.5 -51 -15.5s-38.333 5.16699 -51 15.5s-19 26.166 -19 47.499h5c0 -19.333 6 -33.666 18 -42.999s27.667 -14 47 -14s34.833 4.66699 46.5 14s17.5 23.666 17.5 42.999h6v0zM41 0v691h5v-691h-5z" />
    <glyph glyph-name="Imacron" horiz-adv-x="88" 
d="M-8 749v6h104v-6h-104zM41 0v691h6v-691h-6z" />
    <glyph glyph-name="Iogonek" 
d="M166 20c-6 -6.66699 -11.665 -13.332 -16.998 -19.999l-13.5 -16c-4.33301 -5.33301 -7.5 -9.33301 -9.5 -12c-3.33301 -3.33301 -6 -6.83301 -8 -10.5s-3 -7.83398 -3 -12.501c0 -12 4.83301 -19.833 14.5 -23.5s21.167 -3.16699 34.5 1.5v-5
c-16 -4.66699 -29 -4.66699 -39 0s-15 13.667 -15 27h1c0 5.33301 1 10 3 14s4.66699 8 8 12l12 15c5.33301 6.66699 10.666 12.667 15.999 18c-10.667 -5.33301 -22 -8 -34 -8c-21.333 0 -39.166 7.5 -53.499 22.5s-21.5 33.167 -21.5 54.5v49h6v-49
c0 -19.333 6.66699 -36 20 -50s29.666 -21 48.999 -21s35.666 7 48.999 21s20 30.667 20 50v610h6v-610c0 -23.333 -8.33301 -42.333 -25 -57z" />
    <glyph glyph-name="Iota" horiz-adv-x="88" 
d="M41 0v691h6v-691h-6z" />
    <glyph glyph-name="Itilde" horiz-adv-x="88" 
d="M125 752c-11.333 -12 -24.998 -18.502 -40.998 -19.502s-30.333 3.83301 -43 14.5c-11.333 9.33301 -24.166 13.5 -38.499 12.5s-26.166 -6.5 -35.499 -16.5l-4 4c11.333 11.333 24.666 17.5 39.999 18.5s29.666 -3.5 42.999 -13.5
c11.333 -9.33301 24.166 -13.666 38.499 -12.999s26.166 6.33398 35.499 17.001l5 -4v0zM41.002 -0.00195312v691h6v-691h-6z" />
    <glyph glyph-name="Jcircumflex" horiz-adv-x="244" 
d="M142 724h-7l50 55h7l50 -55h-8l-46 51zM41 126h6v-49c0 -19.333 6.66699 -36 20 -50s29.666 -21 48.999 -21s35.666 7 48.999 21s20 30.667 20 50v610h6v-610c0 -21.333 -7.16699 -39.5 -21.5 -54.5s-32.166 -22.5 -53.499 -22.5s-39.166 7.5 -53.499 22.5
s-21.5 33.167 -21.5 54.5v49z" />
    <glyph glyph-name="Kappa" horiz-adv-x="205" 
d="M185 0l-138 322v-322h-6v690h6v-352l138 352h5l-141 -360l141 -330h-5z" />
    <glyph glyph-name="Kcedilla" horiz-adv-x="211" 
d="M185 0l-138 322v-322h-6v690h6v-352l138 352h5l-141 -360l141 -330h-5zM145 -43c0 -13.333 -4.99902 -24.835 -14.999 -34.502s-22.667 -14.5 -38 -14.5v5c13.333 0 24.666 4.33301 33.999 13s14 19 14 31c0 11.333 -4.33301 21.333 -13 30s-19 13.667 -31 15v5
c13.333 -1.33301 24.833 -6.66602 34.5 -15.999s14.5 -20.666 14.5 -33.999z" />
    <glyph glyph-name="Lacute" horiz-adv-x="224" 
d="M102 630h-7l50 60h8zM47 0h-6v6v684h6v-684h136v-6h-136z" />
    <glyph glyph-name="Lambda" horiz-adv-x="192" 
d="M27 0h-5l72 690h5l71 -690h-5l-69 662z" />
    <glyph glyph-name="Lcaron" horiz-adv-x="224" 
d="M111 586h-6l22 55v49h6v-49zM47 0h-6v6v684h6v-684h136v-6h-136z" />
    <glyph glyph-name="Ldot" horiz-adv-x="224" 
d="M122 327v49h5v-49h-5zM47 0h-6v6v684h6v-684h136v-6h-136z" />
    <glyph glyph-name="Mu" horiz-adv-x="281" 
d="M41 -2v692h6l93 -670l94 670h5v-692h-5v656l-91 -654h-6l-90 649v-651h-6z" />
    <glyph glyph-name="Nacute" horiz-adv-x="231" 
d="M94 720h-8l50 59h8zM41 0v690h6l138 -666v666h5v-689v-1h-5l-138 662v-662h-6z" />
    <glyph glyph-name="Ncaron" horiz-adv-x="231" 
d="M112 724l-51 55h8l46 -52l47 52h7l-51 -55h-6zM41 0v690h6l138 -666v666h5v-689v-1h-5l-138 662v-662h-6z" />
    <glyph glyph-name="Nu" horiz-adv-x="231" 
d="M41 0v690h6l138 -666v666h5v-689v-1h-5l-138 662v-662h-6z" />
    <glyph glyph-name="Obreve" 
d="M186 779c0 -21.333 -6.33301 -37.166 -19 -47.499s-29.667 -15.5 -51 -15.5s-38.333 5.16699 -51 15.5s-19 26.166 -19 47.499h5c0 -19.333 6 -33.666 18 -42.999s27.667 -14 47 -14s35 4.66699 47 14s18 23.666 18 42.999h5v0zM47 77c0 -19.333 6.66699 -36 20 -50
s29.666 -21 48.999 -21s35.666 7 48.999 21s20 30.667 20 50v536c0 19.333 -6.66699 36 -20 50s-29.666 21 -48.999 21s-35.666 -7 -48.999 -21s-20 -30.667 -20 -50v-536v0zM191 77c0 -21.333 -7.16699 -39.5 -21.5 -54.5s-32.166 -22.5 -53.499 -22.5
s-39.166 7.5 -53.499 22.5s-21.5 33.167 -21.5 54.5v536c0 21.333 7.16699 39.5 21.5 54.5s32.166 22.5 53.499 22.5s39.166 -7.5 53.499 -22.5s21.5 -33.167 21.5 -54.5v-536v0z" />
    <glyph glyph-name="Odblacute" 
d="M125 720h-7l49 59h9zM65 720h-8l50 59h8zM47 77c0 -19.333 6.66699 -36 20 -50s29.666 -21 48.999 -21s35.666 7 48.999 21s20 30.667 20 50v536c0 19.333 -6.66699 36 -20 50s-29.666 21 -48.999 21s-35.666 -7 -48.999 -21s-20 -30.667 -20 -50v-536v0zM191 77
c0 -21.333 -7.16699 -39.5 -21.5 -54.5s-32.166 -22.5 -53.499 -22.5s-39.166 7.5 -53.499 22.5s-21.5 33.167 -21.5 54.5v536c0 21.333 7.16699 39.5 21.5 54.5s32.166 22.5 53.499 22.5s39.166 -7.5 53.499 -22.5s21.5 -33.167 21.5 -54.5v-536v0z" />
    <glyph glyph-name="Omacron" 
d="M65 749l-1 6h104v-6h-103zM47 77c0 -19.333 6.66699 -36 20 -50s29.666 -21 48.999 -21s35.666 7 48.999 21s20 30.667 20 50v536c0 19.333 -6.66699 36 -20 50s-29.666 21 -48.999 21s-35.666 -7 -48.999 -21s-20 -30.667 -20 -50v-536v0zM191 77
c0 -21.333 -7.16699 -39.5 -21.5 -54.5s-32.166 -22.5 -53.499 -22.5s-39.166 7.5 -53.499 22.5s-21.5 33.167 -21.5 54.5v536c0 21.333 7.16699 39.5 21.5 54.5s32.166 22.5 53.499 22.5s39.166 -7.5 53.499 -22.5s21.5 -33.167 21.5 -54.5v-536v0z" />
    <glyph glyph-name="Omega" horiz-adv-x="238" 
d="M232 1c-10 5.33301 -21.166 8.33301 -33.499 9s-23.833 -2 -34.5 -8v7c16.667 13.333 25 31.333 25 54v550c0 19.333 -6.83301 36 -20.5 50s-30.167 21 -49.5 21s-35.666 -7 -48.999 -21s-20 -30.667 -20 -50v-550c0 -10.667 2.16699 -20.667 6.5 -30
s10.166 -17.333 17.499 -24v-7c-10.667 6 -22 8.66699 -34 8s-23.333 -3.66699 -34 -9v6c9.33301 4 18.5 7 27.5 9s18.167 1.66699 27.5 -1c-5.33301 6.66699 -9.5 14 -12.5 22s-4.5 16.667 -4.5 26v550c0 21.333 7.33301 39.5 22 54.5s32.334 22.5 53.001 22.5
c21.333 0 39.166 -7.5 53.499 -22.5s21.5 -33.167 21.5 -54.5v-550c0 -18.667 -5.66699 -34.667 -17 -48c9.33301 2.66699 18.666 3 27.999 1s18.333 -5 27 -9v-6v0z" />
    <glyph glyph-name="Omicron" 
d="M47 77c0 -19.333 6.66699 -36 20 -50s29.666 -21 48.999 -21s35.666 7 48.999 21s20 30.667 20 50v536c0 19.333 -6.66699 36 -20 50s-29.666 21 -48.999 21s-35.666 -7 -48.999 -21s-20 -30.667 -20 -50v-536v0zM191 77c0 -21.333 -7.16699 -39.5 -21.5 -54.5
s-32.166 -22.5 -53.499 -22.5s-39.166 7.5 -53.499 22.5s-21.5 33.167 -21.5 54.5v536c0 21.333 7.16699 39.5 21.5 54.5s32.166 22.5 53.499 22.5s39.166 -7.5 53.499 -22.5s21.5 -33.167 21.5 -54.5v-536v0z" />
    <glyph glyph-name="Pi" horiz-adv-x="224" 
d="M41 0v684v6h6h130h6v-6v-684h-6v684h-130v-684h-6z" />
    <glyph glyph-name="Psi" horiz-adv-x="239" 
d="M117 0l0.00195312 691h6v-372c19.333 0 35.666 7 48.999 21s20 31 20 51v299h6v-299c0 -21.333 -7.33301 -39.5 -22 -54.5s-32.334 -22.5 -53.001 -22.5v-314h-6zM116.002 314c-21.333 0 -39.166 7.5 -53.499 22.5s-21.5 33.167 -21.5 54.5v299h6v-299
c0 -20 6.66699 -37 20 -51s29.666 -21 48.999 -21v-5v0z" />
    <glyph glyph-name="Racute" horiz-adv-x="225" 
d="M91 720h-8l50 59h8zM109 355c19.333 0 35.666 6.83301 48.999 20.5s20 30.5 20 50.5v187c0 19.333 -6.66699 36 -20 50s-29.666 21 -48.999 21h-62v-329h62zM41 0l-0.00195312 349.002v6v329v6h6h62c20.667 0 38.334 -7.5 53.001 -22.5s22 -33.167 22 -54.5v-187
c0 -17.333 -5.16699 -32.833 -15.5 -46.5s-23.5 -22.834 -39.5 -27.501c16 -4.66699 29.167 -13.834 39.5 -27.501s15.5 -29.167 15.5 -46.5v-278h-6v278c0 19.333 -6.66699 36 -20 50s-29.666 21 -48.999 21h-62v-349h-6z" />
    <glyph glyph-name="Rcaron" horiz-adv-x="225" 
d="M109 724l-50 55h7l46 -51l46 51h8l-50 -55h-7zM109 355c19.333 0 35.666 6.83301 48.999 20.5s20 30.5 20 50.5v187c0 19.333 -6.66699 36 -20 50s-29.666 21 -48.999 21h-62v-329h62zM41 0l-0.00195312 349.002v6v329v6h6h62c20.667 0 38.334 -7.5 53.001 -22.5
s22 -33.167 22 -54.5v-187c0 -17.333 -5.16699 -32.833 -15.5 -46.5s-23.5 -22.834 -39.5 -27.501c16 -4.66699 29.167 -13.834 39.5 -27.501s15.5 -29.167 15.5 -46.5v-278h-6v278c0 19.333 -6.66699 36 -20 50s-29.666 21 -48.999 21h-62v-349h-6z" />
    <glyph glyph-name="Rho" horiz-adv-x="225" 
d="M109 355c19.333 0 35.666 6.83301 48.999 20.5s20 30.5 20 50.5v187c0 19.333 -6.66699 36 -20 50s-29.666 21 -48.999 21h-62v-329h62zM41 0v349v6v329v6h6h62c20.667 0 38.334 -7.5 53.001 -22.5s22 -33.167 22 -54.5v-187c0 -21.333 -7.33301 -39.5 -22 -54.5
s-32.334 -22.5 -53.001 -22.5h-62v-349h-6z" />
    <glyph glyph-name="Sacute" 
d="M94 720h-7l50 59h8zM41 126l6 0.00195312v-49c0 -19.333 6.66699 -36 20 -50s29.666 -21 48.999 -21s35.666 7 48.999 21s20 30.667 20 50v204c0 22 -9 40.333 -27 55c-5.33301 4.66699 -11.5 8.5 -18.5 11.5l-21.5 9.5c-13.333 5.33301 -23.5 9.66602 -30.5 12.999
s-13.833 7.66602 -20.5 12.999c-17.333 15.333 -26 35 -26 59v171c0 21.333 7.16699 39.5 21.5 54.5s32.166 22.5 53.499 22.5s39.166 -7.5 53.499 -22.5s21.5 -33.167 21.5 -54.5v-49h-6v49c0 19.333 -6.66699 36 -20 50s-29.666 21 -48.999 21s-35.666 -7 -48.999 -21
s-20 -30.667 -20 -50v-171c0 -22.667 8 -41 24 -55c6 -5.33301 13 -9.5 21 -12.5s16.667 -6.5 26 -10.5l24.5 -11.5c6.33301 -3 12.833 -6.83301 19.5 -11.5c9.33301 -7.33301 16.5 -16 21.5 -26s7.5 -21.333 7.5 -34v-204c0 -21.333 -7.16699 -39.5 -21.5 -54.5
s-32.166 -22.5 -53.499 -22.5s-39.166 7.5 -53.499 22.5s-21.5 33.167 -21.5 54.5v49z" />
    <glyph glyph-name="Scedilla" 
d="M152 -43c0 -13.333 -4.99902 -24.8281 -14.999 -34.4951s-22.333 -14.5 -37 -14.5v5c13.333 0 24.5 4.33301 33.5 13s13.5 19 13.5 31c0 10 -3.33301 19 -10 27s-14.667 13.333 -24 16c-20 1.33301 -37 9.16602 -51 23.499s-21 32.166 -21 53.499v49h6v-49
c0 -19.333 6.66699 -36 20 -50s29.666 -21 48.999 -21s35.666 7 48.999 21s20 30.667 20 50v204c0 22 -9 40.333 -27 55c-5.33301 4.66699 -11.5 8.5 -18.5 11.5l-21.5 9.5c-13.333 5.33301 -23.5 9.66602 -30.5 12.999s-13.833 7.66602 -20.5 12.999
c-17.333 15.333 -26 35 -26 59v171c0 21.333 7.16699 39.5 21.5 54.5s32.166 22.5 53.499 22.5s39.166 -7.5 53.499 -22.5s21.5 -33.167 21.5 -54.5v-49h-6v49c0 19.333 -6.66699 36 -20 50s-29.666 21 -48.999 21s-35.666 -7 -48.999 -21s-20 -30.667 -20 -50v-171
c0 -22.667 8 -41 24 -55c6 -5.33301 13 -9.5 21 -12.5s16.667 -6.5 26 -10.5l24.5 -11.5c6.33301 -3 12.833 -6.83301 19.5 -11.5c9.33301 -7.33301 16.5 -16 21.5 -26s7.5 -21.333 7.5 -34v-204c0 -19.333 -6.16699 -36.333 -18.5 -51s-28.166 -23 -47.499 -25
c8 -4.66699 14.5 -10.834 19.5 -18.501s7.5 -16.167 7.5 -25.5z" />
    <glyph glyph-name="Scircumflex" 
d="M69 724h-7l51 55h6l51 -55h-7l-47 52zM41 126l6 0.00195312v-49c0 -19.333 6.66699 -36 20 -50s29.666 -21 48.999 -21s35.666 7 48.999 21s20 30.667 20 50v204c0 22 -9 40.333 -27 55c-5.33301 4.66699 -11.5 8.5 -18.5 11.5l-21.5 9.5
c-13.333 5.33301 -23.5 9.66602 -30.5 12.999s-13.833 7.66602 -20.5 12.999c-17.333 15.333 -26 35 -26 59v171c0 21.333 7.16699 39.5 21.5 54.5s32.166 22.5 53.499 22.5s39.166 -7.5 53.499 -22.5s21.5 -33.167 21.5 -54.5v-49h-6v49c0 19.333 -6.66699 36 -20 50
s-29.666 21 -48.999 21s-35.666 -7 -48.999 -21s-20 -30.667 -20 -50v-171c0 -22.667 8 -41 24 -55c6 -5.33301 13 -9.5 21 -12.5s16.667 -6.5 26 -10.5l24.5 -11.5c6.33301 -3 12.833 -6.83301 19.5 -11.5c9.33301 -7.33301 16.5 -16 21.5 -26s7.5 -21.333 7.5 -34v-204
c0 -21.333 -7.16699 -39.5 -21.5 -54.5s-32.166 -22.5 -53.499 -22.5s-39.166 7.5 -53.499 22.5s-21.5 33.167 -21.5 54.5v49z" />
    <glyph glyph-name="Sigma" horiz-adv-x="227" 
d="M47 0h-3h-3l125 345l-125 345h3h3h139v-6h-137l122 -339l-122 -339h137v-6h-139z" />
    <glyph glyph-name="Tau" horiz-adv-x="183" 
d="M89 0v684h-69v6h143v-6h-68v-684h-6z" />
    <glyph glyph-name="Tbar" horiz-adv-x="182" 
d="M89 0v421h-54v5h54v258h-69v6h142v-6h-68v-258h53v-5h-53v-421h-5z" />
    <glyph glyph-name="Tcaron" horiz-adv-x="184" 
d="M89 724l-50 55h7l46 -51l47 51h7l-50 -55h-7zM90 0v684h-69v6h142v-6h-68v-684h-5z" />
    <glyph glyph-name="Theta" 
d="M47 77c0 -19.333 6.66699 -36 20 -50s29.666 -21 48.999 -21s35.666 7 48.999 21s20 30.667 20 50v536c0 19.333 -6.66699 36 -20 50s-29.666 21 -48.999 21s-35.666 -7 -48.999 -21s-20 -30.667 -20 -50v-536v0zM191 77c0 -21.333 -7.16699 -39.5 -21.5 -54.5
s-32.166 -22.5 -53.499 -22.5s-39.166 7.5 -53.499 22.5s-21.5 33.167 -21.5 54.5v536c0 21.333 7.16699 39.5 21.5 54.5s32.166 22.5 53.499 22.5s39.166 -7.5 53.499 -22.5s21.5 -33.167 21.5 -54.5v-536v0zM113 327v49h6v-49h-6z" />
    <glyph glyph-name="Ubreve" 
d="M113 724h-1l-50 55h7l47 -51l47 51h7l-51 -55h-6zM191 77c0 -21.333 -7.16699 -39.5 -21.5 -54.5s-32.166 -22.5 -53.499 -22.5s-39.166 7.5 -53.499 22.5s-21.5 33.167 -21.5 54.5v610h6v-610c0 -19.333 6.66699 -36 20 -50s29.666 -21 48.999 -21s35.666 7 48.999 21
s20 30.667 20 50v610h6v-610v0z" />
    <glyph glyph-name="Umacron" 
d="M65 749l-1 6h104v-6h-103zM191 77c0 -21.333 -7.16699 -39.5 -21.5 -54.5s-32.166 -22.5 -53.499 -22.5s-39.166 7.5 -53.499 22.5s-21.5 33.167 -21.5 54.5v610h6v-610c0 -19.333 6.66699 -36 20 -50s29.666 -21 48.999 -21s35.666 7 48.999 21s20 30.667 20 50v610h6
v-610v0z" />
    <glyph glyph-name="Upsilon" horiz-adv-x="192" 
d="M94 0v324l-72 366h5l69 -352l69 352h5l-71 -366v-324h-5z" />
    <glyph glyph-name="Utilde" horiz-adv-x="245" 
d="M204 752c-11.333 -12 -25.002 -18.502 -41.002 -19.502s-30.333 3.83301 -43 14.5c-11.333 9.33301 -24.166 13.5 -38.499 12.5s-26.166 -6.5 -35.499 -16.5l-5 4c11.333 11.333 24.833 17.5 40.5 18.5s29.834 -3.5 42.501 -13.5
c12 -9.33301 25.167 -13.666 39.5 -12.999s26.166 6.33398 35.499 17.001l5 -4v0zM197.998 76.998c0 -21.333 -7.33105 -39.5 -21.998 -54.5s-32.334 -22.5 -53.001 -22.5c-21.333 0 -39.333 7.5 -54 22.5s-22 33.167 -22 54.5v610h6v-610c0 -19.333 6.83301 -36 20.5 -50
s30.167 -21 49.5 -21s35.666 7 48.999 21s20 30.667 20 50v610h6v-610v0z" />
    <glyph glyph-name="Xi" horiz-adv-x="224" 
d="M41 684v6h142v-6h-142zM109 327v49h6v-49h-6zM41 0v6h142v-6h-142z" />
    <glyph glyph-name="Zacute" horiz-adv-x="231" 
d="M94 720h-7l49 59h9zM47 0h-3h-3l142 684h-139v6h141h1h4l-142 -684h138v-6h-139z" />
    <glyph glyph-name="Zdot" horiz-adv-x="231" 
d="M112 734v36h6v-36h-6zM47 0h-3h-3l142 684h-139v6h141h1h4l-142 -684h138v-6h-139z" />
    <glyph glyph-name="Zeta" horiz-adv-x="231" 
d="M47 0h-3h-3l142 684h-139v6h141h1h4l-142 -684h138v-6h-139z" />
    <glyph glyph-name="abreve" 
d="M186 611c0 -21.333 -6.33301 -37.166 -19 -47.499s-29.667 -15.5 -51 -15.5s-38.333 5.16699 -51 15.5s-19 26.166 -19 47.499h5c0 -19.333 6 -33.666 18 -42.999s27.667 -14 47 -14s35 4.66699 47 14s18 23.666 18 42.999h5v0zM47 77c0 -19.333 6.66699 -36 20 -50
s29.666 -21 48.999 -21s35.666 7 48.999 21s20 30.667 20 50v147c0 19.333 -6.66699 36 -20 50s-29.666 21 -48.999 21s-35.666 -7 -48.999 -21s-20 -30.667 -20 -50v-147v0zM185 47c-5.33301 -14 -14.333 -25.333 -27 -34s-26.667 -13 -42 -13
c-21.333 0 -39.166 7.5 -53.499 22.5s-21.5 33.167 -21.5 54.5v147c0 21.333 7.16699 39.5 21.5 54.5s32.166 22.5 53.499 22.5c15.333 0 29.333 -4.5 42 -13.5s21.667 -20.5 27 -34.5v180c0 19.333 -6.66699 36 -20 50s-29.666 21 -48.999 21s-35.666 -7 -48.999 -21
s-20 -30.667 -20 -50v-49h-6v49c0 21.333 7.16699 39.5 21.5 54.5s32.166 22.5 53.499 22.5s39.166 -7.5 53.499 -22.5s21.5 -33.167 21.5 -54.5v-209v-147v-77h-6v47v0z" />
    <glyph glyph-name="aeacute" horiz-adv-x="377" 
d="M170 551h-7l50 60h8zM336 77c0 -21.333 -7.33008 -39.498 -21.9971 -54.498s-32.334 -22.5 -53.001 -22.5c-17.333 0 -32.666 5.16699 -45.999 15.5s-22.333 23.5 -27 39.5c-4.66699 -16 -13.5 -29.167 -26.5 -39.5s-28.167 -15.5 -45.5 -15.5
c-21.333 0 -39.166 7.5 -53.499 22.5s-21.5 33.167 -21.5 54.5v147c0 21.333 7.16699 39.5 21.5 54.5s32.166 22.5 53.499 22.5c15.333 0 29.333 -4.33301 42 -13s21.667 -20 27 -34v179c0 1.33301 0.166992 2.16602 0.5 2.49902s0.166016 1.16602 -0.500977 2.49902
c-1.33301 18.667 -8.5 34.334 -21.5 47.001s-28.833 19 -47.5 19c-19.333 0 -35.666 -7 -48.999 -21s-20 -30.667 -20 -50v-49h-6v49c0 21.333 7.16699 39.5 21.5 54.5s32.166 22.5 53.499 22.5c17.333 0 32.5 -5.16699 45.5 -15.5s21.833 -23.5 26.5 -39.5
c4.66699 16 13.667 29.167 27 39.5s28.666 15.5 45.999 15.5c20.667 0 38.334 -7.5 53.001 -22.5s22 -33.167 22 -54.5v-150v-5h-6h-139v-54v-147v-5c1.33301 -18.667 8.66602 -34.334 21.999 -47.001s29.333 -19 48 -19c19.333 0 35.666 7 48.999 21s20 30.667 20 50v49h6
v-49v0zM330.003 433.002c0 19.333 -6.66895 36.001 -20.002 50.001s-29.666 21 -48.999 21c-18.667 0 -34.667 -6.33301 -48 -19s-20.666 -28.334 -21.999 -47.001v-5v-150h139v150zM185.001 72.0029c0.666992 1.33301 0.833008 2.16699 0.5 2.5s-0.5 1.16602 -0.5 2.49902
v147v6c0 18 -7 33.333 -21 46s-30 19 -48 19c-19.333 0 -35.666 -7 -48.999 -21s-20 -30.667 -20 -50v-147c0 -19.333 6.66699 -36 20 -50s29.666 -21 48.999 -21c18.667 0 34.5 6.33301 47.5 19s20.167 28.334 21.5 47.001z" />
    <glyph glyph-name="afii08941" 
d="M47 0h-6v6v258v6v125v5v213c0 21.333 7.16699 39.5 21.5 54.5s32.166 22.5 53.499 22.5s39.166 -7.5 53.499 -22.5s21.5 -33.167 21.5 -54.5v-49h-6v49c0 19.333 -6.66699 36 -20 50s-29.666 21 -48.999 21s-35.666 -7 -48.999 -21s-20 -30.667 -20 -50v-213h113v-5h-113
v-125h113v-6h-113v-258h136v-6h-136z" />
    <glyph glyph-name="afii10024" horiz-adv-x="239" 
d="M192 0v272.001c0 20 -6.66699 37 -20 51s-29.666 21 -48.999 21v-344h-6v691h6v-341c19.333 0 35.666 7 48.999 21s20 31 20 51v268h6v-268c0 -18 -5.16699 -33.833 -15.5 -47.5s-23.5 -22.834 -39.5 -27.501c16 -4.66699 29.167 -14 39.5 -28s15.5 -29.667 15.5 -47
v-272h-6zM41 0.000976562v271.999c0 17.333 5.16699 33 15.5 47s23.5 23.333 39.5 28c-16 4.66699 -29.167 13.834 -39.5 27.501s-15.5 29.5 -15.5 47.5v268h6v-268c0 -20 6.66699 -37 20 -51s29.666 -21 48.999 -21v-6c-19.333 0 -35.666 -7 -48.999 -21s-20 -31 -20 -51
v-272h-6z" />
    <glyph glyph-name="afii10025" 
d="M116 0c-21.333 0 -39.166 7.5 -53.499 22.5s-21.5 33.167 -21.5 54.5h6c0 -19.333 6.66699 -36 20 -50s29.666 -21 48.999 -21s35.666 7 48.999 21s20 30.667 20 50v225c0 19.333 -6.66699 36 -20 50s-29.666 21 -48.999 21h-31v6h31c19.333 0 35.666 7 48.999 21
s20 31 20 51v162c0 19.333 -6.66699 36 -20 50s-29.666 21 -48.999 21s-35.666 -7 -48.999 -21s-20 -30.667 -20 -50h-6c0 21.333 7.16699 39.5 21.5 54.5s32.166 22.5 53.499 22.5s39.166 -7.5 53.499 -22.5s21.5 -33.167 21.5 -54.5v-162
c0 -17.333 -5.16699 -33 -15.5 -47s-23.5 -23.333 -39.5 -28c16 -4.66699 29.167 -13.667 39.5 -27s15.5 -29 15.5 -47v-225c0 -21.333 -7.16699 -39.5 -21.5 -54.5s-32.166 -22.5 -53.499 -22.5z" />
    <glyph glyph-name="afii10026" horiz-adv-x="231" 
d="M41 0v1v689h5v-666l138 666h6v-690h-6v662l-138 -662h-5z" />
    <glyph glyph-name="afii10047" 
d="M41 126h6v-49c0 -19.333 6.66699 -36 20 -50s29.666 -21 48.999 -21s35.666 7 48.999 21s20 30.667 20 50v273h-131v5h131v258c0 19.333 -6.66699 36 -20 50s-29.666 21 -48.999 21s-35.666 -7 -48.999 -21s-20 -30.667 -20 -50v-49h-6v49
c0 21.333 7.16699 39.5 21.5 54.5s32.166 22.5 53.499 22.5s39.166 -7.5 53.499 -22.5s21.5 -33.167 21.5 -54.5v-536c0 -21.333 -7.16699 -39.5 -21.5 -54.5s-32.166 -22.5 -53.499 -22.5s-39.166 7.5 -53.499 22.5s-21.5 33.167 -21.5 54.5v49z" />
    <glyph glyph-name="afii10048" horiz-adv-x="257" 
d="M104 77c0 -19.333 4 -36 12 -50s21.667 -21 41 -21s33 7 41 21s12 30.667 12 50v536c0 19.333 -4 36 -12 50s-21.667 21 -41 21s-33 -7 -41 -21s-12 -30.667 -12 -50v-536v0zM216 77c0 -21.333 -4.5 -39.5 -13.5 -54.5s-24.167 -22.5 -45.5 -22.5s-36.5 7.5 -45.5 22.5
s-13.5 33.167 -13.5 54.5v273h-51v-350h-6v690h6v-335h51v258c0 21.333 4.5 39.5 13.5 54.5s24.167 22.5 45.5 22.5s36.5 -7.5 45.5 -22.5s13.5 -33.167 13.5 -54.5v-536v0z" />
    <glyph glyph-name="afii10049" horiz-adv-x="225" 
d="M47 426c0 -20 6.66699 -36.833 20 -50.5s29.666 -20.5 48.999 -20.5h62v329h-62c-19.333 0 -35.666 -7 -48.999 -21s-20 -30.667 -20 -50v-187v0zM47 0h-6l75 349c-21.333 0 -39.166 7.5 -53.499 22.5s-21.5 33.167 -21.5 54.5v187c0 21.333 7.16699 39.5 21.5 54.5
s32.166 22.5 53.499 22.5h62h6v-6v-329v-6v-349h-6v349h-56z" />
    <glyph glyph-name="afii10053" 
d="M191 77c0 -21.333 -7.16699 -39.5 -21.5 -54.5s-32.166 -22.5 -53.499 -22.5s-39.166 7.5 -53.499 22.5s-21.5 33.167 -21.5 54.5v536c0 21.333 7.16699 39.5 21.5 54.5s32.166 22.5 53.499 22.5s39.166 -7.5 53.499 -22.5s21.5 -33.167 21.5 -54.5v-49h-6v49
c0 19.333 -6.66699 36 -20 50s-29.666 21 -48.999 21s-35.666 -7 -48.999 -21s-20 -30.667 -20 -50v-258h95v-5h-95v-273c0 -19.333 6.66699 -36 20 -50s29.666 -21 48.999 -21s35.666 7 48.999 21s20 30.667 20 50v49h6v-49v0z" />
    <glyph glyph-name="afii10054" 
d="M41 126l6 0.00195312v-49c0 -19.333 6.66699 -36 20 -50s29.666 -21 48.999 -21s35.666 7 48.999 21s20 30.667 20 50v204c0 22 -9 40.333 -27 55c-5.33301 4.66699 -11.5 8.5 -18.5 11.5l-21.5 9.5c-13.333 5.33301 -23.5 9.66602 -30.5 12.999
s-13.833 7.66602 -20.5 12.999c-17.333 15.333 -26 35 -26 59v171c0 21.333 7.16699 39.5 21.5 54.5s32.166 22.5 53.499 22.5s39.166 -7.5 53.499 -22.5s21.5 -33.167 21.5 -54.5v-49h-6v49c0 19.333 -6.66699 36 -20 50s-29.666 21 -48.999 21s-35.666 -7 -48.999 -21
s-20 -30.667 -20 -50v-171c0 -22.667 8 -41 24 -55c6 -5.33301 13 -9.5 21 -12.5s16.667 -6.5 26 -10.5l24.5 -11.5c6.33301 -3 12.833 -6.83301 19.5 -11.5c9.33301 -7.33301 16.5 -16 21.5 -26s7.5 -21.333 7.5 -34v-204c0 -21.333 -7.16699 -39.5 -21.5 -54.5
s-32.166 -22.5 -53.499 -22.5s-39.166 7.5 -53.499 22.5s-21.5 33.167 -21.5 54.5v49z" />
    <glyph glyph-name="afii10059" horiz-adv-x="376" 
d="M190 77c0 -19.333 6.83301 -36 20.5 -50s30.167 -21 49.5 -21s35.666 7 48.999 21s20 30.667 20 50v192c0 19.333 -6.66699 36 -20 50s-29.666 21 -48.999 21s-35.833 -7 -49.5 -21s-20.5 -30.667 -20.5 -50v-192v0zM335 77c0 -21.333 -7.33301 -39.5 -22 -54.5
s-32.334 -22.5 -53.001 -22.5c-16 0 -30.333 4.5 -43 13.5s-21.667 20.833 -27 35.5v-49h-5v77v192v81h-138v-350h-6v690h6v-335h138v335h5v-394c5.33301 14.667 14.333 26.667 27 36s27 14 43 14c20.667 0 38.334 -7.5 53.001 -22.5s22 -33.167 22 -54.5v-192v0z" />
    <glyph glyph-name="afii10060" horiz-adv-x="273" 
d="M233 0l-0.000976562 373c0 20 -6.83301 36.833 -20.5 50.5s-30.167 20.5 -49.5 20.5s-35.666 -6.83301 -48.999 -20.5s-20 -30.5 -20 -50.5v-373h-6v373v311h-68v6h142v-6h-68v-281c5.33301 14 14.333 25.333 27 34s26.667 13 42 13c21.333 0 39.333 -7.5 54 -22.5
s22 -33.167 22 -54.5v-373h-6z" />
    <glyph glyph-name="afii10145" horiz-adv-x="224" 
d="M109 0v252h-62h-6v5v433h6v-433h130v433h6v-433v-5h-6h-62v-252h-6z" />
    <glyph glyph-name="afii61248" horiz-adv-x="428" 
d="M147 163h-7l147 363h6zM191 449c0 -21.333 -7.16699 -39.333 -21.5 -54s-32.166 -22 -53.499 -22s-39.166 7.33301 -53.499 22s-21.5 32.667 -21.5 54v160c0 21.333 7.16699 39.5 21.5 54.5s32.166 22.5 53.499 22.5s39.166 -7.5 53.499 -22.5s21.5 -33.167 21.5 -54.5
h-6c0 20 -6.66699 37 -20 51s-29.666 21 -48.999 21s-35.666 -7 -48.999 -21s-20 -31 -20 -51v-160c0 -19.333 6.66699 -36 20 -50s29.666 -21 48.999 -21s35.666 7 48.999 21s20 30.667 20 50h6v0zM242 77c0 -19.333 6.66699 -36 20 -50s29.666 -21 48.999 -21
s35.833 7 49.5 21s20.5 30.667 20.5 50v160c0 19.333 -6.83301 36 -20.5 50s-30.167 21 -49.5 21s-35.666 -7 -48.999 -21s-20 -30.667 -20 -50v-160v0zM386 77c0 -21.333 -7.16699 -39.5 -21.5 -54.5s-32.166 -22.5 -53.499 -22.5c-20.667 0 -38.334 7.5 -53.001 22.5
s-22 33.167 -22 54.5v160c0 21.333 7.33301 39.5 22 54.5s32.334 22.5 53.001 22.5c21.333 0 39.166 -7.5 53.499 -22.5s21.5 -33.167 21.5 -54.5v-160v0z" />
    <glyph glyph-name="afii61289" horiz-adv-x="262" 
d="M84 304l110 106c14 12.667 21 29 21 49v146c0 20 -5.33301 36.833 -16 50.5s-25.667 20.5 -45 20.5s-35.833 -6.83301 -49.5 -20.5s-20.5 -30.5 -20.5 -50.5v-301zM154 0c-21.333 0 -39.333 7.5 -54 22.5s-22 33.167 -22 54.5v213l-37 -37v8l37 37v307
c0 21.333 7.33301 39.5 22 54.5s32.667 22.5 54 22.5c20.667 0 37 -7.5 49 -22.5s18 -33.167 18 -54.5v-146c0 -10 -2 -19.5 -6 -28.5s-9.33301 -16.833 -16 -23.5l-115 -112v-218c0 -19.333 6.83301 -36 20.5 -50s30.167 -21 49.5 -21v-6v0z" />
    <glyph glyph-name="afii61352" horiz-adv-x="424" 
d="M383 607c0 -21.333 -7.16699 -39.5 -21.5 -54.5s-32.166 -22.5 -53.499 -22.5s-39.166 7.5 -53.499 22.5s-21.5 33.167 -21.5 54.5s7.16699 39.666 21.5 54.999s32.166 23 53.499 23s39.166 -7.66699 53.499 -23s21.5 -33.666 21.5 -54.999zM377 607
c0 20 -6.66699 37 -20 51s-29.666 21 -48.999 21s-35.666 -7 -48.999 -21s-20 -31 -20 -51c0 -19.333 6.66699 -36 20 -50s29.666 -21 48.999 -21s35.666 7 48.999 21s20 30.667 20 50zM237 489v5h142v-5h-142zM41 0v690h6l138 -666v666h5v-689v-1h-5l-138 662v-662h-6z" />
    <glyph glyph-name="alpha" horiz-adv-x="235" 
d="M232 2c-22.667 9.33301 -37.334 26.334 -44.001 51.001c-5.33301 -15.333 -14.333 -28 -27 -38s-27.667 -15 -45 -15c-21.333 0 -39.166 7.5 -53.499 22.5s-21.5 33.167 -21.5 54.5v356c0 21.333 7.16699 39.5 21.5 54.5s32.166 22.5 53.499 22.5
c17.333 0 32.333 -5 45 -15s21.667 -22.667 27 -38c3.33301 11.333 8.83301 21.333 16.5 30s16.834 15.334 27.501 20.001v-7c-12 -5.33301 -21.833 -13.833 -29.5 -25.5s-11.5 -24.834 -11.5 -39.501v-2v-356v-3c0 -14.667 3.83301 -27.834 11.5 -39.501
s17.5 -20.167 29.5 -25.5v-7v0zM185 433.001c0 19.333 -6.66699 36 -20 50s-29.666 21 -48.999 21s-35.666 -7 -48.999 -21s-20 -30.667 -20 -50v-356c0 -19.333 6.66699 -36 20 -50s29.666 -21 48.999 -21s35.666 7 48.999 21s20 30.667 20 50v356z" />
    <glyph glyph-name="alphatonos" horiz-adv-x="234" 
d="M115 551h-7l50 60h8zM232 2c-22.667 9.33301 -37.334 26.334 -44.001 51.001c-5.33301 -15.333 -14.333 -28 -27 -38s-27.667 -15 -45 -15c-21.333 0 -39.166 7.5 -53.499 22.5s-21.5 33.167 -21.5 54.5v356c0 21.333 7.16699 39.5 21.5 54.5s32.166 22.5 53.499 22.5
c17.333 0 32.333 -5 45 -15s21.667 -22.667 27 -38c3.33301 11.333 8.83301 21.333 16.5 30s16.834 15.334 27.501 20.001v-7c-12 -5.33301 -21.833 -13.833 -29.5 -25.5s-11.5 -24.834 -11.5 -39.501v-2v-356v-3c0 -14.667 3.83301 -27.834 11.5 -39.501
s17.5 -20.167 29.5 -25.5v-7v0zM185 433.001c0 19.333 -6.66699 36 -20 50s-29.666 21 -48.999 21s-35.666 -7 -48.999 -21s-20 -30.667 -20 -50v-356c0 -19.333 6.66699 -36 20 -50s29.666 -21 48.999 -21s35.666 7 48.999 21s20 30.667 20 50v356z" />
    <glyph glyph-name="aogonek" horiz-adv-x="250" 
d="M47 77c0 -19.333 6.66699 -36 20 -50s29.666 -21 48.999 -21s35.666 7 48.999 21s20 30.667 20 50v147c0 19.333 -6.66699 36 -20 50s-29.666 21 -48.999 21s-35.666 -7 -48.999 -21s-20 -30.667 -20 -50v-147v0zM209 -78c-16.667 -4.66699 -29.832 -4.66699 -39.499 0
s-14.5 13.667 -14.5 27c0 5.33301 1.16699 10 3.5 14s5.16602 8 8.49902 12l10 14l8 11v47c-5.33301 -14 -14.333 -25.333 -27 -34s-26.667 -13 -42 -13c-21.333 0 -39.166 7.5 -53.499 22.5s-21.5 33.167 -21.5 54.5v147c0 21.333 7.16699 39.5 21.5 54.5
s32.166 22.5 53.499 22.5c15.333 0 29.333 -4.5 42 -13.5s21.667 -20.5 27 -34.5v180c0 19.333 -6.66699 36 -20 50s-29.666 21 -48.999 21s-35.666 -7 -48.999 -21s-20 -30.667 -20 -50v-49h-6v49c0 21.333 7.16699 39.5 21.5 54.5s32.166 22.5 53.499 22.5
s39.166 -7.5 53.499 -22.5s21.5 -33.167 21.5 -54.5v-209v-147v-77c-2 -3.33301 -4.33301 -6.66602 -7 -9.99902c-4.66699 -7.33301 -9 -13.333 -13 -18c-3.33301 -3.33301 -6 -6.83301 -8 -10.5s-3 -7.83398 -3 -12.501c0 -12 4.83301 -19.833 14.5 -23.5
s21.167 -3.16699 34.5 1.5v-5v0z" />
    <glyph glyph-name="cacute" 
d="M94 551h-7l51 60h7zM191 77c0 -21.333 -7.16699 -39.5 -21.5 -54.5s-32.166 -22.5 -53.499 -22.5s-39.166 7.5 -53.499 22.5s-21.5 33.167 -21.5 54.5v356c0 21.333 7.16699 39.5 21.5 54.5s32.166 22.5 53.499 22.5s39.166 -7.5 53.499 -22.5s21.5 -33.167 21.5 -54.5
v-49h-6v49c0 19.333 -6.66699 36 -20 50s-29.666 21 -48.999 21s-35.666 -7 -48.999 -21s-20 -30.667 -20 -50v-356c0 -19.333 6.66699 -36 20 -50s29.666 -21 48.999 -21s35.666 7 48.999 21s20 30.667 20 50v49h6v-49v0z" />
    <glyph glyph-name="ccaron" 
d="M113 555h-1l-50 55h7l47 -51l47 51h7l-51 -55h-6zM191 77c0 -21.333 -7.16699 -39.5 -21.5 -54.5s-32.166 -22.5 -53.499 -22.5s-39.166 7.5 -53.499 22.5s-21.5 33.167 -21.5 54.5v356c0 21.333 7.16699 39.5 21.5 54.5s32.166 22.5 53.499 22.5
s39.166 -7.5 53.499 -22.5s21.5 -33.167 21.5 -54.5v-49h-6v49c0 19.333 -6.66699 36 -20 50s-29.666 21 -48.999 21s-35.666 -7 -48.999 -21s-20 -30.667 -20 -50v-356c0 -19.333 6.66699 -36 20 -50s29.666 -21 48.999 -21s35.666 7 48.999 21s20 30.667 20 50v49h6v-49v0
z" />
    <glyph glyph-name="ccircumflex" 
d="M69 555h-7l50 55h1h6l51 -55h-7l-47 51zM191 77c0 -21.333 -7.16699 -39.5 -21.5 -54.5s-32.166 -22.5 -53.499 -22.5s-39.166 7.5 -53.499 22.5s-21.5 33.167 -21.5 54.5v356c0 21.333 7.16699 39.5 21.5 54.5s32.166 22.5 53.499 22.5s39.166 -7.5 53.499 -22.5
s21.5 -33.167 21.5 -54.5v-49h-6v49c0 19.333 -6.66699 36 -20 50s-29.666 21 -48.999 21s-35.666 -7 -48.999 -21s-20 -30.667 -20 -50v-356c0 -19.333 6.66699 -36 20 -50s29.666 -21 48.999 -21s35.666 7 48.999 21s20 30.667 20 50v49h6v-49v0z" />
    <glyph glyph-name="cdot" 
d="M113 567v35h6v-35h-6zM191 77c0 -21.333 -7.16699 -39.5 -21.5 -54.5s-32.166 -22.5 -53.499 -22.5s-39.166 7.5 -53.499 22.5s-21.5 33.167 -21.5 54.5v356c0 21.333 7.16699 39.5 21.5 54.5s32.166 22.5 53.499 22.5s39.166 -7.5 53.499 -22.5s21.5 -33.167 21.5 -54.5
v-49h-6v49c0 19.333 -6.66699 36 -20 50s-29.666 21 -48.999 21s-35.666 -7 -48.999 -21s-20 -30.667 -20 -50v-356c0 -19.333 6.66699 -36 20 -50s29.666 -21 48.999 -21s35.666 7 48.999 21s20 30.667 20 50v49h6v-49v0z" />
    <glyph glyph-name="dcaron" horiz-adv-x="274" 
d="M47 77c0 -19.333 6.66699 -36 20 -50s29.666 -21 48.999 -21s35.666 7 48.999 21s20 30.667 20 50v356c0 19.333 -6.66699 36 -20 50s-29.666 21 -48.999 21s-35.666 -7 -48.999 -21s-20 -30.667 -20 -50v-356v0zM185 47c-5.33301 -14 -14.333 -25.333 -27 -34
s-26.667 -13 -42 -13c-21.333 0 -39.166 7.5 -53.499 22.5s-21.5 33.167 -21.5 54.5v356c0 21.333 7.16699 39.5 21.5 54.5s32.166 22.5 53.499 22.5c15.333 0 29.333 -4.5 42 -13.5s21.667 -20.167 27 -33.5v227h6h2l38 -51l38 51h7l-42 -56h-7l-36 48v-249v-356v-77h-6v47
v0z" />
    <glyph glyph-name="delta" 
d="M191 77c0 -21.333 -7.16797 -39.5 -21.501 -54.5s-32.166 -22.5 -53.499 -22.5s-39.166 7.5 -53.499 22.5s-21.5 33.167 -21.5 54.5v356c0 20 6.5 37.333 19.5 52s29.167 23 48.5 25l-65 180h3v-6h4l-2 6h141v-6h-139l63 -174h2c21.333 0 39.166 -7.5 53.499 -22.5
s21.5 -33.167 21.5 -54.5v-356v0zM184.999 433c0 19.333 -6.66699 36 -20 50s-29.666 21 -48.999 21s-35.666 -7 -48.999 -21s-20 -30.667 -20 -50v-356c0 -19.333 6.66699 -36 20 -50s29.666 -21 48.999 -21s35.666 7 48.999 21s20 30.667 20 50v356z" />
    <glyph glyph-name="dmacron" 
d="M47 77c0 -19.333 6.66699 -36 20 -50s29.666 -21 48.999 -21s35.666 7 48.999 21s20 30.667 20 50v239c0 19.333 -6.66699 36 -20 50s-29.666 21 -48.999 21s-35.666 -7 -48.999 -21s-20 -30.667 -20 -50v-239v0zM185 47c-5.33301 -14 -14.333 -25.333 -27 -34
s-26.667 -13 -42 -13c-21.333 0 -39.166 7.5 -53.499 22.5s-21.5 33.167 -21.5 54.5v239c0 21.333 7.16699 39.5 21.5 54.5s32.166 22.5 53.499 22.5c15.333 0 29.333 -4.5 42 -13.5s21.667 -20.167 27 -33.5v158h-81v6h81v180h6v-180h32v-6h-32v-188v-239v-77h-6v47v0z" />
    <glyph glyph-name="ebreve" 
d="M186 611c0 -21.333 -6.33301 -37.166 -19 -47.499s-29.667 -15.5 -51 -15.5s-38.333 5.16699 -51 15.5s-19 26.166 -19 47.499h5c0 -19.333 6 -33.666 18 -42.999s27.667 -14 47 -14s35 4.66699 47 14s18 23.666 18 42.999h5v0zM47 283h137.998v150
c0 19.333 -6.66699 36 -20 50s-29.666 21 -48.999 21s-35.666 -7 -48.999 -21s-20 -30.667 -20 -50v-150zM190.998 77c0 -21.333 -7.16504 -39.5 -21.498 -54.5s-32.166 -22.5 -53.499 -22.5s-39.166 7.5 -53.499 22.5s-21.5 33.167 -21.5 54.5v356
c0 21.333 7.16699 39.5 21.5 54.5s32.166 22.5 53.499 22.5s39.166 -7.5 53.499 -22.5s21.5 -33.167 21.5 -54.5v-150v-5h-6h-138v-201c0 -19.333 6.66699 -36 20 -50s29.666 -21 48.999 -21s35.666 7 48.999 21s20 30.667 20 50v49h6v-49v0z" />
    <glyph glyph-name="ecaron" 
d="M113 555l-51 55h7l47 -52l47 52h7l-51 -55h-6zM47 283h137.998v150c0 19.333 -6.66699 36 -20 50s-29.666 21 -48.999 21s-35.666 -7 -48.999 -21s-20 -30.667 -20 -50v-150zM190.998 77c0 -21.333 -7.16504 -39.5 -21.498 -54.5s-32.166 -22.5 -53.499 -22.5
s-39.166 7.5 -53.499 22.5s-21.5 33.167 -21.5 54.5v356c0 21.333 7.16699 39.5 21.5 54.5s32.166 22.5 53.499 22.5s39.166 -7.5 53.499 -22.5s21.5 -33.167 21.5 -54.5v-150v-5h-6h-138v-201c0 -19.333 6.66699 -36 20 -50s29.666 -21 48.999 -21s35.666 7 48.999 21
s20 30.667 20 50v49h6v-49v0z" />
    <glyph glyph-name="edot" 
d="M114 567v35h5v-35h-5zM47 283h137.998v150c0 19.333 -6.66699 36 -20 50s-29.666 21 -48.999 21s-35.666 -7 -48.999 -21s-20 -30.667 -20 -50v-150zM190.998 77c0 -21.333 -7.16504 -39.5 -21.498 -54.5s-32.166 -22.5 -53.499 -22.5s-39.166 7.5 -53.499 22.5
s-21.5 33.167 -21.5 54.5v356c0 21.333 7.16699 39.5 21.5 54.5s32.166 22.5 53.499 22.5s39.166 -7.5 53.499 -22.5s21.5 -33.167 21.5 -54.5v-150v-5h-6h-138v-201c0 -19.333 6.66699 -36 20 -50s29.666 -21 48.999 -21s35.666 7 48.999 21s20 30.667 20 50v49h6v-49v0z
" />
    <glyph glyph-name="eightinferior" 
d="M47 304c0 -20 6.66699 -37 20 -51s29.666 -21 48.999 -21s35.666 7 48.999 21s20 31 20 51v15c0 19.333 -6.66699 36 -20 50s-29.666 21 -48.999 21s-35.666 -7 -48.999 -21s-20 -30.667 -20 -50v-15v0zM47 77c0 -19.333 6.66699 -36 20 -50s29.666 -21 48.999 -21
s35.666 7 48.999 21s20 30.667 20 50v78c0 19.333 -6.66699 36 -20 50s-29.666 21 -48.999 21s-35.666 -7 -48.999 -21s-20 -30.667 -20 -50v-78v0zM116 0c-21.333 0 -39.166 7.5 -53.499 22.5s-21.5 33.167 -21.5 54.5v78c0 18 5.16699 33.667 15.5 47s23.5 22.333 39.5 27
c-16 4.66699 -29.167 14 -39.5 28s-15.5 29.667 -15.5 47v15c0 21.333 7.16699 39.333 21.5 54s32.166 22 53.499 22s39.166 -7.33301 53.499 -22s21.5 -32.667 21.5 -54v-15c0 -17.333 -5.16699 -33 -15.5 -47s-23.5 -23.333 -39.5 -28
c16 -4.66699 29.167 -13.667 39.5 -27s15.5 -29 15.5 -47v-78c0 -21.333 -7.16699 -39.5 -21.5 -54.5s-32.166 -22.5 -53.499 -22.5z" />
    <glyph glyph-name="eightsuperior" 
d="M47 590c0 -20 6.66699 -37 20 -51s29.666 -21 48.999 -21s35.666 7 48.999 21s20 31 20 51v15c0 19.333 -6.66699 36 -20 50s-29.666 21 -48.999 21s-35.666 -7 -48.999 -21s-20 -30.667 -20 -50v-15v0zM47 363c0 -19.333 6.66699 -36 20 -50s29.666 -21 48.999 -21
s35.666 7 48.999 21s20 30.667 20 50v78c0 19.333 -6.66699 36 -20 50s-29.666 21 -48.999 21s-35.666 -7 -48.999 -21s-20 -30.667 -20 -50v-78v0zM116 286c-21.333 0 -39.166 7.5 -53.499 22.5s-21.5 33.167 -21.5 54.5v78c0 17.333 5.16699 32.833 15.5 46.5
s23.5 22.834 39.5 27.501c-16 4.66699 -29.167 14 -39.5 28s-15.5 29.667 -15.5 47v15c0 21.333 7.16699 39.333 21.5 54s32.166 22 53.499 22s39.166 -7.33301 53.499 -22s21.5 -32.667 21.5 -54v-15c0 -17.333 -5.16699 -33 -15.5 -47s-23.5 -23.333 -39.5 -28
c16 -4.66699 29.167 -13.834 39.5 -27.501s15.5 -29.167 15.5 -46.5v-78c0 -21.333 -7.16699 -39.5 -21.5 -54.5s-32.166 -22.5 -53.499 -22.5z" />
    <glyph glyph-name="emacron" 
d="M65 576l-1 6h104v-6h-103zM47 283h137.998v150c0 19.333 -6.66699 36 -20 50s-29.666 21 -48.999 21s-35.666 -7 -48.999 -21s-20 -30.667 -20 -50v-150zM190.998 77c0 -21.333 -7.16504 -39.5 -21.498 -54.5s-32.166 -22.5 -53.499 -22.5s-39.166 7.5 -53.499 22.5
s-21.5 33.167 -21.5 54.5v356c0 21.333 7.16699 39.5 21.5 54.5s32.166 22.5 53.499 22.5s39.166 -7.5 53.499 -22.5s21.5 -33.167 21.5 -54.5v-150v-5h-6h-138v-201c0 -19.333 6.66699 -36 20 -50s29.666 -21 48.999 -21s35.666 7 48.999 21s20 30.667 20 50v49h6v-49v0z
" />
    <glyph glyph-name="eng" horiz-adv-x="233" 
d="M192 0c0 -21.333 -7.33301 -39.5 -22 -54.5s-32.667 -22.5 -54 -22.5v6c19.333 0 35.666 7 48.999 21s20 30.667 20 50v433c0 19.333 -6.66699 36 -20 50s-29.666 21 -48.999 21s-35.666 -7 -48.999 -21s-20 -30.667 -20 -50v-433h-6v433v77h6v-47
c5.33301 13.333 14.333 24.5 27 33.5s26.667 13.5 42 13.5c21.333 0 39.166 -7.5 53.499 -22.5s21.5 -33.167 21.5 -54.5v-433h1v0z" />
    <glyph glyph-name="eogonek" 
d="M47 283h137.998v150c0 19.333 -6.66699 36 -20 50s-29.666 21 -48.999 21s-35.666 -7 -48.999 -21s-20 -30.667 -20 -50v-150zM153.998 -78c-16 -4.66699 -28.9971 -4.66602 -38.9971 0.000976562s-15 13.667 -15 27h1c0 5.33301 1 10 3 14s4.66699 8 8 12
c3.33301 5.33301 7.16602 10.5 11.499 15.5s7.16602 8.83301 8.49902 11.5c-2.66699 -0.666992 -5.16699 -1.16699 -7.5 -1.5s-5.16602 -0.5 -8.49902 -0.5c-21.333 0 -39.166 7.5 -53.499 22.5s-21.5 33.167 -21.5 54.5v356c0 21.333 7.16699 39.5 21.5 54.5
s32.166 22.5 53.499 22.5s39.166 -7.5 53.499 -22.5s21.5 -33.167 21.5 -54.5v-150v-5h-6h-138v-201c0 -19.333 6.66699 -36 20 -50s29.666 -21 48.999 -21s35.666 7 48.999 21s20 30.667 20 50v49h6v-49c0 -17.333 -4.83301 -32.5 -14.5 -45.5s-22.167 -22.167 -37.5 -27.5
l-11.5 -16.5c-4.33301 -6.33301 -8.16602 -11.5 -11.499 -15.5c-3.33301 -3.33301 -6 -6.83301 -8 -10.5s-3 -7.83398 -3 -12.501c0 -12 4.83301 -19.833 14.5 -23.5s21.167 -3.16699 34.5 1.5v-5v0z" />
    <glyph glyph-name="epsilontonos" 
d="M95 551h-8l50 60h8zM116 0c-21.333 0 -39.166 7.49805 -53.499 22.498s-21.5 33.167 -21.5 54.5v112c0 17.333 5.16699 32.833 15.5 46.5s23.5 22.834 39.5 27.501c-16 4.66699 -29.167 13.834 -39.5 27.501s-15.5 29.167 -15.5 46.5v96c0 21.333 7.16699 39.5 21.5 54.5
s32.166 22.5 53.499 22.5s39.166 -7.5 53.499 -22.5s21.5 -33.167 21.5 -54.5h-6c0 19.333 -6.66699 36 -20 50s-29.666 21 -48.999 21s-35.666 -7 -48.999 -21s-20 -30.667 -20 -50v-96c0 -20 6.66699 -36.833 20 -50.5s29.666 -20.5 48.999 -20.5h31v-6h-31
c-19.333 0 -35.666 -7 -48.999 -21s-20 -30.667 -20 -50v-112c0 -19.333 6.66699 -36 20 -50s29.666 -21 48.999 -21s35.666 7 48.999 21s20 30.667 20 50h6c0 -21.333 -7.16699 -39.5 -21.5 -54.5s-32.166 -22.5 -53.499 -22.5z" />
    <glyph glyph-name="etatonos" 
d="M94 551h-7l50 60h8zM41 0l-0.000976562 433v77h6v-47c5.33301 13.333 14.333 24.5 27 33.5s26.667 13.5 42 13.5c21.333 0 39.166 -7.5 53.499 -22.5s21.5 -33.167 21.5 -54.5v-511h-6v511c0 19.333 -6.66699 36 -20 50s-29.666 21 -48.999 21s-35.666 -7 -48.999 -21
s-20 -30.667 -20 -50v-433h-6z" />
    <glyph glyph-name="exclamdbl" horiz-adv-x="162" 
d="M115 145v545h6v-545h-6zM41 145v545h6v-545h-6zM115 0v49h6v-49h-6zM41 0v49h6v-49h-6z" />
    <glyph glyph-name="fi2" horiz-adv-x="265" 
d="M41 0v613c0 21.333 7.16699 39.5 21.5 54.5s32.166 22.5 53.499 22.5s39.166 -7.5 53.499 -22.5s21.5 -33.167 21.5 -54.5h-6c0 19.333 -6.66699 36 -20 50s-29.666 21 -48.999 21s-35.666 -7 -48.999 -21s-20 -30.667 -20 -50v-103h171h6v-510h-6v504h-171v-504h-6z" />
    <glyph glyph-name="fiveeighths" horiz-adv-x="469" 
d="M166 0h-6l149 690h5zM283 304c0 -20 6.83301 -37 20.5 -51s30.167 -21 49.5 -21s35.666 7 48.999 21s20 31 20 51v15c0 19.333 -6.66699 36 -20 50s-29.666 21 -48.999 21s-35.833 -7 -49.5 -21s-20.5 -30.667 -20.5 -50v-15v0zM283 77c0 -19.333 6.83301 -36 20.5 -50
s30.167 -21 49.5 -21s35.666 7 48.999 21s20 30.667 20 50v78c0 19.333 -6.66699 36 -20 50s-29.666 21 -48.999 21s-35.833 -7 -49.5 -21s-20.5 -30.667 -20.5 -50v-78v0zM353 0c-21.333 0 -39.166 7.5 -53.499 22.5s-21.5 33.167 -21.5 54.5v78
c0 18 5.16699 33.667 15.5 47s23.5 22.333 39.5 27c-16 4.66699 -29.167 14 -39.5 28s-15.5 29.667 -15.5 47v15c0 21.333 7.16699 39.333 21.5 54s32.166 22 53.499 22s39.166 -7.33301 53.499 -22s21.5 -32.667 21.5 -54v-15c0 -17.333 -5.16699 -33 -15.5 -47
s-23.5 -23.333 -39.5 -28c16 -4.66699 29.167 -13.667 39.5 -27s15.5 -29 15.5 -47v-78c0 -21.333 -7.16699 -39.5 -21.5 -54.5s-32.166 -22.5 -53.499 -22.5zM116 286c-21.333 0 -39.167 7.5 -53.5 22.5s-21.5 33.167 -21.5 54.5h6c0 -19.333 6.66699 -36 20 -50
s29.666 -21 48.999 -21s35.666 7 48.999 21s20 30.667 20 50v127c0 19.333 -6.66699 36 -20 50s-29.666 21 -48.999 21s-35.666 -7 -48.999 -21s-20 -30.667 -20 -50h-6v2v184v5h6h139v-5h-139v-156c5.33301 14 14.333 25.333 27 34s26.667 13 42 13
c21.333 0 39.166 -7.5 53.499 -22.5s21.5 -33.167 21.5 -54.5v-127c0 -21.333 -7.16699 -39.5 -21.5 -54.5s-32.166 -22.5 -53.499 -22.5z" />
    <glyph glyph-name="fiveinferior" 
d="M116 0c-21.333 0 -39.167 7.5 -53.5 22.5s-21.5 33.167 -21.5 54.5h6c0 -19.333 6.66699 -36 20 -50s29.666 -21 48.999 -21s35.666 7 48.999 21s20 30.667 20 50v127c0 19.333 -6.66699 36 -20 50s-29.666 21 -48.999 21s-35.666 -7 -48.999 -21s-20 -30.667 -20 -50h-6
v2v184v5h6h139v-5h-139v-156c5.33301 14 14.333 25.333 27 34s26.667 13 42 13c21.333 0 39.166 -7.5 53.499 -22.5s21.5 -33.167 21.5 -54.5v-127c0 -21.333 -7.16699 -39.5 -21.5 -54.5s-32.166 -22.5 -53.499 -22.5z" />
    <glyph glyph-name="fivesuperior" 
d="M116 286c-21.333 0 -39.167 7.5 -53.5 22.5s-21.5 33.167 -21.5 54.5h6c0 -19.333 6.66699 -36 20 -50s29.666 -21 48.999 -21s35.666 7 48.999 21s20 30.667 20 50v127c0 19.333 -6.66699 36 -20 50s-29.666 21 -48.999 21s-35.666 -7 -48.999 -21s-20 -30.667 -20 -50
h-6v2v184v5h6h139v-5h-139v-156c5.33301 14 14.333 25.333 27 34s26.667 13 42 13c21.333 0 39.166 -7.5 53.499 -22.5s21.5 -33.167 21.5 -54.5v-127c0 -21.333 -7.16699 -39.5 -21.5 -54.5s-32.166 -22.5 -53.499 -22.5z" />
    <glyph glyph-name="fl2" horiz-adv-x="265" 
d="M41 0v613c0 21.333 7.16699 39.5 21.5 54.5s32.166 22.5 53.499 22.5s39.166 -7.5 53.499 -22.5s21.5 -33.167 21.5 -54.5h-6c0 19.333 -6.66699 36 -20 50s-29.666 21 -48.999 21s-35.666 -7 -48.999 -21s-20 -30.667 -20 -50v-103h171v180h6v-690h-6v504h-171v-504h-6z
" />
    <glyph glyph-name="fourinferior" horiz-adv-x="227" 
d="M154 87v294l-106 -294h106zM159 81v-81h-5v81h-108h-2h-3l113 316h5v-310h27v-6h-27z" />
    <glyph glyph-name="foursuperior" horiz-adv-x="227" 
d="M154 373v294l-106 -294h106zM159 367v-81h-5v81h-108h-2h-3l113 316h5v-310h27v-6h-27z" />
    <glyph glyph-name="gbreve" 
d="M190 611c0 -21.333 -6.5 -37.166 -19.5 -47.499s-30.167 -15.5 -51.5 -15.5c-20.667 0 -37.5 5.16699 -50.5 15.5s-19.5 26.166 -19.5 47.499h7c0 -19.333 5.83301 -33.666 17.5 -42.999s27.167 -14 46.5 -14s35 4.66699 47 14s18 23.666 18 42.999h5v0zM47 77
c0 -19.333 6.66699 -36 20 -50s29.666 -21 48.999 -21s35.666 7 48.999 21s20 30.667 20 50v356c0 19.333 -6.66699 36 -20 50s-29.666 21 -48.999 21s-35.666 -7 -48.999 -21s-20 -30.667 -20 -50v-356v0zM191 -103c0 -21.333 -7.16699 -39.5 -21.5 -54.5
s-32.166 -22.5 -53.499 -22.5s-39.166 7.5 -53.499 22.5s-21.5 33.167 -21.5 54.5h6c0 -19.333 6.66699 -36 20 -50s29.666 -21 48.999 -21s35.666 7 48.999 21s20 30.667 20 50v150c-5.33301 -14 -14.333 -25.333 -27 -34s-26.667 -13 -42 -13
c-21.333 0 -39.166 7.5 -53.499 22.5s-21.5 33.167 -21.5 54.5v356c0 21.333 7.16699 39.5 21.5 54.5s32.166 22.5 53.499 22.5c15.333 0 29.333 -4.5 42 -13.5s21.667 -20.167 27 -33.5v47h6v-77v-356v-180v0z" />
    <glyph glyph-name="gcedilla" 
d="M115 596v-49h-6v49l23 55h5zM185 433c0 19.333 -6.66699 36 -20 50s-29.666 21 -48.999 21s-35.666 -7 -48.999 -21s-20 -30.667 -20 -50h-6c0 21.333 7.16699 39.5 21.5 54.5s32.166 22.5 53.499 22.5s39.166 -7.5 53.499 -22.5s21.5 -33.167 21.5 -54.5h-6zM185 -103
v613h6v-613h-6zM41 77v356h6v-356h-6zM191 77c0 -21.333 -7.16699 -39.5 -21.5 -54.5s-32.166 -22.5 -53.499 -22.5s-39.166 7.5 -53.499 22.5s-21.5 33.167 -21.5 54.5h6c0 -19.333 6.66699 -36 20 -50s29.666 -21 48.999 -21s35.666 7 48.999 21s20 30.667 20 50h6v0z
M191 -103c0 -21.333 -7.16699 -39.5 -21.5 -54.5s-32.166 -22.5 -53.499 -22.5s-39.166 7.5 -53.499 22.5s-21.5 33.167 -21.5 54.5h6c0 -19.333 6.66699 -36 20 -50s29.666 -21 48.999 -21s35.666 7 48.999 21s20 30.667 20 50h6v0z" />
    <glyph glyph-name="gcircumflex" 
d="M72 555h-7l50 55h-1h1h7l50 -55h-7l-47 51zM47 77c0 -19.333 6.66699 -36 20 -50s29.666 -21 48.999 -21s35.666 7 48.999 21s20 30.667 20 50v356c0 19.333 -6.66699 36 -20 50s-29.666 21 -48.999 21s-35.666 -7 -48.999 -21s-20 -30.667 -20 -50v-356v0zM191 -103
c0 -21.333 -7.16699 -39.5 -21.5 -54.5s-32.166 -22.5 -53.499 -22.5s-39.166 7.5 -53.499 22.5s-21.5 33.167 -21.5 54.5h6c0 -19.333 6.66699 -36 20 -50s29.666 -21 48.999 -21s35.666 7 48.999 21s20 30.667 20 50v150c-5.33301 -14 -14.333 -25.333 -27 -34
s-26.667 -13 -42 -13c-21.333 0 -39.166 7.5 -53.499 22.5s-21.5 33.167 -21.5 54.5v356c0 21.333 7.16699 39.5 21.5 54.5s32.166 22.5 53.499 22.5c15.333 0 29.333 -4.5 42 -13.5s21.667 -20.167 27 -33.5v47h6v-77v-356v-180v0z" />
    <glyph glyph-name="gdot" 
d="M117 567v35h6v-35h-6zM47 77c0 -19.333 6.66699 -36 20 -50s29.666 -21 48.999 -21s35.666 7 48.999 21s20 30.667 20 50v356c0 19.333 -6.66699 36 -20 50s-29.666 21 -48.999 21s-35.666 -7 -48.999 -21s-20 -30.667 -20 -50v-356v0zM191 -103
c0 -21.333 -7.16699 -39.5 -21.5 -54.5s-32.166 -22.5 -53.499 -22.5s-39.166 7.5 -53.499 22.5s-21.5 33.167 -21.5 54.5h6c0 -19.333 6.66699 -36 20 -50s29.666 -21 48.999 -21s35.666 7 48.999 21s20 30.667 20 50v150c-5.33301 -14 -14.333 -25.333 -27 -34
s-26.667 -13 -42 -13c-21.333 0 -39.166 7.5 -53.499 22.5s-21.5 33.167 -21.5 54.5v356c0 21.333 7.16699 39.5 21.5 54.5s32.166 22.5 53.499 22.5c15.333 0 29.333 -4.5 42 -13.5s21.667 -20.167 27 -33.5v47h6v-77v-356v-180v0z" />
    <glyph glyph-name="hbar" horiz-adv-x="225" 
d="M44 0l-0.00195312 433v158h-32v5h32v94h5v-94h111v-5h-111v-128c6 13.333 15.167 24.5 27.5 33.5s26.5 13.5 42.5 13.5c20.667 0 38.334 -7.5 53.001 -22.5s22 -33.167 22 -54.5v-433h-6v433c0 19.333 -6.66699 36 -20 50s-29.666 21 -48.999 21s-35.833 -7 -49.5 -21
s-20.5 -30.667 -20.5 -50v-433h-5z" />
    <glyph glyph-name="hcircumflex" horiz-adv-x="235" 
d="M94 555h-7l49 55h8l50 -55h-8l-46 51zM41 0l-0.000976562 433v257h6v-227c5.33301 13.333 14.333 24.5 27 33.5s26.667 13.5 42 13.5c21.333 0 39.166 -7.5 53.499 -22.5s21.5 -33.167 21.5 -54.5v-433h-6v433c0 19.333 -6.66699 36 -20 50s-29.666 21 -48.999 21
s-35.666 -7 -48.999 -21s-20 -30.667 -20 -50v-433h-6z" />
    <glyph glyph-name="ibreve" horiz-adv-x="88" 
d="M114 611c0 -21.333 -6.33301 -37.166 -19 -47.499s-29.667 -15.5 -51 -15.5s-38.333 5.16699 -51 15.5s-19 26.166 -19 47.499h5c0 -19.333 6 -33.666 18 -42.999s27.667 -14 47 -14s34.833 4.66699 46.5 14s17.5 23.666 17.5 42.999h6v0zM41 0v510h5v-510h-5z" />
    <glyph glyph-name="ij" horiz-adv-x="171" 
d="M124 573v72h6v-72h-6zM41 573v72h6v-72h-6zM41 0v510h6v-510h-6zM130 -100c0 -21.333 -7.33105 -39.5 -21.998 -54.5s-32.334 -22.5 -53.001 -22.5v5c19.333 0 35.666 7 48.999 21s20 31 20 51v610h6v-610v0z" />
    <glyph glyph-name="imacron" horiz-adv-x="88" 
d="M-8 576v6h104v-6h-104zM41 0v510h6v-510h-6z" />
    <glyph glyph-name="iogonek" horiz-adv-x="99" 
d="M47 573v72h6v-72h-6zM53 -100c0 -10.667 -1.83105 -20.334 -5.49805 -29.001s-8.5 -16.667 -14.5 -24c-3.33301 -5.33301 -5 -10.666 -5 -15.999c0 -12 4.83301 -19.667 14.5 -23s21.167 -2.66602 34.5 2.00098v-6c-16.667 -4 -29.834 -3.83301 -39.501 0.5
s-14.5 13.166 -14.5 26.499h1c0 4 0.333008 6.66699 1 8c-14 -10.667 -29.667 -16 -47 -16v5c19.333 0 35.666 7 48.999 21s20 31 20 51v610h6v-610v0z" />
    <glyph glyph-name="iotatonos" horiz-adv-x="89" 
d="M22 551h-7l51 60h8zM41 0v510h6v-510h-6z" />
    <glyph glyph-name="itilde" horiz-adv-x="88" 
d="M126 584c-11.333 -12 -24.999 -18.498 -40.999 -19.498s-30.667 3.5 -44 13.5c-11.333 9.33301 -24 13.666 -38 12.999s-26 -6.33398 -36 -17.001l-5 5c11.333 11.333 24.833 17.5 40.5 18.5s30.167 -3.83301 43.5 -14.5c11.333 -9.33301 24.166 -13.5 38.499 -12.5
s26.5 6.5 36.5 16.5l5 -3v0zM41.001 0.00195312v510h5v-510h-5z" />
    <glyph glyph-name="jcircumflex" horiz-adv-x="124" 
d="M22 555h-7l50 55h7l50 -55h-8l-46 51zM71 -100c0 -21.333 -7.16699 -39.5 -21.5 -54.5s-32.166 -22.5 -53.499 -22.5v5c19.333 0 35.666 7 48.999 21s20 31 20 51v610h6v-610v0z" />
    <glyph glyph-name="kcedilla" horiz-adv-x="210" 
d="M185 0l-138 250v-250h-6v688h6v-422l138 244h5l-141 -252l141 -258h-5zM145 -43c0 -13.333 -4.83105 -24.835 -14.498 -34.502s-22.167 -14.5 -37.5 -14.5v5c13.333 0 24.666 4.33301 33.999 13s14 19 14 31c0 11.333 -4.33301 21.333 -13 30s-19 13.667 -31 15v5
c13.333 -1.33301 24.666 -6.66602 33.999 -15.999s14 -20.666 14 -33.999z" />
    <glyph glyph-name="kgreenlandic" horiz-adv-x="211" 
d="M185 0l-138 233v-233h-6v510h6v-261l138 261h5l-141 -269l141 -241h-5z" />
    <glyph glyph-name="lacute" horiz-adv-x="140" 
d="M48 720h-7l50 59h8zM67 0v691h6v-691h-6z" />
    <glyph glyph-name="lambda" horiz-adv-x="195" 
d="M28 0h-6l73 446l-27 157h6l99 -597h-5l-71 424z" />
    <glyph glyph-name="lcaron" horiz-adv-x="125" 
d="M99 586h-6l22 55v49h6v-49zM41 0v690h6v-690h-6z" />
    <glyph glyph-name="ldot" horiz-adv-x="122" 
d="M105 327v49h6v-49h-6zM41 0v690h6v-690h-6z" />
    <glyph glyph-name="male" horiz-adv-x="233" 
 />
    <glyph glyph-name="periodcentered" horiz-adv-x="88" 
d="M41 327v49h6v-49h-6z" />
    <glyph glyph-name="minute" horiz-adv-x="88" 
d="M41 590v93h6v-93h-6z" />
    <glyph glyph-name="mu1" horiz-adv-x="239" 
d="M198 -43c-16.667 -4 -29.832 -3.83008 -39.499 0.50293s-14.5 13.166 -14.5 26.499c0 5.33301 1 10 3 14s4.66699 8.33301 8 13c-11.333 -7.33301 -24.333 -11 -39 -11c-15.333 0 -29.333 4.5 -42 13.5s-21.667 20.167 -27 33.5v-183h-6v213v433h6v-433
c0 -19.333 6.66699 -36 20 -50s29.666 -21 48.999 -21s35.666 7 48.999 21s20 30.667 20 50v433h6v-433c0 -17.333 -3.66699 -31.333 -11 -42l-2 -2c-0.666992 -0.666992 -1.16699 -1.33398 -1.5 -2.00098s-1.16602 -1.66699 -2.49902 -3
c-4.66699 -6.66699 -9.66699 -13.334 -15 -20.001c-2.66699 -3.33301 -5 -7 -7 -11s-3 -8.33301 -3 -13c0 -12 4.66699 -19.667 14 -23s21 -3 35 1v-5v0z" />
    <glyph glyph-name="nacute" 
d="M94 551h-7l51 60h7zM41 0l-0.000976562 433v77h6v-47c5.33301 13.333 14.333 24.5 27 33.5s26.667 13.5 42 13.5c21.333 0 39.166 -7.5 53.499 -22.5s21.5 -33.167 21.5 -54.5v-433h-6v433c0 19.333 -6.66699 36 -20 50s-29.666 21 -48.999 21s-35.666 -7 -48.999 -21
s-20 -30.667 -20 -50v-433h-6z" />
    <glyph glyph-name="nonbreakingspace" horiz-adv-x="233" 
 />
    <glyph glyph-name="ncaron" 
d="M113 555l-51 55h7l47 -52l47 52h7l-51 -55h-6zM41 0l-0.000976562 433v77h6v-47c5.33301 13.333 14.333 24.5 27 33.5s26.667 13.5 42 13.5c21.333 0 39.166 -7.5 53.499 -22.5s21.5 -33.167 21.5 -54.5v-433h-6v433c0 19.333 -6.66699 36 -20 50s-29.666 21 -48.999 21
s-35.666 -7 -48.999 -21s-20 -30.667 -20 -50v-433h-6z" />
    <glyph glyph-name="nineinferior" 
d="M47 232c0 -19.333 6.66699 -36 20 -50s29.666 -21 48.999 -21s35.666 7 48.999 21s20 30.667 20 50v87c0 19.333 -6.66699 36 -20 50s-29.666 21 -48.999 21s-35.666 -7 -48.999 -21s-20 -30.667 -20 -50v-87v0zM116 0c-21.333 0 -39.165 7.5 -53.498 22.5
s-21.5 33.167 -21.5 54.5v31h6v-31c0 -19.333 6.66699 -36 20 -50s29.666 -21 48.999 -21s35.666 7 48.999 21s20 30.667 20 50v126c-5.33301 -14 -14.333 -25.5 -27 -34.5s-26.667 -13.5 -42 -13.5c-21.333 0 -39.166 7.5 -53.499 22.5s-21.5 33.167 -21.5 54.5v87
c0 21.333 7.16699 39.333 21.5 54s32.166 22 53.499 22s39.166 -7.33301 53.499 -22s21.5 -32.667 21.5 -54v-87v-2v-153c0 -21.333 -7.16699 -39.5 -21.5 -54.5s-32.166 -22.5 -53.499 -22.5z" />
    <glyph glyph-name="ninesuperior" 
d="M47 518c0 -19.333 6.66699 -36 20 -50s29.666 -21 48.999 -21s35.666 7 48.999 21s20 30.667 20 50v87c0 19.333 -6.66699 36 -20 50s-29.666 21 -48.999 21s-35.666 -7 -48.999 -21s-20 -30.667 -20 -50v-87v0zM116 286c-21.333 0 -39.165 7.5 -53.498 22.5
s-21.5 33.167 -21.5 54.5v31h6v-31c0 -19.333 6.66699 -36 20 -50s29.666 -21 48.999 -21s35.666 7 48.999 21s20 30.667 20 50v125c-5.33301 -13.333 -14.333 -24.5 -27 -33.5s-26.667 -13.5 -42 -13.5c-21.333 0 -39.166 7.5 -53.499 22.5s-21.5 33.167 -21.5 54.5v87
c0 21.333 7.16699 39.333 21.5 54s32.166 22 53.499 22s39.166 -7.33301 53.499 -22s21.5 -32.667 21.5 -54v-87v-2v-153c0 -21.333 -7.16699 -39.5 -21.5 -54.5s-32.166 -22.5 -53.499 -22.5z" />
    <glyph glyph-name="obreve" 
d="M186 611c0 -21.333 -6.33301 -37.166 -19 -47.499s-29.667 -15.5 -51 -15.5s-38.333 5.16699 -51 15.5s-19 26.166 -19 47.499h5c0 -19.333 6 -33.666 18 -42.999s27.667 -14 47 -14s35 4.66699 47 14s18 23.666 18 42.999h5v0zM47 77c0 -19.333 6.66699 -36 20 -50
s29.666 -21 48.999 -21s35.666 7 48.999 21s20 30.667 20 50v356c0 19.333 -6.66699 36 -20 50s-29.666 21 -48.999 21s-35.666 -7 -48.999 -21s-20 -30.667 -20 -50v-356v0zM191 77c0 -21.333 -7.16699 -39.5 -21.5 -54.5s-32.166 -22.5 -53.499 -22.5
s-39.166 7.5 -53.499 22.5s-21.5 33.167 -21.5 54.5v356c0 21.333 7.16699 39.5 21.5 54.5s32.166 22.5 53.499 22.5s39.166 -7.5 53.499 -22.5s21.5 -33.167 21.5 -54.5v-356v0z" />
    <glyph glyph-name="odblacute" 
d="M124 551h-7l50 60h9zM64 551h-8l51 60h7zM47 77c0 -19.333 6.66699 -36 20 -50s29.666 -21 48.999 -21s35.666 7 48.999 21s20 30.667 20 50v356c0 19.333 -6.66699 36 -20 50s-29.666 21 -48.999 21s-35.666 -7 -48.999 -21s-20 -30.667 -20 -50v-356v0zM191 77
c0 -21.333 -7.16699 -39.5 -21.5 -54.5s-32.166 -22.5 -53.499 -22.5s-39.166 7.5 -53.499 22.5s-21.5 33.167 -21.5 54.5v356c0 21.333 7.16699 39.5 21.5 54.5s32.166 22.5 53.499 22.5s39.166 -7.5 53.499 -22.5s21.5 -33.167 21.5 -54.5v-356v0z" />
    <glyph glyph-name="omacron" 
d="M65 576l-1 6h104v-6h-103zM47 77c0 -19.333 6.66699 -36 20 -50s29.666 -21 48.999 -21s35.666 7 48.999 21s20 30.667 20 50v356c0 19.333 -6.66699 36 -20 50s-29.666 21 -48.999 21s-35.666 -7 -48.999 -21s-20 -30.667 -20 -50v-356v0zM191 77
c0 -21.333 -7.16699 -39.5 -21.5 -54.5s-32.166 -22.5 -53.499 -22.5s-39.166 7.5 -53.499 22.5s-21.5 33.167 -21.5 54.5v356c0 21.333 7.16699 39.5 21.5 54.5s32.166 22.5 53.499 22.5s39.166 -7.5 53.499 -22.5s21.5 -33.167 21.5 -54.5v-356v0z" />
    <glyph glyph-name="omega" horiz-adv-x="379" 
d="M189 56c-4.66699 -16.667 -13.499 -30.167 -26.499 -40.5s-28.167 -15.5 -45.5 -15.5c-21.333 0 -39.166 7.5 -53.499 22.5s-21.5 33.167 -21.5 54.5v356h-1c0 21.333 7.33301 39.5 22 54.5s32.667 22.5 54 22.5v-6c-19.333 0 -35.833 -7 -49.5 -21
s-20.5 -30.667 -20.5 -50v-356c0 -19.333 6.83301 -36 20.5 -50s30.167 -21 49.5 -21s35.666 7 48.999 21s20 30.667 20 50v326h6v-326c0 -19.333 6.66699 -36 20 -50s29.666 -21 48.999 -21s35.833 7 49.5 21s20.5 30.667 20.5 50v356c0 19.333 -6.83301 36 -20.5 50
s-30.167 21 -49.5 21v6c21.333 0 39.333 -7.5 54 -22.5s22 -33.167 22 -54.5v-356c0 -21.333 -7.33301 -39.5 -22 -54.5s-32.667 -22.5 -54 -22.5c-17.333 0 -32.5 5.16699 -45.5 15.5s-21.833 23.833 -26.5 40.5z" />
    <glyph glyph-name="oneeighth" horiz-adv-x="428" 
d="M105 286v387l-58 -106l-6 1l64 115h5v-397h-5zM124 0h-6l149 690h5zM242 304c0 -20 6.66699 -37 20 -51s29.666 -21 48.999 -21s35.833 7 49.5 21s20.5 31 20.5 51v15c0 19.333 -6.83301 36 -20.5 50s-30.167 21 -49.5 21s-35.666 -7 -48.999 -21s-20 -30.667 -20 -50
v-15v0zM242 77c0 -19.333 6.66699 -36 20 -50s29.666 -21 48.999 -21s35.833 7 49.5 21s20.5 30.667 20.5 50v78c0 19.333 -6.83301 36 -20.5 50s-30.167 21 -49.5 21s-35.666 -7 -48.999 -21s-20 -30.667 -20 -50v-78v0zM311 0c-20.667 0 -38.334 7.5 -53.001 22.5
s-22 33.167 -22 54.5v78c0 18 5.16699 33.667 15.5 47s23.5 22.333 39.5 27c-16 4.66699 -29.167 14 -39.5 28s-15.5 29.667 -15.5 47v15c0 21.333 7.33301 39.333 22 54s32.334 22 53.001 22c21.333 0 39.166 -7.33301 53.499 -22s21.5 -32.667 21.5 -54v-15
c0 -17.333 -5.16699 -33 -15.5 -47s-23.166 -23.333 -38.499 -28c15.333 -4.66699 28.166 -13.667 38.499 -27s15.5 -29 15.5 -47v-78c0 -21.333 -7.16699 -39.5 -21.5 -54.5s-32.166 -22.5 -53.499 -22.5z" />
    <glyph glyph-name="oneinferior" horiz-adv-x="151" 
d="M105 0v387l-58 -106l-6 1l64 115h5v-397h-5z" />
    <glyph glyph-name="onethird" horiz-adv-x="436" 
d="M105 286v387l-58 -106l-6 1l64 115h5v-397h-5zM124 0h-6l149 690h5zM319 0c-20.667 0 -38.334 7.5 -53.001 22.5s-22 33.167 -22 54.5h6c0 -19.333 6.66699 -36 20 -50s29.666 -21 48.999 -21s35.833 7 49.5 21s20.5 30.667 20.5 50v78c0 19.333 -6.83301 36 -20.5 50
s-30.167 21 -49.5 21h-31v6h31c19.333 0 35.833 7 49.5 21s20.5 31 20.5 51v15c0 19.333 -6.83301 36 -20.5 50s-30.167 21 -49.5 21s-35.666 -7 -48.999 -21s-20 -30.667 -20 -50h-6c0 21.333 7.33301 39.333 22 54s32.334 22 53.001 22c21.333 0 39.333 -7.33301 54 -22
s22 -32.667 22 -54v-15c0 -17.333 -5.33301 -33 -16 -47s-23.667 -23.333 -39 -28c15.333 -4.66699 28.333 -13.667 39 -27s16 -29 16 -47v-78c0 -21.333 -7.33301 -39.5 -22 -54.5s-32.667 -22.5 -54 -22.5z" />
    <glyph glyph-name="macron" horiz-adv-x="218" 
d="M41 749v6h136v-6h-136z" />
    <glyph glyph-name="peseta" horiz-adv-x="571" 
d="M530 77c0 -21.333 -7.16602 -39.499 -21.499 -54.499s-32.166 -22.5 -53.499 -22.5s-39.166 7.5 -53.499 22.5s-21.5 33.167 -21.5 54.5h6c0 -19.333 6.66699 -36 20 -50s29.666 -21 48.999 -21s35.666 7 48.999 21s20 30.667 20 50c0 22.667 -8.66699 41 -26 55
c-6 5.33301 -12.5 9.33301 -19.5 12s-14.167 5.66699 -21.5 9c-13.333 5.33301 -23.5 9.66602 -30.5 12.999s-13.833 7.66602 -20.5 12.999c-8 7.33301 -14.333 16 -19 26s-7 21 -7 33c0 21.333 7.16699 39.5 21.5 54.5s32.166 22.5 53.499 22.5s39.166 -7.5 53.499 -22.5
s21.5 -33.167 21.5 -54.5h-6c0 19.333 -6.66699 36 -20 50s-29.666 21 -48.999 21s-35.666 -7 -48.999 -21s-20 -30.667 -20 -50c0 -22.667 8 -41 24 -55c6 -5.33301 13 -9.66602 21 -12.999l27 -11c9.33301 -4 17.166 -7.5 23.499 -10.5s12.833 -7.16699 19.5 -12.5
c19.333 -15.333 29 -35 29 -59zM109.001 370.001c19.333 0 35.666 7 48.999 21s20 31 20 51v171c0 19.333 -6.66699 36 -20 50s-29.666 21 -48.999 21h-62v-314h62zM41.001 0.000976562v363.999v6v314v6h6h62c20.667 0 38.334 -7.5 53.001 -22.5s22 -33.167 22 -54.5v-171
c0 -21.333 -7.33301 -39.666 -22 -54.999s-32.334 -23 -53.001 -23h-62v-364h-6zM332.001 0c-21.333 0 -39.167 7.5 -53.5 22.5s-21.5 33.167 -21.5 54.5v233h-45v5h45v129h5v-129h69v-5h-69v-233c0 -19.333 6.83301 -36 20.5 -50s30.167 -21 49.5 -21v-6v0z" />
    <glyph glyph-name="pi" horiz-adv-x="249" 
d="M47 0l-0.000976562 512.998c-9.33301 -4 -17.333 -10 -24 -18l-4 4c14 16 31.333 24.5 52 25.5s39 -5.16699 55 -18.5c15.333 -13.333 32.5 -19.333 51.5 -18s35.167 9 48.5 23l4 -3c-4.66699 -5.33301 -9.66699 -9.66602 -15 -12.999s-10.666 -6.33301 -15.999 -9v-486
h-6v484c-12 -3.33301 -24.333 -3.66602 -37 -0.999023s-24 8.66699 -34 18c-21.333 18 -44.333 22.667 -69 14v-515h-6z" />
    <glyph glyph-name="psi" horiz-adv-x="239" 
d="M198 78c0 -21.333 -7.33105 -39.667 -21.998 -55s-32.334 -23 -53.001 -23v-167h-6v678h6v-505c19.333 0 35.666 7 48.999 21s20 31 20 51v432h6v-432v0zM116.002 -0.000976562c-21.333 0 -39.166 7.66797 -53.499 23.001s-21.5 33.666 -21.5 54.999v432h6v-432
c0 -20 6.66699 -37 20 -51s29.666 -21 48.999 -21v-6v0z" />
    <glyph glyph-name="racute" horiz-adv-x="208" 
d="M94 551h-7l51 60h7zM41 0l-0.000976562 433v77h6v-47c5.33301 13.333 14.333 24.5 27 33.5s26.667 13.5 42 13.5c21.333 0 39.166 -7.5 53.499 -22.5s21.5 -33.167 21.5 -54.5h-6c0 19.333 -6.66699 36 -20 50s-29.666 21 -48.999 21s-35.666 -7 -48.999 -21
s-20 -30.667 -20 -50v-433h-6z" />
    <glyph glyph-name="rcaron" horiz-adv-x="211" 
d="M113 555l-51 55h7l47 -52l47 52h7l-51 -55h-6zM41 0l-0.000976562 433v77h6v-47c5.33301 13.333 14.333 24.5 27 33.5s26.667 13.5 42 13.5c21.333 0 39.166 -7.5 53.499 -22.5s21.5 -33.167 21.5 -54.5h-6c0 19.333 -6.66699 36 -20 50s-29.666 21 -48.999 21
s-35.666 -7 -48.999 -21s-20 -30.667 -20 -50v-433h-6z" />
    <glyph glyph-name="sacute" 
d="M94 551h-7l51 60h7zM41 125l6 0.00195312v-49c0 -19.333 6.66699 -36 20 -50s29.666 -21 48.999 -21s35.666 7 48.999 21s20 30.667 20 50v108c0 22 -9 40.333 -27 55c-5.33301 4.66699 -11.5 8.5 -18.5 11.5l-21.5 9.5c-13.333 5.33301 -23.5 9.66602 -30.5 12.999
s-13.833 7.66602 -20.5 12.999c-17.333 15.333 -26 35 -26 59v88c0 21.333 7.16699 39.5 21.5 54.5s32.166 22.5 53.499 22.5s39.166 -7.5 53.499 -22.5s21.5 -33.167 21.5 -54.5v-49h-6v49c0 19.333 -6.66699 36 -20 50s-29.666 21 -48.999 21s-35.666 -7 -48.999 -21
s-20 -30.667 -20 -50v-88c0 -22.667 8 -41 24 -55c6 -5.33301 13 -9.66602 21 -12.999l26 -11c10 -4.66699 18.167 -8.33398 24.5 -11.001s12.833 -6.66699 19.5 -12c19.333 -15.333 29 -35 29 -59v-108c0 -21.333 -7.16699 -39.5 -21.5 -54.5s-32.166 -22.5 -53.499 -22.5
s-39.166 7.5 -53.499 22.5s-21.5 33.167 -21.5 54.5v49z" />
    <glyph glyph-name="scedilla" 
d="M155 -45c0 -13.333 -4.99805 -24.833 -14.998 -34.5s-22.333 -14.5 -37 -14.5v6c13.333 0 24.5 4.16699 33.5 12.5s13.5 18.5 13.5 30.5c0 11.333 -3.5 21 -10.5 29s-15.833 13 -26.5 15c-20 1.33301 -37 9.33301 -51 24s-21 32.334 -21 53.001v49h6v-49
c0 -19.333 6.66699 -36 20 -50s29.666 -21 48.999 -21s35.666 7 48.999 21s20 30.667 20 50v108c0 22 -9 40.333 -27 55c-5.33301 4.66699 -11.5 8.5 -18.5 11.5l-21.5 9.5c-13.333 5.33301 -23.5 9.66602 -30.5 12.999s-13.833 7.66602 -20.5 12.999
c-17.333 15.333 -26 35 -26 59v88c0 21.333 7.16699 39.5 21.5 54.5s32.166 22.5 53.499 22.5s39.166 -7.5 53.499 -22.5s21.5 -33.167 21.5 -54.5v-49h-6v49c0 19.333 -6.66699 36 -20 50s-29.666 21 -48.999 21s-35.666 -7 -48.999 -21s-20 -30.667 -20 -50v-88
c0 -22.667 8 -41 24 -55c6 -5.33301 13 -9.66602 21 -12.999l26 -11c10 -4.66699 18.167 -8.33398 24.5 -11.001s12.833 -6.66699 19.5 -12c19.333 -15.333 29 -35 29 -59v-108c0 -19.333 -6.16699 -36.166 -18.5 -50.499s-27.5 -22.833 -45.5 -25.5
c18.667 -8.66699 28 -23.667 28 -45z" />
    <glyph glyph-name="scircumflex" 
d="M69 555h-7l51 55h6l51 -55h-7l-47 52zM41 125l6 0.00195312v-49c0 -19.333 6.66699 -36 20 -50s29.666 -21 48.999 -21s35.666 7 48.999 21s20 30.667 20 50v108c0 22 -9 40.333 -27 55c-5.33301 4.66699 -11.5 8.5 -18.5 11.5l-21.5 9.5
c-13.333 5.33301 -23.5 9.66602 -30.5 12.999s-13.833 7.66602 -20.5 12.999c-17.333 15.333 -26 35 -26 59v88c0 21.333 7.16699 39.5 21.5 54.5s32.166 22.5 53.499 22.5s39.166 -7.5 53.499 -22.5s21.5 -33.167 21.5 -54.5v-49h-6v49c0 19.333 -6.66699 36 -20 50
s-29.666 21 -48.999 21s-35.666 -7 -48.999 -21s-20 -30.667 -20 -50v-88c0 -22.667 8 -41 24 -55c6 -5.33301 13 -9.66602 21 -12.999l26 -11c10 -4.66699 18.167 -8.33398 24.5 -11.001s12.833 -6.66699 19.5 -12c19.333 -15.333 29 -35 29 -59v-108
c0 -21.333 -7.16699 -39.5 -21.5 -54.5s-32.166 -22.5 -53.499 -22.5s-39.166 7.5 -53.499 22.5s-21.5 33.167 -21.5 54.5v49z" />
    <glyph glyph-name="second" horiz-adv-x="137" 
d="M90 590v93h6v-93h-6zM41 590v93h6v-93h-6z" />
    <glyph glyph-name="seveneighths" horiz-adv-x="442" 
d="M76 286h-6l110 381h-139v6h140h2h3zM139 0h-6l149 690h5zM257 304c0 -20 6.66699 -37 20 -51s29.666 -21 48.999 -21s35.666 7 48.999 21s20 31 20 51v15c0 19.333 -6.66699 36 -20 50s-29.666 21 -48.999 21s-35.666 -7 -48.999 -21s-20 -30.667 -20 -50v-15v0zM257 77
c0 -19.333 6.66699 -36 20 -50s29.666 -21 48.999 -21s35.666 7 48.999 21s20 30.667 20 50v78c0 19.333 -6.66699 36 -20 50s-29.666 21 -48.999 21s-35.666 -7 -48.999 -21s-20 -30.667 -20 -50v-78v0zM326 0c-21.333 0 -39.166 7.5 -53.499 22.5s-21.5 33.167 -21.5 54.5
v78c0 18 5.16699 33.667 15.5 47s23.5 22.333 39.5 27c-16 4.66699 -29.167 14 -39.5 28s-15.5 29.667 -15.5 47v15c0 21.333 7.16699 39.333 21.5 54s32.166 22 53.499 22s39.166 -7.33301 53.499 -22s21.5 -32.667 21.5 -54v-15c0 -17.333 -5.16699 -33 -15.5 -47
s-23.5 -23.333 -39.5 -28c16 -4.66699 29.167 -13.667 39.5 -27s15.5 -29 15.5 -47v-78c0 -21.333 -7.16699 -39.5 -21.5 -54.5s-32.166 -22.5 -53.499 -22.5z" />
    <glyph glyph-name="seveninferior" horiz-adv-x="227" 
d="M76 0h-6l110 382h-139v5h140h2h3z" />
    <glyph glyph-name="sevensuperior" horiz-adv-x="227" 
d="M76 286h-6l110 381h-139v6h140h2h3z" />
    <glyph glyph-name="sixinferior" 
d="M47 77c0 -19.333 6.66699 -36 20 -50s29.666 -21 48.999 -21s35.666 7 48.999 21s20 30.667 20 50v86c0 20 -6.66699 36.833 -20 50.5s-29.666 20.5 -48.999 20.5s-35.666 -6.83301 -48.999 -20.5s-20 -30.5 -20 -50.5v-86v0zM116 0c-21.333 0 -39.167 7.5 -53.5 22.5
s-21.5 33.167 -21.5 54.5v86v2v154c0 21.333 7.16699 39.333 21.5 54s32.166 22 53.499 22s39.166 -7.33301 53.499 -22s21.5 -32.667 21.5 -54v-31h-6v31c0 19.333 -6.66699 36 -20 50s-29.666 21 -48.999 21s-35.666 -7 -48.999 -21s-20 -30.667 -20 -50v-126
c5.33301 14 14.333 25.333 27 34s26.667 13 42 13c21.333 0 39.166 -7.5 53.499 -22.5s21.5 -33.167 21.5 -54.5v-86c0 -21.333 -7.16699 -39.5 -21.5 -54.5s-32.166 -22.5 -53.499 -22.5z" />
    <glyph glyph-name="sixsuperior" 
d="M47 363c0 -19.333 6.66699 -36 20 -50s29.666 -21 48.999 -21s35.666 7 48.999 21s20 30.667 20 50v86c0 20 -6.66699 36.833 -20 50.5s-29.666 20.5 -48.999 20.5s-35.666 -6.83301 -48.999 -20.5s-20 -30.5 -20 -50.5v-86v0zM116 286c-21.333 0 -39.167 7.5 -53.5 22.5
s-21.5 33.167 -21.5 54.5v86v2v154c0 21.333 7.16699 39.333 21.5 54s32.166 22 53.499 22s39.166 -7.33301 53.499 -22s21.5 -32.667 21.5 -54v-31h-6v31c0 19.333 -6.66699 36 -20 50s-29.666 21 -48.999 21s-35.666 -7 -48.999 -21s-20 -30.667 -20 -50v-126
c5.33301 14 14.333 25.333 27 34s26.667 13 42 13c21.333 0 39.166 -7.5 53.499 -22.5s21.5 -33.167 21.5 -54.5v-86c0 -21.333 -7.16699 -39.5 -21.5 -54.5s-32.166 -22.5 -53.499 -22.5z" />
    <glyph glyph-name="tbar" horiz-adv-x="164" 
d="M148 0c-21.333 0 -39.167 7.5 -53.5 22.5s-21.5 33.167 -21.5 54.5v344h-45v5h45v78h-45v6h45v127h5v-127h69v-6h-69v-78h69v-5h-69v-344c0 -19.333 6.83301 -36 20.5 -50s30.167 -21 49.5 -21v-6v0z" />
    <glyph glyph-name="theta" 
d="M47 355h137.998v258c0 19.333 -6.66699 36 -20 50s-29.666 21 -48.999 21s-35.666 -7 -48.999 -21s-20 -30.667 -20 -50v-258zM46.998 77c0 -19.333 6.66895 -36 20.002 -50s29.666 -21 48.999 -21s35.666 7 48.999 21s20 30.667 20 50v273h-138v-273v0zM191 77
c0 -21.333 -7.16699 -39.5 -21.5 -54.5s-32.166 -22.5 -53.499 -22.5s-39.166 7.5 -53.499 22.5s-21.5 33.167 -21.5 54.5v536c0 21.333 7.16699 39.5 21.5 54.5s32.166 22.5 53.499 22.5s39.166 -7.5 53.499 -22.5s21.5 -33.167 21.5 -54.5v-536v0z" />
    <glyph glyph-name="threeeighths" horiz-adv-x="477" 
d="M174 0h-6l149 690h5zM292 304c0 -20 6.66699 -37 20 -51s29.666 -21 48.999 -21s35.833 7 49.5 21s20.5 31 20.5 51v15c0 19.333 -6.83301 36 -20.5 50s-30.167 21 -49.5 21s-35.666 -7 -48.999 -21s-20 -30.667 -20 -50v-15v0zM292 77c0 -19.333 6.66699 -36 20 -50
s29.666 -21 48.999 -21s35.833 7 49.5 21s20.5 30.667 20.5 50v78c0 19.333 -6.83301 36 -20.5 50s-30.167 21 -49.5 21s-35.666 -7 -48.999 -21s-20 -30.667 -20 -50v-78v0zM361 0c-21.333 0 -39.166 7.5 -53.499 22.5s-21.5 33.167 -21.5 54.5v78
c0 18 5.16699 33.667 15.5 47s23.5 22.333 39.5 27c-16 4.66699 -29.167 14 -39.5 28s-15.5 29.667 -15.5 47v15c0 21.333 7.16699 39.333 21.5 54s32.166 22 53.499 22s39.166 -7.33301 53.499 -22s21.5 -32.667 21.5 -54v-15c0 -17.333 -5.16699 -33 -15.5 -47
s-23.5 -23.333 -39.5 -28c16 -4.66699 29.167 -13.667 39.5 -27s15.5 -29 15.5 -47v-78c0 -21.333 -7.16699 -39.5 -21.5 -54.5s-32.166 -22.5 -53.499 -22.5zM116 286c-21.333 0 -39.166 7.50098 -53.499 22.501s-21.5 33.167 -21.5 54.5h6c0 -19.333 6.66699 -36 20 -50
s29.666 -21 48.999 -21s35.666 7 48.999 21s20 30.667 20 50v78c0 19.333 -6.66699 36 -20 50s-29.666 21 -48.999 21h-31v6h31c19.333 0 35.666 7 48.999 21s20 31 20 51v15c0 19.333 -6.66699 36 -20 50s-29.666 21 -48.999 21s-35.666 -7 -48.999 -21
s-20 -30.667 -20 -50h-6c0 21.333 7.16699 39.333 21.5 54s32.166 22 53.499 22s39.166 -7.33301 53.499 -22s21.5 -32.667 21.5 -54v-15c0 -17.333 -5.16699 -33 -15.5 -47s-23.5 -23.333 -39.5 -28c16 -4.66699 29.167 -13.834 39.5 -27.501s15.5 -29.167 15.5 -46.5v-78
c0 -21.333 -7.16699 -39.5 -21.5 -54.5s-32.166 -22.5 -53.499 -22.5z" />
    <glyph glyph-name="threeinferior" 
d="M116 0c-21.333 0 -39.166 7.5 -53.499 22.5s-21.5 33.167 -21.5 54.5h6c0 -19.333 6.66699 -36 20 -50s29.666 -21 48.999 -21s35.666 7 48.999 21s20 30.667 20 50v78c0 19.333 -6.66699 36 -20 50s-29.666 21 -48.999 21h-31v6h31c19.333 0 35.666 7 48.999 21
s20 31 20 51v15c0 19.333 -6.66699 36 -20 50s-29.666 21 -48.999 21s-35.666 -7 -48.999 -21s-20 -30.667 -20 -50h-6c0 21.333 7.16699 39.333 21.5 54s32.166 22 53.499 22s39.166 -7.33301 53.499 -22s21.5 -32.667 21.5 -54v-15c0 -17.333 -5.16699 -33 -15.5 -47
s-23.5 -23.333 -39.5 -28c16 -4.66699 29.167 -13.667 39.5 -27s15.5 -29 15.5 -47v-78c0 -21.333 -7.16699 -39.5 -21.5 -54.5s-32.166 -22.5 -53.499 -22.5z" />
    <glyph glyph-name="triagdn" horiz-adv-x="278" 
d="M141 214l-100 121h196z" />
    <glyph glyph-name="triaglf" horiz-adv-x="187" 
d="M41 273l104 118v-232z" />
    <glyph glyph-name="triagrt" horiz-adv-x="187" 
d="M41 159v232l104 -118z" />
    <glyph glyph-name="triagup" horiz-adv-x="278" 
d="M41 214l100 121l96 -121h-196z" />
    <glyph glyph-name="twoinferior" 
d="M41 6v119.999c0 12 2.5 23 7.5 33s12.167 18.667 21.5 26c6.66699 5.33301 13.167 9.5 19.5 12.5s14.5 6.5 24.5 10.5l26 11c8 3.33301 15 7.66602 21 12.999c16 14 24 32.333 24 55v32c0 19.333 -6.66699 36 -20 50s-29.666 21 -48.999 21s-35.666 -7 -48.999 -21
s-20 -30.667 -20 -50v-17h-6v17c0 21.333 7.16699 39.333 21.5 54s32.166 22 53.499 22s39.166 -7.33301 53.499 -22s21.5 -32.667 21.5 -54v-32c0 -24 -8.66699 -43.667 -26 -59c-6.66699 -5.33301 -13.5 -9.66602 -20.5 -12.999s-17.167 -7.66602 -30.5 -12.999
l-21.5 -9.5c-7 -3 -13.167 -6.83301 -18.5 -11.5c-18 -14.667 -27 -33 -27 -55v-120h136v-6h-142v3v3z" />
    <glyph glyph-name="twothirds" horiz-adv-x="462" 
d="M150 0h-5l148 690h5zM41 292v119.999c0 12 2.5 23 7.5 33s12.167 18.667 21.5 26c6.66699 5.33301 13.167 9.5 19.5 12.5s14.5 6.5 24.5 10.5l26 11c8 3.33301 15 7.66602 21 12.999c16 14 24 32.333 24 55v32c0 19.333 -6.66699 36 -20 50s-29.666 21 -48.999 21
s-35.666 -7 -48.999 -21s-20 -30.667 -20 -50v-17h-6v17c0 21.333 7.16699 39.333 21.5 54s32.166 22 53.499 22s39.166 -7.33301 53.499 -22s21.5 -32.667 21.5 -54v-32c0 -24 -8.66699 -43.667 -26 -59c-6.66699 -5.33301 -13.5 -9.66602 -20.5 -12.999
s-17.167 -7.66602 -30.5 -12.999l-21.5 -10c-7 -3.33301 -13.167 -7.33301 -18.5 -12c-18 -14.667 -27 -32.667 -27 -54v-120h136v-6h-142v3v3zM346 -0.000976562c-21.333 0 -39.333 7.5 -54 22.5s-22 33.167 -22 54.5h6c0 -19.333 6.83301 -36 20.5 -50
s30.167 -21 49.5 -21s35.666 7 48.999 21s20 30.667 20 50v78c0 19.333 -6.66699 36 -20 50s-29.666 21 -48.999 21h-31v6h31c19.333 0 35.666 7 48.999 21s20 31 20 51v15c0 19.333 -6.66699 36 -20 50s-29.666 21 -48.999 21s-35.833 -7 -49.5 -21
s-20.5 -30.667 -20.5 -50h-6c0 21.333 7.33301 39.333 22 54s32.667 22 54 22c20.667 0 38.334 -7.33301 53.001 -22s22 -32.667 22 -54v-15c0 -17.333 -5.16699 -33 -15.5 -47s-23.5 -23.333 -39.5 -28c16 -4.66699 29.167 -13.667 39.5 -27s15.5 -29 15.5 -47v-78
c0 -21.333 -7.33301 -39.5 -22 -54.5s-32.334 -22.5 -53.001 -22.5z" />
    <glyph glyph-name="ubreve" 
d="M113 555h-1l-50 55h7l47 -51l47 51h7l-51 -55h-6zM191 77c0 -21.333 -7.16699 -39.5 -21.5 -54.5s-32.166 -22.5 -53.499 -22.5s-39.166 7.5 -53.499 22.5s-21.5 33.167 -21.5 54.5v433h6v-433c0 -19.333 6.66699 -36 20 -50s29.666 -21 48.999 -21s35.666 7 48.999 21
s20 30.667 20 50v433h6v-433v0z" />
    <glyph glyph-name="umacron" 
d="M65 576l-1 6h104v-6h-103zM191 77c0 -21.333 -7.16699 -39.5 -21.5 -54.5s-32.166 -22.5 -53.499 -22.5s-39.166 7.5 -53.499 22.5s-21.5 33.167 -21.5 54.5v433h6v-433c0 -19.333 6.66699 -36 20 -50s29.666 -21 48.999 -21s35.666 7 48.999 21s20 30.667 20 50v433h6
v-433v0z" />
    <glyph glyph-name="upsilondieresistonos" 
d="M164 551v36h6v-36h-6zM94 551h-7l50 60h8zM62 551v36h7v-36h-7zM191 77c0 -21.333 -7.16699 -39.5 -21.5 -54.5s-32.166 -22.5 -53.499 -22.5s-39.166 7.5 -53.499 22.5s-21.5 33.167 -21.5 54.5v433h6v-433c0 -19.333 6.66699 -36 20 -50s29.666 -21 48.999 -21
s35.666 7 48.999 21s20 30.667 20 50v433h6v-433v0z" />
    <glyph glyph-name="utilde" horiz-adv-x="245" 
d="M204 584c-11.333 -12 -25.0029 -18.498 -41.0029 -19.498s-30.333 3.5 -43 13.5c-11.333 9.33301 -24.166 13.666 -38.499 12.999s-26.166 -6.33398 -35.499 -17.001l-5 5c11.333 11.333 24.833 17.5 40.5 18.5s29.834 -3.83301 42.501 -14.5
c11.333 -9.33301 24.333 -13.5 39 -12.5s26.667 6.5 36 16.5l5 -3v0zM197.997 77.002c0 -21.333 -7.33105 -39.5 -21.998 -54.5s-32.334 -22.5 -53.001 -22.5c-21.333 0 -39.333 7.5 -54 22.5s-22 33.167 -22 54.5v433h6v-433c0 -19.333 6.83301 -36 20.5 -50
s30.167 -21 49.5 -21s35.666 7 48.999 21s20 30.667 20 50v433h6v-433v0z" />
    <glyph glyph-name="zacute" horiz-adv-x="231" 
d="M101 551h-7l50 60h8zM47 0h-3h-3l142 504h-139v6h141h1h4l-142 -504h138v-6h-139z" />
    <glyph glyph-name="zdot" horiz-adv-x="231" 
d="M120 567v35h6v-35h-6zM47 0h-3h-3l142 504h-139v6h141h1h4l-142 -504h138v-6h-139z" />
    <glyph glyph-name="zeroinferior" 
d="M47 52c0 -19.333 6.66699 -31.833 20 -37.5s29.666 -8.5 48.999 -8.5s35.666 2.83301 48.999 8.5s20 18.167 20 37.5v291c0 19.333 -6.66699 32 -20 38s-29.666 9 -48.999 9s-35.666 -3 -48.999 -9s-20 -18.667 -20 -38v-291v0zM191 52
c0 -21.333 -7.16699 -35.333 -21.5 -42s-32.166 -10 -53.499 -10s-39.166 3.33301 -53.499 10s-21.5 20.667 -21.5 42v291c0 21.333 7.16699 35.333 21.5 42s32.166 10 53.499 10s39.166 -3.33301 53.499 -10s21.5 -20.667 21.5 -42v-291v0z" />
    <glyph glyph-name="zerosuperior" 
d="M47 338c0 -19.333 6.66699 -31.833 20 -37.5s29.666 -8.5 48.999 -8.5s35.666 2.83301 48.999 8.5s20 18.167 20 37.5v291c0 19.333 -6.66699 32 -20 38s-29.666 9 -48.999 9s-35.666 -3 -48.999 -9s-20 -18.667 -20 -38v-291v0zM191 338
c0 -21.333 -7.16699 -35.333 -21.5 -42s-32.166 -10 -53.499 -10s-39.166 3.33301 -53.499 10s-21.5 20.667 -21.5 42v291c0 21.333 7.16699 35.333 21.5 42s32.166 10 53.499 10s39.166 -3.33301 53.499 -10s21.5 -20.667 21.5 -42v-291v0z" />
    </font>
</defs>
</svg>
